<svg width="48" height="28" viewBox="0 0 48 28" fill="none" xmlns="http://www.w3.org/2000/svg">
<g id="Frame 242">
<path id="Vector" d="M44 0.5H4C2.067 0.5 0.5 2.067 0.5 4V24C0.5 25.933 2.067 27.5 4 27.5H44C45.933 27.5 47.5 25.933 47.5 24V4C47.5 2.067 45.933 0.5 44 0.5Z" fill="#016FD0" stroke="#D9D9D9"/>
<path id="Vector_2" d="M6 3H41.836V14.9699L40.062 17.7414L41.836 20.2081V24.8906H6V13.2238L7.10901 11.9489L6 10.7295V3Z" fill="#016FD0"/>
<path id="Vector_3" d="M12.957 20.5962V14.9699H18.914L19.553 15.8032L20.213 14.9699H41.836V20.2082C41.836 20.2082 41.27 20.5906 40.616 20.5962H28.643L27.923 19.7093V20.5962H25.561V19.0822C25.561 19.0822 25.239 19.2936 24.542 19.2936H23.738V20.5962H20.163L19.524 19.7451L18.876 20.5962H12.957ZM6 10.7295L7.34299 7.59766H9.66699L10.429 9.35198V7.59766H13.317L13.771 8.86563L14.211 7.59766H27.174V8.23511C27.174 8.23511 27.856 7.59766 28.976 7.59766L33.182 7.61238L33.931 9.34372V7.59766H36.348L37.013 8.59217V7.59766H39.452V13.2239H37.013L36.376 12.2261V13.2239H32.825L32.468 12.337H31.514L31.162 13.2239H28.754C27.791 13.2239 27.174 12.5995 27.174 12.5995V13.2239H23.544L22.823 12.337V13.2239H9.32199L8.966 12.337H8.01401L7.66 13.2239H6V10.7295Z" fill="white"/>
<path id="Vector_4" d="M7.81885 8.28978L6.00684 12.5025H7.18686L7.52084 11.6589H9.46484L9.79684 12.5025H11.0028L9.19284 8.28978H7.81885ZM8.48886 9.27017L9.08185 10.7443H7.89484L8.48886 9.27017ZM11.1269 12.5017V8.28906L12.8038 8.29527L13.7788 11.0114L14.7299 8.28906H16.3929V12.5017H15.3398V9.39767L14.2238 12.5017H13.2998L12.1808 9.39767V12.5017H11.1269ZM17.1139 12.5017V8.28906H20.5508V9.23137H18.1779V9.95196H20.4948V10.8388H18.1779V11.5872H20.5508V12.5017H17.1139ZM21.1599 8.28978V12.5025H22.2138V11.0058H22.6569L23.9199 12.5025H25.2068L23.8209 10.9504C24.3899 10.9024 24.9759 10.4143 24.9759 9.65647C24.9759 8.76999 24.2808 8.28978 23.5038 8.28978H21.1599ZM22.2138 9.23209H23.4168C23.7058 9.23209 23.9158 9.45799 23.9158 9.67551C23.9158 9.95537 23.6439 10.1189 23.4329 10.1189H22.2138V9.23209ZM26.4818 12.5017H25.4059V8.28906H26.4818V12.5017ZM29.0319 12.5017H28.7989C27.6759 12.5017 26.9938 11.6169 26.9938 10.4127C26.9938 9.17874 27.6689 8.28906 29.0869 8.28906H30.2509V9.2868H29.0439C28.4689 9.2868 28.0619 9.73612 28.0619 10.4231C28.0619 11.2389 28.5268 11.5816 29.1978 11.5816H29.4749L29.0319 12.5017ZM31.3228 8.28978L29.5108 12.5025H30.6909L31.0248 11.6589H32.9688L33.3008 12.5025H34.5068L32.6968 8.28978H31.3228ZM31.9938 9.27017L32.5858 10.7443H31.3988L31.9938 9.27017ZM34.6299 12.5017V8.28906H35.9688L37.6788 10.9358V8.28906H38.7318V12.5017H37.4359L35.6829 9.78569V12.5017H34.6299ZM13.6768 19.874V15.6613H17.1139V16.6036H14.7419V17.3242H17.0588V18.2111H14.7419V18.9594H17.1139V19.874H13.6768ZM30.5168 19.874V15.6613H33.9539V16.6036H31.5808V17.3242H33.8868V18.2111H31.5808V18.9594H33.9539V19.874H30.5168ZM17.2469 19.874L18.9208 17.7936L17.2079 15.6613H18.5338L19.5548 16.9795L20.5779 15.6613H21.8528L20.1628 17.7676L21.8388 19.874H20.5118L19.5219 18.5766L18.5548 19.874H17.2469ZM21.9638 15.662V19.8747H23.0449V18.5444H24.1538C25.0918 18.5444 25.8029 18.0467 25.8029 17.079C25.8029 16.2772 25.2449 15.662 24.2899 15.662H21.9638ZM23.0449 16.6147H24.2129C24.5159 16.6147 24.7318 16.8005 24.7318 17.0997C24.7318 17.3809 24.5169 17.5847 24.2089 17.5847H23.0449V16.6147ZM26.2599 15.6613V19.874H27.3128V18.3774H27.7568L29.0189 19.874H30.3058L28.9208 18.322C29.4888 18.274 30.0758 17.7858 30.0758 17.028C30.0758 16.1415 29.3799 15.6613 28.6039 15.6613H26.2599ZM27.3128 16.6036H28.5168C28.8058 16.6036 29.0158 16.8295 29.0158 17.047C29.0158 17.3269 28.7438 17.4905 28.5328 17.4905H27.3128V16.6036ZM34.4418 19.874V18.9594H36.5489C36.8609 18.9594 36.9958 18.7909 36.9958 18.606C36.9958 18.4289 36.8619 18.2499 36.5489 18.2499H35.5968C34.7688 18.2499 34.3079 17.7455 34.3079 16.9882C34.3079 16.3127 34.7298 15.6613 35.9598 15.6613H38.0108L37.5678 16.6092H35.7939C35.4549 16.6092 35.3509 16.7871 35.3509 16.957C35.3509 17.1316 35.4799 17.3242 35.7389 17.3242H36.7358C37.6588 17.3242 38.0598 17.8477 38.0598 18.5333C38.0598 19.2703 37.6139 19.874 36.6859 19.874H34.4418ZM38.3069 19.874V18.9594H40.4149C40.7269 18.9594 40.8618 18.7909 40.8618 18.606C40.8618 18.4289 40.7269 18.2499 40.4149 18.2499H39.4619C38.6339 18.2499 38.1729 17.7455 38.1729 16.9882C38.1729 16.3127 38.5948 15.6613 39.8258 15.6613H41.8769L41.4329 16.6092H39.6588C39.3198 16.6092 39.2159 16.7871 39.2159 16.957C39.2159 17.1316 39.3449 17.3242 39.6039 17.3242H40.6018C41.5248 17.3242 41.9248 17.8477 41.9248 18.5333C41.9248 19.2703 41.4788 19.874 40.5518 19.874H38.3069Z" fill="#016FD0"/>
</g>
</svg>
