<svg width="87" height="28" viewBox="0 0 87 28" fill="none" xmlns="http://www.w3.org/2000/svg">
<g id="Frame 246">
<path id="Vector" d="M83 0.5H4C2.067 0.5 0.5 2.067 0.5 4V24C0.5 25.933 2.067 27.5 4 27.5H83C84.933 27.5 86.5 25.933 86.5 24V4C86.5 2.067 84.933 0.5 83 0.5Z" fill="#004790" stroke="#D9D9D9"/>
<path id="Vector_2" d="M22.6855 11.001V4.5586H23.5601L26.9438 9.6167V4.5586H27.7612V11.001H26.8867L23.5029 5.93848V11.001H22.6855ZM29.0972 11.001V4.5586H29.8882V6.87012C30.2573 6.44239 30.7231 6.22852 31.2856 6.22852C31.6313 6.22852 31.9316 6.29737 32.1865 6.43506C32.4414 6.56983 32.623 6.75733 32.7314 6.99756C32.8428 7.2378 32.8984 7.58643 32.8984 8.04346V11.001H32.1074V8.04346C32.1074 7.64795 32.021 7.36084 31.8481 7.18213C31.6782 7.00049 31.4365 6.90967 31.123 6.90967C30.8887 6.90967 30.6675 6.97119 30.4595 7.09424C30.2544 7.21436 30.1079 7.37842 30.02 7.58643C29.9321 7.79444 29.8882 8.08155 29.8882 8.44776V11.001H29.0972ZM37.1523 10.4253C36.8594 10.6743 36.5767 10.8501 36.3042 10.9527C36.0347 11.0552 35.7446 11.1065 35.4341 11.1065C34.9214 11.1065 34.5273 10.982 34.252 10.7329C33.9766 10.481 33.8389 10.1602 33.8389 9.77051C33.8389 9.542 33.8901 9.33399 33.9927 9.14649C34.0981 8.95606 34.2344 8.80371 34.4014 8.68946C34.5713 8.5752 34.7617 8.48877 34.9727 8.43018C35.1279 8.38916 35.3623 8.34961 35.6758 8.31153C36.3145 8.23536 36.7847 8.14453 37.0864 8.03907C37.0894 7.93067 37.0908 7.86182 37.0908 7.83252C37.0908 7.51026 37.0161 7.28321 36.8667 7.15137C36.6646 6.97266 36.3643 6.8833 35.9658 6.8833C35.5938 6.8833 35.3184 6.94922 35.1396 7.08106C34.9639 7.20996 34.8335 7.43994 34.7485 7.771L33.9751 7.66553C34.0454 7.33448 34.1611 7.06787 34.3223 6.86573C34.4834 6.66065 34.7163 6.50391 35.021 6.39551C35.3257 6.28418 35.6787 6.22852 36.0801 6.22852C36.4785 6.22852 36.8022 6.27539 37.0513 6.36914C37.3003 6.46289 37.4834 6.58155 37.6006 6.7251C37.7178 6.86573 37.7998 7.04444 37.8467 7.26123C37.873 7.396 37.8862 7.63916 37.8862 7.99073V9.04541C37.8862 9.78077 37.9023 10.2466 37.9346 10.4429C37.9697 10.6363 38.0371 10.8223 38.1367 11.001H37.3105C37.2285 10.8369 37.1758 10.645 37.1523 10.4253ZM37.0864 8.65869C36.7993 8.77588 36.3687 8.87549 35.7944 8.95752C35.4692 9.0044 35.2393 9.05713 35.1045 9.11573C34.9697 9.17432 34.8657 9.26075 34.7925 9.375C34.7192 9.48633 34.6826 9.61084 34.6826 9.74854C34.6826 9.95948 34.7617 10.1353 34.9199 10.2759C35.0811 10.4165 35.3154 10.4868 35.623 10.4868C35.9277 10.4868 36.1987 10.4209 36.436 10.2891C36.6733 10.1543 36.8477 9.97119 36.959 9.73975C37.0439 9.56104 37.0864 9.29737 37.0864 8.94873V8.65869ZM36.001 5.00684L35.5044 5.75391H34.5991L35.5483 4.52344H36.3921L37.3809 5.75391H36.4844L36.001 5.00684ZM35.5264 12.4292V11.5283H36.4272V12.4292H35.5264ZM39.1167 11.001V6.33399H39.8286V6.99756C40.1714 6.48487 40.6665 6.22852 41.314 6.22852C41.5952 6.22852 41.853 6.27979 42.0874 6.38233C42.3247 6.48194 42.502 6.61377 42.6191 6.77784C42.7363 6.9419 42.8184 7.13672 42.8652 7.36231C42.8945 7.50879 42.9092 7.76514 42.9092 8.13135V11.001H42.1182V8.16211C42.1182 7.83985 42.0874 7.59961 42.0259 7.44141C41.9644 7.28028 41.8545 7.15284 41.6963 7.05909C41.541 6.96241 41.3579 6.91407 41.147 6.91407C40.8101 6.91407 40.5186 7.021 40.2725 7.23487C40.0293 7.44873 39.9077 7.8545 39.9077 8.45215V11.001H39.1167ZM46.6313 11.001V4.5586H47.4224V6.87012C47.7915 6.44239 48.2573 6.22852 48.8198 6.22852C49.1655 6.22852 49.4658 6.29737 49.7207 6.43506C49.9756 6.56983 50.1572 6.75733 50.2656 6.99756C50.377 7.2378 50.4326 7.58643 50.4326 8.04346V11.001H49.6416V8.04346C49.6416 7.64795 49.5552 7.36084 49.3823 7.18213C49.2124 7.00049 48.9707 6.90967 48.6572 6.90967C48.4229 6.90967 48.2017 6.97119 47.9937 7.09424C47.7886 7.21436 47.6421 7.37842 47.5542 7.58643C47.4663 7.79444 47.4224 8.08155 47.4224 8.44776V11.001H46.6313ZM54.6865 10.4253C54.3936 10.6743 54.1108 10.8501 53.8384 10.9527C53.5688 11.0552 53.2788 11.1065 52.9683 11.1065C52.4556 11.1065 52.0615 10.982 51.7861 10.7329C51.5107 10.481 51.373 10.1602 51.373 9.77051C51.373 9.542 51.4243 9.33399 51.5269 9.14649C51.6323 8.95606 51.7686 8.80371 51.9355 8.68946C52.1055 8.5752 52.2959 8.48877 52.5068 8.43018C52.6621 8.38916 52.8965 8.34961 53.21 8.31153C53.8486 8.23536 54.3188 8.14453 54.6206 8.03907C54.6235 7.93067 54.625 7.86182 54.625 7.83252C54.625 7.51026 54.5503 7.28321 54.4009 7.15137C54.1987 6.97266 53.8984 6.8833 53.5 6.8833C53.1279 6.8833 52.8525 6.94922 52.6738 7.08106C52.498 7.20996 52.3677 7.43994 52.2827 7.771L51.5093 7.66553C51.5796 7.33448 51.6953 7.06787 51.8564 6.86573C52.0176 6.66065 52.2505 6.50391 52.5552 6.39551C52.8599 6.28418 53.2129 6.22852 53.6143 6.22852C54.0127 6.22852 54.3364 6.27539 54.5854 6.36914C54.8345 6.46289 55.0176 6.58155 55.1348 6.7251C55.252 6.86573 55.334 7.04444 55.3809 7.26123C55.4072 7.396 55.4204 7.63916 55.4204 7.99073V9.04541C55.4204 9.78077 55.4365 10.2466 55.4688 10.4429C55.5039 10.6363 55.5713 10.8223 55.6709 11.001H54.8447C54.7627 10.8369 54.71 10.645 54.6865 10.4253ZM54.6206 8.65869C54.3335 8.77588 53.9028 8.87549 53.3286 8.95752C53.0034 9.0044 52.7734 9.05713 52.6387 9.11573C52.5039 9.17432 52.3999 9.26075 52.3267 9.375C52.2534 9.48633 52.2168 9.61084 52.2168 9.74854C52.2168 9.95948 52.2959 10.1353 52.4541 10.2759C52.6152 10.4165 52.8496 10.4868 53.1572 10.4868C53.4619 10.4868 53.7329 10.4209 53.9702 10.2891C54.2075 10.1543 54.3818 9.97119 54.4932 9.73975C54.5781 9.56104 54.6206 9.29737 54.6206 8.94873V8.65869ZM54.1899 5.75391H53.5527L52.5376 4.52344H53.5967L54.1899 5.75391ZM56.6509 11.001V6.33399H57.3628V6.99756C57.7056 6.48487 58.2007 6.22852 58.8481 6.22852C59.1294 6.22852 59.3872 6.27979 59.6216 6.38233C59.8589 6.48194 60.0361 6.61377 60.1533 6.77784C60.2705 6.9419 60.3525 7.13672 60.3994 7.36231C60.4287 7.50879 60.4434 7.76514 60.4434 8.13135V11.001H59.6523V8.16211C59.6523 7.83985 59.6216 7.59961 59.5601 7.44141C59.4985 7.28028 59.3887 7.15284 59.2305 7.05909C59.0752 6.96241 58.8921 6.91407 58.6812 6.91407C58.3442 6.91407 58.0527 7.021 57.8066 7.23487C57.5635 7.44873 57.4419 7.8545 57.4419 8.45215V11.001H56.6509ZM61.5156 11.3877L62.2847 11.502C62.3169 11.7393 62.4062 11.9121 62.5527 12.0205C62.749 12.167 63.0171 12.2403 63.3569 12.2403C63.7231 12.2403 64.0059 12.167 64.2051 12.0205C64.4043 11.874 64.5391 11.669 64.6094 11.4053C64.6504 11.2442 64.6694 10.9058 64.6665 10.3902C64.3208 10.7974 63.8901 11.001 63.3745 11.001C62.7329 11.001 62.2363 10.7696 61.8848 10.3067C61.5332 9.84375 61.3574 9.28858 61.3574 8.64112C61.3574 8.1958 61.438 7.78565 61.5991 7.41065C61.7603 7.03272 61.9932 6.74121 62.2979 6.53614C62.6055 6.33106 62.9658 6.22852 63.3789 6.22852C63.9297 6.22852 64.3838 6.45118 64.7412 6.89649V6.33399H65.4707V10.3682C65.4707 11.0948 65.396 11.6089 65.2466 11.9107C65.1001 12.2154 64.8657 12.4556 64.5435 12.6314C64.2241 12.8072 63.8301 12.895 63.3613 12.895C62.8047 12.895 62.355 12.7691 62.0122 12.5171C61.6694 12.2681 61.5039 11.8916 61.5156 11.3877ZM62.1704 8.58399C62.1704 9.19629 62.292 9.64307 62.5352 9.92432C62.7783 10.2056 63.083 10.3462 63.4492 10.3462C63.8125 10.3462 64.1172 10.2071 64.3633 9.92871C64.6094 9.64746 64.7324 9.20801 64.7324 8.61036C64.7324 8.03907 64.605 7.6084 64.3501 7.31836C64.0981 7.02832 63.7935 6.8833 63.436 6.8833C63.0845 6.8833 62.7856 7.02686 62.5396 7.31397C62.2935 7.59815 62.1704 8.02149 62.1704 8.58399ZM24.3335 23.001V17.3189H22.2109V16.5586H27.3174V17.3189H25.186V23.001H24.3335ZM27.7524 23.001V18.334H28.4644V19.0415C28.646 18.7105 28.813 18.4922 28.9653 18.3867C29.1206 18.2813 29.2905 18.2285 29.4751 18.2285C29.7417 18.2285 30.0127 18.3135 30.2881 18.4834L30.0156 19.2173C29.8223 19.1031 29.6289 19.0459 29.4355 19.0459C29.2627 19.0459 29.1074 19.0987 28.9697 19.2041C28.832 19.3067 28.7339 19.4502 28.6753 19.6348C28.5874 19.916 28.5435 20.2237 28.5435 20.5576V23.001H27.7524ZM33.8037 22.4253C33.5107 22.6743 33.228 22.8501 32.9556 22.9527C32.686 23.0552 32.396 23.1065 32.0854 23.1065C31.5728 23.1065 31.1787 22.982 30.9033 22.7329C30.6279 22.481 30.4902 22.1602 30.4902 21.7705C30.4902 21.542 30.5415 21.334 30.644 21.1465C30.7495 20.9561 30.8857 20.8037 31.0527 20.6895C31.2227 20.5752 31.4131 20.4888 31.624 20.4302C31.7793 20.3892 32.0137 20.3496 32.3271 20.3115C32.9658 20.2354 33.436 20.1446 33.7378 20.0391C33.7407 19.9307 33.7422 19.8618 33.7422 19.8325C33.7422 19.5103 33.6675 19.2832 33.5181 19.1514C33.3159 18.9727 33.0156 18.8833 32.6172 18.8833C32.2451 18.8833 31.9697 18.9492 31.791 19.0811C31.6152 19.21 31.4849 19.44 31.3999 19.771L30.6265 19.6656C30.6968 19.3345 30.8125 19.0679 30.9736 18.8657C31.1348 18.6607 31.3677 18.5039 31.6724 18.3955C31.9771 18.2842 32.3301 18.2285 32.7314 18.2285C33.1299 18.2285 33.4536 18.2754 33.7026 18.3692C33.9517 18.4629 34.1348 18.5816 34.252 18.7251C34.3691 18.8657 34.4512 19.0445 34.498 19.2613C34.5244 19.396 34.5376 19.6392 34.5376 19.9907V21.0454C34.5376 21.7808 34.5537 22.2466 34.5859 22.4429C34.6211 22.6363 34.6885 22.8223 34.7881 23.001H33.9619C33.8799 22.8369 33.8271 22.645 33.8037 22.4253ZM33.7378 20.6587C33.4507 20.7759 33.02 20.8755 32.4458 20.9575C32.1206 21.0044 31.8906 21.0572 31.7559 21.1157C31.6211 21.1743 31.5171 21.2608 31.4438 21.375C31.3706 21.4864 31.334 21.6109 31.334 21.7486C31.334 21.9595 31.4131 22.1353 31.5713 22.2759C31.7324 22.4165 31.9668 22.4868 32.2744 22.4868C32.5791 22.4868 32.8501 22.4209 33.0874 22.2891C33.3247 22.1543 33.499 21.9712 33.6104 21.7398C33.6953 21.5611 33.7378 21.2974 33.7378 20.9488V20.6587ZM32.4941 17.2266C32.6611 17.209 32.7681 17.1929 32.8149 17.1782C32.9702 17.1255 33.0493 17.0435 33.0522 16.9322C33.0552 16.8648 33.0142 16.8076 32.9292 16.7608C32.8062 16.6934 32.6113 16.6597 32.3447 16.6597C32.2539 16.6597 32.1162 16.6656 31.9316 16.6773L31.8833 16.229C31.9976 16.2056 32.2085 16.1953 32.5161 16.1983C32.8765 16.2012 33.1709 16.2598 33.3994 16.374C33.6514 16.4971 33.7803 16.6685 33.7861 16.8882C33.7979 17.2515 33.5312 17.4668 32.9863 17.5342V17.7539H32.4941V17.2266ZM40 22.2935L40.1143 22.9922C39.8916 23.0391 39.6924 23.0625 39.5166 23.0625C39.2295 23.0625 39.0068 23.0171 38.8486 22.9263C38.6904 22.8355 38.5791 22.7168 38.5146 22.5703C38.4502 22.4209 38.418 22.1089 38.418 21.6343V18.9492H37.8379V18.334H38.418V17.1782L39.2046 16.7036V18.334H40V18.9492H39.2046V21.6782C39.2046 21.9038 39.2178 22.0489 39.2441 22.1133C39.2734 22.1778 39.3188 22.229 39.3804 22.2671C39.4448 22.3052 39.5356 22.3242 39.6528 22.3242C39.7407 22.3242 39.8564 22.314 40 22.2935ZM40.7822 17.4683V16.5586H41.5732V17.4683H40.7822ZM40.7822 23.001V18.334H41.5732V23.001H40.7822ZM45.9766 21.4981L46.7939 21.5991C46.665 22.0767 46.4263 22.4473 46.0776 22.711C45.729 22.9746 45.2837 23.1065 44.7417 23.1065C44.0591 23.1065 43.5171 22.897 43.1157 22.4781C42.7173 22.0562 42.5181 21.4658 42.5181 20.7071C42.5181 19.9219 42.7202 19.3125 43.1245 18.8789C43.5288 18.4453 44.0532 18.2285 44.6978 18.2285C45.3218 18.2285 45.8315 18.4409 46.2271 18.8657C46.6226 19.2906 46.8203 19.8882 46.8203 20.6587C46.8203 20.7056 46.8188 20.7759 46.8159 20.8697H43.3354C43.3647 21.3823 43.5098 21.7749 43.7705 22.0474C44.0312 22.3198 44.3564 22.4561 44.7461 22.4561C45.0361 22.4561 45.2837 22.3799 45.4888 22.2276C45.6938 22.0752 45.8564 21.8321 45.9766 21.4981ZM43.3794 20.2193H45.9854C45.9502 19.8267 45.8506 19.5322 45.6865 19.336C45.4346 19.0313 45.1079 18.8789 44.7065 18.8789C44.3433 18.8789 44.0371 19.0005 43.7881 19.2437C43.542 19.4868 43.4058 19.812 43.3794 20.2193ZM44.6802 17.0069L44.1836 17.7539H43.2783L44.2275 16.5235H45.0713L46.0601 17.7539H45.1636L44.6802 17.0069ZM45.0713 16.2027H44.4341L43.4189 14.9722H44.478L45.0713 16.2027ZM47.7915 23.001V18.334H48.5034V18.9976C48.8462 18.4849 49.3413 18.2285 49.9888 18.2285C50.27 18.2285 50.5278 18.2798 50.7622 18.3823C50.9995 18.482 51.1768 18.6138 51.2939 18.7779C51.4111 18.9419 51.4932 19.1367 51.54 19.3623C51.5693 19.5088 51.584 19.7652 51.584 20.1314V23.001H50.793V20.1621C50.793 19.8399 50.7622 19.5996 50.7007 19.4414C50.6392 19.2803 50.5293 19.1529 50.3711 19.0591C50.2158 18.9624 50.0327 18.9141 49.8218 18.9141C49.4849 18.9141 49.1934 19.021 48.9473 19.2349C48.7041 19.4488 48.5825 19.8545 48.5825 20.4522V23.001H47.7915ZM54.9019 24.895H54.0537C53.6055 24.2183 53.2642 23.5152 53.0298 22.7857C52.7954 22.0562 52.6782 21.3501 52.6782 20.6675C52.6782 19.8208 52.8232 19.0196 53.1133 18.2637C53.3652 17.6074 53.6846 17.0025 54.0713 16.4488H54.915C54.5137 17.3364 54.2368 18.0923 54.0845 18.7163C53.9351 19.3374 53.8604 19.9966 53.8604 20.6939C53.8604 21.1743 53.9043 21.6665 53.9922 22.1704C54.083 22.6743 54.2061 23.1533 54.3613 23.6074C54.4639 23.9063 54.644 24.3355 54.9019 24.895ZM59.9819 20.6323L61.2432 21.0322C61.0498 21.7354 60.7275 22.2583 60.2764 22.6011C59.8281 22.9409 59.2583 23.1109 58.5669 23.1109C57.7114 23.1109 57.0083 22.8194 56.4575 22.2364C55.9067 21.6504 55.6313 20.8506 55.6313 19.8369C55.6313 18.7647 55.9082 17.9326 56.4619 17.3408C57.0156 16.7461 57.7437 16.4488 58.646 16.4488C59.4341 16.4488 60.0742 16.6817 60.5664 17.1475C60.8594 17.4229 61.0791 17.8184 61.2256 18.334L59.938 18.6416C59.8618 18.3076 59.7021 18.044 59.459 17.8506C59.2188 17.6572 58.9258 17.5606 58.5801 17.5606C58.1025 17.5606 57.7144 17.732 57.4155 18.0747C57.1196 18.4175 56.9717 18.9727 56.9717 19.7403C56.9717 20.5547 57.1182 21.1348 57.4111 21.4805C57.7041 21.8262 58.085 21.999 58.5537 21.999C58.8994 21.999 59.1968 21.8892 59.4458 21.6695C59.6948 21.4497 59.8735 21.104 59.9819 20.6323ZM62.1001 19.8194C62.1001 19.1631 62.1982 18.6123 62.3945 18.167C62.541 17.8389 62.7402 17.5445 62.9922 17.2837C63.2471 17.023 63.5254 16.8296 63.8271 16.7036C64.2285 16.5337 64.6914 16.4488 65.2158 16.4488C66.165 16.4488 66.9238 16.7432 67.4922 17.3321C68.0635 17.9209 68.3491 18.7398 68.3491 19.7886C68.3491 20.8286 68.0664 21.6431 67.501 22.232C66.9355 22.8179 66.1797 23.1109 65.2334 23.1109C64.2754 23.1109 63.5137 22.8194 62.9482 22.2364C62.3828 21.6504 62.1001 20.8448 62.1001 19.8194ZM63.4404 19.7754C63.4404 20.5049 63.6089 21.0586 63.9458 21.4365C64.2827 21.8115 64.7104 21.999 65.229 21.999C65.7476 21.999 66.1724 21.813 66.5034 21.4409C66.8374 21.0659 67.0044 20.5049 67.0044 19.7578C67.0044 19.0196 66.8418 18.4688 66.5166 18.1055C66.1943 17.7422 65.7651 17.5606 65.229 17.5606C64.6929 17.5606 64.2607 17.7451 63.9326 18.1143C63.6045 18.4805 63.4404 19.0342 63.4404 19.7754ZM69.3643 16.5586H71.7417C72.2778 16.5586 72.6865 16.5996 72.9678 16.6817C73.3457 16.793 73.6694 16.9907 73.939 17.2749C74.2085 17.5591 74.4136 17.9077 74.5542 18.3208C74.6948 18.731 74.7651 19.2378 74.7651 19.8413C74.7651 20.3716 74.6992 20.8286 74.5674 21.2124C74.4062 21.6812 74.1763 22.0606 73.8774 22.3506C73.6519 22.5703 73.3472 22.7417 72.9634 22.8648C72.6763 22.9556 72.2925 23.001 71.812 23.001H69.3643V16.5586ZM70.665 17.6485V21.9156H71.6362C71.9995 21.9156 72.2617 21.895 72.4229 21.854C72.6338 21.8013 72.8081 21.7119 72.9458 21.586C73.0864 21.46 73.2007 21.2534 73.2886 20.9663C73.3765 20.6763 73.4204 20.2822 73.4204 19.7842C73.4204 19.2862 73.3765 18.9038 73.2886 18.6372C73.2007 18.3706 73.0776 18.1626 72.9194 18.0132C72.7612 17.8638 72.5605 17.7627 72.3174 17.71C72.1357 17.669 71.7798 17.6485 71.2495 17.6485H70.665ZM75.521 24.895C75.7642 24.3736 75.9355 23.9737 76.0352 23.6953C76.1348 23.417 76.2271 23.0962 76.312 22.7329C76.397 22.3697 76.46 22.0254 76.501 21.7002C76.542 21.3721 76.5625 21.0366 76.5625 20.6939C76.5625 19.9966 76.4878 19.3374 76.3384 18.7163C76.189 18.0923 75.9136 17.3364 75.5122 16.4488H76.3516C76.7939 17.0786 77.1367 17.7466 77.3799 18.4527C77.626 19.1587 77.749 19.875 77.749 20.6016C77.749 21.2139 77.6523 21.8701 77.459 22.5703C77.2393 23.3555 76.8774 24.1304 76.3735 24.895H75.521Z" fill="white"/>
<path id="Vector_3" d="M17.3936 16.8654H16.18C15.7674 16.8654 15.3541 16.8475 14.9422 16.8654C14.6478 16.8822 14.3548 16.9247 14.0656 16.9926C13.5053 17.0893 12.9355 17.0758 12.3788 16.9525C11.9826 16.8885 11.5936 16.7818 11.1653 16.6828V16.9312C11.1653 18.9796 11.1653 21.0281 11.1653 23.0766C11.1626 23.3492 11.1121 23.6181 11.0169 23.8658C10.9217 24.1135 10.784 24.3345 10.6128 24.5145C10.4415 24.6945 10.2405 24.8293 10.0229 24.9104C9.80521 24.9915 9.5757 25.0169 9.34927 24.9851C8.94461 24.9889 8.55385 24.8088 8.25596 24.4813C7.95808 24.1538 7.77529 23.7033 7.74455 23.2208C7.74075 20.9607 7.74075 18.7005 7.74455 16.4404C7.74455 14.838 7.74455 13.2359 7.74455 11.6342C7.76766 11.2179 7.9181 10.8263 8.16719 10.5341C8.41628 10.242 8.7466 10.0696 9.09515 10.05C9.47042 9.9921 9.85019 10.1048 10.1593 10.3658C10.4683 10.6267 10.6842 11.017 10.7641 11.4592C10.7888 11.7782 10.8366 12.094 10.9069 12.4032C10.9705 12.621 11.0705 12.8211 11.2007 12.9914C11.3309 13.1617 11.4886 13.2987 11.6643 13.3941V10.1106H17.3979L17.3936 16.8654ZM8.57903 14.6121C8.57033 14.6649 8.5639 14.7182 8.55976 14.7717C8.55976 17.6117 8.55976 20.4511 8.55976 23.29C8.58204 23.5446 8.68146 23.7806 8.83926 23.9535C8.99706 24.1265 9.20234 24.2244 9.41637 24.2289C9.63851 24.2538 9.86072 24.1821 10.0423 24.0271C10.2238 23.8721 10.3526 23.644 10.405 23.3847C10.4136 23.1935 10.3722 23.0015 10.3715 22.8094C10.3715 20.72 10.3715 18.6271 10.3665 16.5411C10.3668 16.4888 10.357 16.4371 10.3379 16.3901C10.3189 16.343 10.291 16.3018 10.2566 16.2697C9.58976 15.8945 9.0128 15.3245 8.57903 14.6121ZM13.1676 16.2603L13.1805 16.204C13.3018 16.204 13.4225 16.2091 13.5438 16.204C13.7312 16.2145 13.9147 16.1379 14.0559 15.9903C14.1971 15.8426 14.285 15.6353 14.3012 15.4119C14.2792 15.1981 14.1899 15.0024 14.0514 14.8646C13.9129 14.7268 13.7358 14.6573 13.5559 14.6702C13.2897 14.6531 13.0213 14.6488 12.76 14.6044C12.1709 14.5477 11.5983 14.3442 11.0789 14.007C10.744 13.762 10.4677 13.4177 10.2767 13.0075C10.0857 12.5974 9.98661 12.1352 9.98888 11.6657C9.97306 11.52 9.9271 11.3813 9.85519 11.2621C9.78327 11.143 9.68766 11.0471 9.57698 10.9833C9.46631 10.9194 9.34406 10.8895 9.22129 10.8963C9.09853 10.9031 8.97911 10.9463 8.87385 11.0222C8.73094 11.1123 8.61478 11.253 8.54119 11.425C8.46761 11.597 8.44019 11.7919 8.46268 11.9832C8.5061 12.8703 8.80674 13.7114 9.31286 14.362C9.8457 15.1173 10.5674 15.6478 11.3716 15.8753C11.9612 16.0375 12.5715 16.134 13.1676 16.2603Z" fill="white"/>
<path id="Vector_4" d="M12.2086 6.66472C12.1789 7.00836 12.1296 7.34915 12.0608 7.6847C11.8547 8.33704 11.4692 8.88615 10.9675 9.24182C10.4659 9.59749 9.87799 9.73856 9.30041 9.64184C8.71375 9.61208 8.1565 9.32647 7.73393 8.83898C7.31136 8.35148 7.05272 7.69584 7.00684 6.99589C6.99471 6.05189 7.00256 5.10703 7.00184 4.16302C7.00184 4.11351 7.00898 4.06487 7.01398 4H12.1593V5.83765H13.7434V6.66216L12.2086 6.66472ZM7.78993 6.67497C7.75044 7.05326 7.81203 7.43679 7.96589 7.77069C8.11975 8.1046 8.358 8.37176 8.64653 8.53396C8.93883 8.74491 9.27435 8.85476 9.61576 8.8513C9.95716 8.84783 10.2911 8.73119 10.5803 8.51433C10.8566 8.34495 11.0817 8.07665 11.2243 7.7469C11.3668 7.41715 11.4197 7.0424 11.3755 6.67497H7.78993Z" fill="white"/>
</g>
</svg>
