<svg width="48" height="28" viewBox="0 0 48 28" fill="none" xmlns="http://www.w3.org/2000/svg">
<g id="Frame 243">
<path id="Vector" d="M44 0.5H4C2.067 0.5 0.5 2.067 0.5 4V24C0.5 25.933 2.067 27.5 4 27.5H44C45.933 27.5 47.5 25.933 47.5 24V4C47.5 2.067 45.933 0.5 44 0.5Z" fill="white" stroke="#D9D9D9"/>
<path id="Vector_2" d="M30.0939 14.8436C30.7089 14.857 31.3279 14.8165 31.9399 14.8647C32.5599 14.9804 32.7099 15.9195 32.1589 16.227C31.7829 16.4296 31.3359 16.3025 30.9289 16.3382H30.0939V14.8436ZM32.2959 13.152C32.4319 13.6342 31.9679 14.0672 31.5029 14.0008H30.0939C30.1039 13.546 30.0749 13.0524 30.1089 12.6216C30.6729 12.6374 31.2419 12.5891 31.8039 12.6468C32.0449 12.7074 32.2459 12.9056 32.2959 13.152ZM35.6859 6.00003C35.7119 6.92104 35.6899 7.89073 35.6979 8.83042C35.6959 12.6509 35.7009 16.4713 35.6949 20.2919C35.6699 21.7237 34.4009 22.9679 32.9789 22.9964C31.5559 23.0022 30.1319 22.9973 28.7089 22.9989V17.2232C30.2599 17.2152 31.8109 17.2394 33.3619 17.2111C34.0809 17.1659 34.8689 16.6914 34.9019 15.9C34.9869 15.1051 34.2369 14.5553 33.5259 14.4685C33.2519 14.4614 33.2599 14.3887 33.5259 14.3571C34.2049 14.2104 34.7369 13.508 34.5379 12.8046C34.3679 12.0648 33.5499 11.7785 32.8699 11.7799C31.4829 11.7705 30.0959 11.7786 28.7089 11.7759C28.7179 10.6976 28.6899 9.61813 28.7239 8.54066C28.8339 7.1347 30.1349 5.97525 31.5369 6.0004C32.9199 6.00019 34.3029 6.00008 35.6859 6.00003Z" fill="url(#paint0_linear_47_3739)"/>
<path id="Vector_3" d="M13.0369 8.68654C13.0719 7.25701 14.3469 6.02308 15.7669 6.00219C17.1849 5.99782 18.6029 6.00156 20.0209 6.00029C20.0169 10.7832 20.0289 15.5667 20.0149 20.3493C19.9599 21.7615 18.6999 22.9719 17.2949 22.9969C15.8749 23.002 14.4539 22.9976 13.0329 22.9991V17.0286C14.4129 17.3546 15.8599 17.4934 17.2679 17.2772C18.1099 17.1418 19.0299 16.7285 19.3149 15.8554C19.5249 15.1086 19.4069 14.3226 19.4379 13.5561V11.7761H17.0019C16.9909 12.9534 17.0239 14.1327 16.9839 15.3086C16.9179 16.0314 16.2029 16.4906 15.5209 16.466C14.6759 16.475 12.9999 15.8534 12.9999 15.8534C12.9959 13.6476 13.0249 10.885 13.0369 8.68654Z" fill="url(#paint1_linear_47_3739)"/>
<path id="Vector_4" d="M20.9298 12.4943C20.8008 12.5215 20.9038 12.0575 20.8708 11.8814C20.8798 10.7684 20.8528 9.65415 20.8858 8.5419C20.9958 7.12999 22.3058 5.96764 23.7138 6.00069H27.8588C27.8548 10.7836 27.8668 15.5671 27.8528 20.3497C27.7988 21.7619 26.5378 22.9722 25.1338 22.9973C23.7128 23.0027 22.2918 22.9981 20.8708 22.9995V16.4581C21.8408 17.2543 23.1598 17.3782 24.3688 17.3804C25.2808 17.38 26.1868 17.2395 27.0718 17.0293V15.8309C26.0738 16.328 24.9018 16.6438 23.7958 16.3582C23.0248 16.1662 22.4648 15.4208 22.4768 14.6248C22.3878 13.7971 22.8728 12.9232 23.6868 12.6771C24.6968 12.3609 25.7968 12.6027 26.7438 13.0138C26.9468 13.12 27.1528 13.2517 27.0718 12.9127V11.9708C25.4878 11.5941 23.8028 11.4554 22.2128 11.8652C21.7518 11.9951 21.3038 12.192 20.9298 12.4943Z" fill="url(#paint2_linear_47_3739)"/>
</g>
<defs>
<linearGradient id="paint0_linear_47_3739" x1="28.6609" y1="14.136" x2="35.6529" y2="14.136" gradientUnits="userSpaceOnUse">
<stop stopColor="#58B03A"/>
<stop offset="1" stopColor="#55B330"/>
</linearGradient>
<linearGradient id="paint1_linear_47_3739" x1="12.8839" y1="14.6625" x2="19.9059" y2="14.6625" gradientUnits="userSpaceOnUse">
<stop stopColor="#0F6EB6"/>
<stop offset="1" stopColor="#006DBA"/>
</linearGradient>
<linearGradient id="paint2_linear_47_3739" x1="20.8608" y1="14.3013" x2="27.8578" y2="14.3013" gradientUnits="userSpaceOnUse">
<stop stopColor="#DE0D3D"/>
<stop offset="1" stopColor="#E30138"/>
</linearGradient>
</defs>
</svg>
