<svg width="48" height="28" viewBox="0 0 48 28" fill="none" xmlns="http://www.w3.org/2000/svg">
<g id="Frame 244">
<path id="Vector" d="M44 0.5H4C2.067 0.5 0.5 2.067 0.5 4V24C0.5 25.933 2.067 27.5 4 27.5H44C45.933 27.5 47.5 25.933 47.5 24V4C47.5 2.067 45.933 0.5 44 0.5Z" fill="white" stroke="#D9D9D9"/>
<path id="Vector_2" fill-rule="evenodd" clip-rule="evenodd" d="M24.063 20.1962C22.573 21.4815 20.641 22.2575 18.53 22.2575C13.819 22.2575 10 18.3942 10 13.6287C10 8.86322 13.819 5 18.53 5C20.641 5 22.573 5.77594 24.063 7.06129C25.552 5.77594 27.484 5 29.595 5C34.306 5 38.125 8.86322 38.125 13.6287C38.125 18.3942 34.306 22.2575 29.595 22.2575C27.484 22.2575 25.552 21.4815 24.063 20.1962Z" fill="#ED0006"/>
<path id="Vector_3" fill-rule="evenodd" clip-rule="evenodd" d="M24.062 20.1962C25.896 18.6135 27.059 16.2585 27.059 13.6287C27.059 10.999 25.896 8.64396 24.063 7.06129C25.552 5.77594 27.484 5 29.595 5C34.306 5 38.125 8.86322 38.125 13.6287C38.125 18.3942 34.306 22.2575 29.595 22.2575C27.484 22.2575 25.552 21.4815 24.062 20.1962Z" fill="#F9A000"/>
<path id="Vector_4" fill-rule="evenodd" clip-rule="evenodd" d="M24.0629 7.0625C25.8969 8.64517 27.0589 11.0002 27.0589 13.6299C27.0589 16.2597 25.8969 18.6147 24.0629 20.1974C22.2289 18.6147 21.0659 16.2597 21.0659 13.6299C21.0659 11.0002 22.2289 8.64517 24.0629 7.0625Z" fill="#FF5E00"/>
</g>
</svg>
