<svg width="48" height="28" viewBox="0 0 48 28" fill="none" xmlns="http://www.w3.org/2000/svg">
<g id="Frame 239">
<path id="Vector" d="M44 0.398438H4C2.067 0.398438 0.5 1.96544 0.5 3.89844V23.8984C0.5 25.8314 2.067 27.3984 4 27.3984H44C45.933 27.3984 47.5 25.8314 47.5 23.8984V3.89844C47.5 1.96544 45.933 0.398438 44 0.398438Z" fill="white" stroke="#D9D9D9"/>
<path id="Vector_2" d="M40.025 21H7.60199C6.17099 21 5 19.8287 5 18.3979V10.6021C5 9.1713 6.17099 8 7.60199 8H40.025C41.456 8 42.627 9.1713 42.627 10.6021V18.3996C42.625 19.8305 41.456 21 40.025 21Z" fill="#A50064"/>
<path id="Vector_3" d="M19.92 11.3047C18.084 11.3047 16.5969 12.732 16.5969 14.4942C16.5969 16.2564 18.089 17.6907 19.92 17.6907C21.751 17.6907 23.243 16.2634 23.243 14.5029C23.243 12.7425 21.759 11.3047 19.92 11.3047ZM19.9269 15.8636C19.9249 15.8636 19.923 15.8636 19.92 15.8636V15.8566C19.169 15.8268 18.586 15.1956 18.614 14.4451C18.643 13.6946 19.2749 13.1107 20.0249 13.1388C20.7549 13.1668 21.3309 13.7665 21.3309 14.4959C21.3209 15.2622 20.6909 15.8741 19.9269 15.8636Z" fill="white"/>
<path id="Vector_4" d="M15.6491 13.7092V17.7001H13.7291V13.6882C13.7291 13.3778 13.4761 13.1253 13.1661 13.1253C12.8551 13.1253 12.6031 13.3778 12.6031 13.6882V17.7001H10.6921V13.6882C10.6921 13.3778 10.4391 13.1253 10.1291 13.1253C9.81812 13.1253 9.56613 13.3778 9.56613 13.6882V17.7001H7.66211V13.7092C7.68611 12.3573 8.80114 11.2807 10.1531 11.3053C10.1551 11.3053 10.1551 11.3053 10.1571 11.3053C10.6931 11.3035 11.2161 11.4718 11.6521 11.7857C12.0871 11.4718 12.6101 11.3053 13.1461 11.3053C14.5001 11.2755 15.6201 12.3486 15.6491 13.7022V13.7092Z" fill="white"/>
<path id="Vector_5" d="M36.6421 11.3047C34.8061 11.3047 33.3201 12.732 33.3201 14.4942C33.3201 16.2564 34.8121 17.6907 36.6421 17.6907C38.4731 17.6907 39.9651 16.2634 39.9651 14.5029C39.9651 12.7425 38.4801 11.3047 36.6421 11.3047ZM36.6481 15.8636C36.6461 15.8636 36.6441 15.8636 36.6411 15.8636V15.8566C35.8901 15.8268 35.3061 15.1956 35.3341 14.4451C35.3641 13.6946 35.9951 13.1107 36.7461 13.1388C37.4751 13.1668 38.0521 13.7665 38.0521 14.4959C38.0431 15.2622 37.4141 15.8741 36.6481 15.8636Z" fill="white"/>
<path id="Vector_6" d="M32.369 13.7092V17.7001H30.451V13.6882C30.451 13.3778 30.199 13.1253 29.888 13.1253C29.578 13.1253 29.325 13.3778 29.325 13.6882V17.7001H27.414V13.6882C27.414 13.3778 27.162 13.1253 26.851 13.1253C26.541 13.1253 26.289 13.3778 26.289 13.6882V17.7001H24.384V13.7092C24.409 12.3573 25.524 11.2807 26.876 11.3053C26.878 11.3053 26.879 11.3053 26.879 11.3053C27.416 11.3035 27.939 11.4718 28.375 11.7857C28.81 11.4718 29.332 11.3053 29.869 11.3053C31.223 11.2755 32.343 12.3486 32.371 13.7022C32.369 13.704 32.369 13.7092 32.369 13.7092Z" fill="white"/>
</g>
</svg>
