<svg width="48" height="28" viewBox="0 0 48 28" fill="none" xmlns="http://www.w3.org/2000/svg">
<g id="Frame 241">
<path id="Vector" d="M44 0.5H4C2.067 0.5 0.5 2.067 0.5 4V24C0.5 25.933 2.067 27.5 4 27.5H44C45.933 27.5 47.5 25.933 47.5 24V4C47.5 2.067 45.933 0.5 44 0.5Z" fill="white" stroke="#D9D9D9"/>
<path id="Vector_2" d="M17.114 6.00348L5.51901 7.54468C5.51901 7.54468 5 7.6023 5 8.22166C5 8.84102 5 19.2406 5 19.2406C5 19.2406 5.07199 20.5225 6.54099 20.5225C8.00998 20.5225 19.677 20.5225 19.677 20.5225C19.677 20.5225 20.844 20.2344 20.844 19.0677C20.844 17.901 20.844 9.97892 20.844 9.97892C20.844 9.97892 20.873 8.69699 19.317 8.69699C17.762 8.69699 6.642 8.69699 6.642 8.69699C6.642 8.69699 6.15201 8.61056 6.02301 8.09203C5.97901 7.89038 6.06601 7.86157 6.28201 7.86157C6.49801 7.86157 17.92 7.86157 17.92 7.86157V6.60844C17.949 6.62284 17.906 5.94587 17.114 6.00348Z" fill="#ED4C2F"/>
<path id="Vector_3" d="M13.181 18.6628C12.216 18.6628 11.511 18.2739 10.473 17.2368C10.286 17.0496 10.286 16.7471 10.473 16.5599C10.661 16.3726 10.963 16.3726 11.15 16.5599C12.245 17.6545 12.764 17.9138 13.642 17.6834C14.146 17.5393 14.607 16.8911 14.636 16.1421C14.651 15.566 14.247 15.1771 13.426 15.0187C11.943 14.7162 11.064 14.1544 10.819 13.3334C10.617 12.6708 10.877 11.9218 11.525 11.3025L11.554 11.2737C12.936 10.1214 14.55 10.9856 15.212 11.5906C15.4 11.7634 15.414 12.0659 15.227 12.2675C15.054 12.4548 14.751 12.4692 14.564 12.2819C14.507 12.2243 13.268 11.1008 12.187 11.9795C11.813 12.3396 11.655 12.7429 11.741 13.0453C11.871 13.4919 12.548 13.8519 13.628 14.068C15.472 14.4425 15.63 15.6524 15.601 16.1566C15.558 17.2512 14.636 18.49 13.772 18.6052C13.541 18.6484 13.354 18.6628 13.181 18.6628Z" fill="white"/>
<path id="Vector_4" d="M25.7408 8.64119C25.5538 8.52596 25.3378 8.42513 25.0638 8.35311C24.5748 8.20907 24.2148 8.03623 24.0558 7.80577C23.9118 7.60411 23.9118 7.34485 24.0848 7.01356C24.1858 6.81191 24.4309 6.68227 24.7469 6.66787C25.0789 6.63906 25.4818 6.72548 25.8998 6.94154C26.0008 6.99916 26.1298 6.95594 26.1878 6.84071C26.2448 6.73989 26.2018 6.61025 26.0868 6.55264C25.5968 6.29337 25.1079 6.20695 24.7039 6.23576C24.2289 6.27897 23.8688 6.48062 23.6818 6.81191C23.4078 7.31604 23.4218 7.71934 23.6818 8.06504C23.9118 8.36751 24.3438 8.61238 24.9348 8.77082C25.1648 8.84284 25.3518 8.91486 25.5108 9.01568C25.7408 9.15972 25.8848 9.31816 25.9568 9.49101C26.0288 9.64945 26.0288 9.8367 25.9858 10.0096C25.9568 10.096 25.9138 10.1824 25.8708 10.2688C25.8708 10.2832 25.8569 10.2976 25.8419 10.312C25.6689 10.5713 25.3809 10.7009 25.0359 10.7009C24.6609 10.7009 24.1859 10.5569 23.6959 10.2544C23.6239 10.2112 23.5518 10.168 23.4938 10.1248C23.3938 10.0528 23.2638 10.0816 23.1918 10.1824C23.1198 10.2832 23.1488 10.4129 23.2488 10.4849C23.3208 10.5425 23.3938 10.5857 23.4508 10.6289C24.0128 10.9746 24.5598 11.1475 25.0068 11.1475C25.4958 11.1475 25.9138 10.9602 26.1728 10.5713C26.1728 10.5569 26.1879 10.5281 26.2169 10.5137C26.2889 10.3985 26.3458 10.2688 26.3748 10.1536C26.4468 9.89431 26.4468 9.60624 26.3318 9.34697C26.2598 9.0589 26.0578 8.81403 25.7408 8.64119Z" fill="#ED4C2F"/>
<path id="Vector_5" d="M29.0692 8.14886C28.8532 8.09124 28.5942 8.09124 28.3202 8.17767C28.0752 8.24969 27.8162 8.39372 27.5712 8.59538V6.42041C27.5712 6.30518 27.4702 6.21875 27.3552 6.21875C27.2402 6.21875 27.1392 6.30518 27.1392 6.42041V10.9C27.1392 11.0152 27.2402 11.1017 27.3552 11.1017C27.4702 11.1017 27.5712 11.0152 27.5712 10.9V9.22914L27.5851 9.21474C27.8591 8.88345 28.1622 8.6818 28.4502 8.59538C28.6372 8.53776 28.8101 8.53776 28.9681 8.58097C29.1121 8.62418 29.2271 8.6962 29.3141 8.81143C29.4001 8.92666 29.4442 9.09951 29.4442 9.30116V10.9C29.4442 11.0152 29.5442 11.1161 29.6602 11.1161C29.7752 11.1161 29.8762 11.0152 29.8762 10.9V9.28676C29.8762 8.99868 29.8042 8.73941 29.6602 8.55217C29.5012 8.35051 29.2992 8.22088 29.0692 8.14886Z" fill="#ED4C2F"/>
<path id="Vector_6" d="M31.992 8.12109C31.589 8.12109 31.2 8.29393 30.926 8.56761C30.653 8.84128 30.48 9.21578 30.48 9.63349C30.48 10.0512 30.653 10.4257 30.926 10.6994C31.2 10.973 31.575 11.1459 31.992 11.1459C32.41 11.1459 32.785 10.973 33.058 10.6994C33.332 10.4257 33.505 10.0512 33.505 9.63349C33.505 9.21578 33.332 8.84128 33.058 8.56761C32.785 8.29393 32.41 8.12109 31.992 8.12109ZM32.756 10.3681C32.554 10.5553 32.295 10.685 31.992 10.685C31.69 10.685 31.431 10.5697 31.229 10.3681C31.042 10.1808 30.912 9.90716 30.912 9.60468C30.912 9.3166 31.027 9.04293 31.229 8.84128C31.431 8.65403 31.69 8.52439 31.992 8.52439C32.295 8.52439 32.554 8.63962 32.756 8.84128C32.943 9.02853 33.073 9.3022 33.073 9.60468C33.058 9.90716 32.943 10.1808 32.756 10.3681Z" fill="#ED4C2F"/>
<path id="Vector_7" d="M35.6519 8.12109C35.2339 8.12109 34.8589 8.29393 34.5859 8.56761C34.5709 8.58201 34.5569 8.59641 34.5419 8.61082V8.33715C34.5419 8.22191 34.4419 8.12109 34.3259 8.12109C34.2109 8.12109 34.1099 8.22191 34.1099 8.33715V12.6007C34.1099 12.7159 34.2109 12.8167 34.3259 12.8167C34.4419 12.8167 34.5419 12.7159 34.5419 12.6007V10.6273C34.5569 10.6417 34.5709 10.6562 34.5859 10.6706C34.8589 10.9442 35.2339 11.1171 35.6519 11.1171C36.0689 11.1171 36.4439 10.9442 36.7169 10.6706C36.9909 10.3969 37.1639 10.0224 37.1639 9.60468C37.1639 9.18697 36.9909 8.81247 36.7169 8.5388C36.4439 8.26513 36.0549 8.12109 35.6519 8.12109ZM36.4009 10.3681C36.1989 10.5553 35.9399 10.685 35.6369 10.685C35.3349 10.685 35.0749 10.5697 34.8739 10.3681C34.6859 10.1808 34.5569 9.90716 34.5569 9.60468C34.5569 9.3166 34.6719 9.04293 34.8739 8.84128C35.0749 8.65403 35.3349 8.52439 35.6369 8.52439C35.9249 8.52439 36.1989 8.63962 36.4009 8.84128C36.5879 9.02853 36.7169 9.3022 36.7169 9.60468C36.7169 9.90716 36.5879 10.1808 36.4009 10.3681Z" fill="#ED4C2F"/>
<path id="Vector_8" d="M40.131 8.50878C39.886 8.24951 39.541 8.10547 39.181 8.10547C38.806 8.10547 38.475 8.24951 38.23 8.50878C37.711 9.07053 37.711 9.67549 37.928 10.2805C38.014 10.5541 38.216 10.7558 38.432 10.8998C38.648 11.0439 38.921 11.1159 39.238 11.1159C39.541 11.1159 39.872 11.0439 40.232 10.8854C40.347 10.8422 40.391 10.7126 40.347 10.5973C40.304 10.4821 40.175 10.4389 40.059 10.4821C39.742 10.6117 39.469 10.6838 39.224 10.6838C39.008 10.6838 38.806 10.6405 38.662 10.5397C38.518 10.4389 38.403 10.3093 38.331 10.122C38.288 10.0068 38.259 9.86273 38.23 9.7187H40.218C40.333 9.7187 40.679 9.7475 40.491 9.12814C40.419 8.92649 40.333 8.71043 40.131 8.50878ZM38.244 9.28658C38.302 9.09933 38.403 8.9553 38.532 8.82566C38.705 8.65282 38.936 8.55199 39.181 8.55199C39.426 8.55199 39.656 8.65282 39.829 8.82566C39.958 8.9553 40.045 9.11374 40.117 9.28658H38.244Z" fill="#ED4C2F"/>
<path id="Vector_9" d="M43.7749 9.14376C43.7029 8.9277 43.6169 8.72605 43.4149 8.52439C43.1699 8.26513 42.8239 8.12109 42.4639 8.12109C42.0899 8.12109 41.7589 8.26513 41.5139 8.52439C40.9949 9.08614 40.9949 9.6911 41.2109 10.2961C41.2979 10.5697 41.4989 10.7714 41.7149 10.9154C41.9309 11.0595 42.2049 11.1315 42.5219 11.1315C42.8239 11.1315 43.1559 11.0595 43.5159 10.901C43.6309 10.8578 43.6739 10.7282 43.6309 10.6129C43.5879 10.4977 43.4579 10.4545 43.3429 10.4977C43.0259 10.6273 42.7519 10.6994 42.5079 10.6994C42.2919 10.6994 42.0899 10.6562 41.9459 10.5553C41.8019 10.4545 41.6869 10.3249 41.6149 10.1376C41.5709 10.0224 41.5429 9.87835 41.5139 9.73431H43.5009C43.6169 9.71991 43.9619 9.74872 43.7749 9.14376ZM41.5279 9.28779C41.5859 9.10055 41.6869 8.95651 41.8159 8.82687C41.9889 8.65403 42.2189 8.5532 42.4639 8.5532C42.7089 8.5532 42.9399 8.65403 43.1129 8.82687C43.2419 8.95651 43.3289 9.11495 43.4009 9.28779H41.5279Z" fill="#ED4C2F"/>
<path id="Vector_10" d="M26.4611 12.1836H23.3501V20.5234H24.6181V18.046H26.6051C27.2681 18.046 27.9311 17.8875 28.5071 17.5418C29.1841 17.1385 29.8751 16.4328 29.8751 15.194C29.8751 14.0417 29.2701 13.3071 28.6361 12.8606C28.0031 12.4141 27.2391 12.1836 26.4611 12.1836ZM26.8651 16.7064H24.6181V13.4368H26.6491C26.6771 13.4368 26.7211 13.4368 26.7491 13.4368C27.0521 13.4656 28.4061 13.7104 28.4061 15.1508C28.4061 16.7064 26.8651 16.7064 26.8651 16.7064Z" fill="#ED4C2F"/>
<path id="Vector_11" d="M34.873 14.6032V15.1938C34.355 14.7761 33.707 14.5312 33.001 14.5312C31.359 14.5312 30.019 15.8708 30.019 17.5128C30.019 19.1549 31.359 20.4944 33.001 20.4944C33.707 20.4944 34.369 20.2495 34.873 19.8319V20.4944H36.141V14.6032H34.873ZM33.001 19.3853C31.964 19.3853 31.128 18.5499 31.128 17.5128C31.128 16.4757 31.964 15.6403 33.001 15.6403C34.038 15.6403 34.873 16.4757 34.873 17.5128C34.873 18.5355 34.038 19.3853 33.001 19.3853Z" fill="#ED4C2F"/>
<path id="Vector_12" d="M36.717 14.5156H38.402L40.39 18.3182L42.306 14.5156H43.833L39.281 22.9994H37.797L39.526 19.845L36.717 14.5156Z" fill="#ED4C2F"/>
</g>
</svg>
