<svg width="48" height="28" viewBox="0 0 48 28" fill="none" xmlns="http://www.w3.org/2000/svg">
<g id="Frame 245">
<path id="Vector" d="M44 0.5H4C2.067 0.5 0.5 2.067 0.5 4V24C0.5 25.933 2.067 27.5 4 27.5H44C45.933 27.5 47.5 25.933 47.5 24V4C47.5 2.067 45.933 0.5 44 0.5Z" fill="white" stroke="#D9D9D9"/>
<path id="Vector_2" fill-rule="evenodd" clip-rule="evenodd" d="M16.657 18.6978H14.006L12.019 11.1155C11.924 10.7667 11.724 10.4583 11.429 10.313C10.694 9.94779 9.884 9.65713 9 9.51054V9.21862H13.27C13.859 9.21862 14.301 9.65713 14.374 10.1664L15.406 15.6358L18.055 9.21862H20.632L16.657 18.6978ZM22.105 18.6978H19.602L21.663 9.21862H24.166L22.105 18.6978ZM27.404 11.8446C27.478 11.3341 27.92 11.0422 28.435 11.0422C29.246 10.9689 30.128 11.1155 30.865 11.4794L31.307 9.43851C30.57 9.14659 29.76 9 29.025 9C26.595 9 24.827 10.313 24.827 12.1353C24.827 13.5216 26.08 14.2495 26.964 14.688C27.92 15.1253 28.288 15.4172 28.214 15.8544C28.214 16.5103 27.478 16.8022 26.743 16.8022C25.859 16.8022 24.975 16.5836 24.166 16.2184L23.724 18.2606C24.608 18.6245 25.564 18.7711 26.448 18.7711C29.172 18.8431 30.865 17.5314 30.865 15.5625C30.865 13.0831 27.404 12.9378 27.404 11.8446ZM39.625 18.6978L37.638 9.21862H35.503C35.061 9.21862 34.619 9.51054 34.472 9.94779L30.791 18.6978H33.368L33.882 17.3128H37.048L37.343 18.6978H39.625ZM35.871 11.7714L36.606 15.3439H34.545L35.871 11.7714Z" fill="#172B85"/>
</g>
</svg>
