<svg width="48" height="28" viewBox="0 0 48 28" fill="none" xmlns="http://www.w3.org/2000/svg">
<g id="Frame 240">
<path id="Vector" d="M44 0.5H4C2.067 0.5 0.5 2.067 0.5 4V24C0.5 25.933 2.067 27.5 4 27.5H44C45.933 27.5 47.5 25.933 47.5 24V4C47.5 2.067 45.933 0.5 44 0.5Z" fill="white" stroke="#D9D9D9"/>
<path id="Vector_2" fill-rule="evenodd" clip-rule="evenodd" d="M37.838 12.6742L34.82 8.34082L34.527 8.04869H37.498L39.494 11.3109L39.64 11.1648L40.857 9.36329C41.149 8.97378 41.1 8.34082 40.711 8.04869H43.535L40.321 12.6255V15.9363L40.906 16.618H37.4L37.887 15.9363C37.838 14.9139 37.79 13.794 37.838 12.6742ZM29.659 8.09738C29.853 8.29213 29.951 8.53558 29.999 8.82771C29.999 8.97378 29.999 9.16854 29.951 9.31461L27.711 15.7903C27.565 16.1311 27.321 16.4232 27.078 16.618H29.512C29.318 16.4719 29.22 16.2771 29.172 16.0337C29.123 15.8876 29.123 15.6929 29.172 15.5468L29.659 13.9888H32.483L32.921 15.1573C32.969 15.2547 32.969 15.4007 33.018 15.5468C33.067 15.9363 32.921 16.3745 32.58 16.618H36.378C35.988 16.3258 35.696 15.9363 35.453 15.4981L32.677 8L29.659 8.09738ZM32.093 12.9663H30.048L31.022 10.1423L32.093 12.9663ZM21.917 8.09738H26.202C27.468 8.09738 28.539 9.11985 28.539 10.4345V10.7266C28.539 11.9925 27.468 13.015 26.202 13.015L25.13 13.0637C25.958 12.6255 26.396 11.7004 26.25 10.7753C26.153 10.0449 25.812 9.36329 25.179 9.36329H24.79V15.7416C24.79 15.8389 24.838 15.9363 24.887 16.0337C24.984 16.2285 25.13 16.3745 25.277 16.5693L25.374 16.7153H22.063L22.209 16.5206C22.307 16.3745 22.404 16.2285 22.453 16.0824C22.501 15.985 22.501 15.8876 22.501 15.7903V8.8764C22.501 8.53558 22.112 8.29213 21.917 8.09738Z" fill="#005BAA"/>
<path id="Vector_3" fill-rule="evenodd" clip-rule="evenodd" d="M4 8.04869H6.67801L8.86899 14.4757L10.768 9.16854C10.816 9.02247 10.768 8.82771 10.67 8.73034C10.573 8.53558 10.476 8.29213 10.33 8.09738H12.326C12.228 8.53558 12.034 9.02247 11.888 9.46067L9.35599 16.9101C8.57699 16.764 7.84599 16.4719 7.26199 15.9363C6.87299 15.4981 6.58099 15.0112 6.43399 14.427L4.29199 8.68165C4.19499 8.4382 4.097 8.24345 4 8.04869ZM14.663 11.0674V15.6442C14.663 15.8389 14.712 15.8876 14.809 16.0337L15.345 16.7153H12.813L13.251 16.0824C13.348 15.9363 13.397 15.7903 13.397 15.6442V9.16854L12.715 8H15.345L19.532 13.5019V9.16854C19.532 9.02247 19.483 8.82771 19.386 8.73034C19.24 8.53558 19.094 8.29213 18.948 8.09738H21.431L20.944 8.77903C20.846 8.92509 20.798 8.97378 20.798 9.16854V16.9588C19.775 16.9101 18.801 16.4232 18.169 15.5955L14.663 11.0674Z" fill="#ED1C24"/>
<path id="Vector_4" d="M6.62913 19.637C6.62913 19.9778 6.77514 20.1726 7.16514 20.1726C7.31114 20.1726 7.45713 20.1239 7.60313 20.0752C7.65213 20.0265 7.70014 20.0752 7.70014 20.1239V20.1726C7.70014 20.2213 7.70013 20.27 7.60313 20.27C7.45713 20.3187 7.31114 20.3673 7.16514 20.3673C6.62914 20.3673 6.38612 20.1239 6.38612 19.637V19.1501C6.33712 18.7606 6.58113 18.4198 6.97013 18.3711C7.01913 18.3711 7.11614 18.3711 7.16514 18.3711C7.31114 18.3711 7.45712 18.4198 7.55412 18.4685C7.60312 18.4685 7.65214 18.5172 7.65214 18.5658V18.6145C7.65214 18.7119 7.60312 18.7119 7.55412 18.6632C7.40812 18.6145 7.26214 18.5658 7.16514 18.5658C6.82414 18.5658 6.67814 18.7606 6.67814 19.1014L6.62913 19.637Z" fill="#009EDB"/>
<path id="Vector_5" d="M7.16514 20.3658C6.62914 20.3658 6.38612 20.1223 6.38612 19.6354V19.1485C6.33712 18.759 6.58113 18.4182 6.97013 18.3695C7.01913 18.3695 7.11614 18.3695 7.16514 18.3695C7.31114 18.3695 7.45712 18.4182 7.55412 18.4669C7.65212 18.5156 7.65214 18.5156 7.65214 18.5643V18.613C7.65214 18.6616 7.65214 18.6616 7.65214 18.7103C7.65214 18.759 7.60312 18.7103 7.55412 18.7103C7.40812 18.6616 7.26214 18.613 7.16514 18.613C6.82414 18.613 6.67814 18.759 6.67814 19.1485V19.6354C6.67814 19.9763 6.82412 20.171 7.21412 20.171C7.36012 20.171 7.50614 20.1223 7.65214 20.0736C7.70014 20.0736 7.70012 20.0736 7.74912 20.0736C7.79812 20.0736 7.74912 20.1223 7.74912 20.171V20.2197C7.74912 20.2684 7.74914 20.3171 7.65214 20.3171C7.45714 20.3658 7.31114 20.3658 7.16514 20.3658ZM7.16514 18.3695C6.82414 18.3208 6.48312 18.5643 6.38612 18.9538C6.38612 19.0025 6.38612 19.0998 6.38612 19.1485V19.6354C6.38612 20.1223 6.62914 20.3658 7.16514 20.3658C7.31114 20.3658 7.45713 20.3658 7.60313 20.2684C7.70013 20.2197 7.70014 20.2197 7.70014 20.171V20.1223C7.70014 20.0736 7.70014 20.0736 7.70014 20.0736H7.65214C7.50614 20.1223 7.36012 20.171 7.21412 20.171C6.87312 20.171 6.67814 20.0249 6.67814 19.6354V19.1485C6.67814 18.759 6.82412 18.613 7.21412 18.613C7.36012 18.613 7.50614 18.613 7.65214 18.7103C7.70014 18.7103 7.70014 18.7103 7.70014 18.7103V18.6616V18.613C7.70014 18.5643 7.70013 18.5156 7.60313 18.5156C7.45713 18.3695 7.31114 18.3695 7.16514 18.3695Z" fill="#009EDB"/>
<path id="Vector_6" d="M7.99194 18.3708C7.99194 18.2734 7.99194 18.2734 8.08994 18.2734H8.13794C8.23594 18.2734 8.23593 18.2734 8.23593 18.3708V19.0524C8.33293 18.9064 8.52793 18.809 8.72293 18.8577C9.06293 18.8577 9.25793 19.0038 9.25793 19.3446V20.221C9.25793 20.3184 9.25795 20.3184 9.16095 20.3184H9.11194C9.01494 20.3184 9.01495 20.3184 9.01495 20.221V19.3933C9.01495 19.1498 8.91694 19.0524 8.62494 19.0524C8.33294 19.0524 8.23593 19.1498 8.23593 19.442V20.2697C8.23593 20.367 8.23594 20.367 8.13794 20.367H8.08994C7.99194 20.367 7.99194 20.367 7.99194 20.2697V18.3708Z" fill="#009EDB"/>
<path id="Vector_7" d="M9.16095 20.3184C9.06295 20.3184 9.01495 20.3184 9.01495 20.221V19.3933C9.01495 19.1498 8.91694 19.0524 8.62494 19.0524C8.33294 19.0524 8.23593 19.1498 8.23593 19.442V20.2697C8.23593 20.367 8.23594 20.367 8.13794 20.367H8.08994C7.99194 20.367 7.99194 20.367 7.99194 20.2697V18.3708C7.99194 18.2734 7.99194 18.2734 8.08994 18.2734H8.13794C8.23594 18.2734 8.23593 18.2734 8.23593 18.3708V19.0524C8.33293 18.9064 8.52793 18.809 8.72293 18.8577C9.11193 18.8577 9.25793 19.0524 9.25793 19.3933V20.2697C9.25793 20.3184 9.20895 20.3184 9.16095 20.3184ZM8.62494 19.0038C8.91694 19.0038 9.01495 19.1011 9.01495 19.3446V20.221C9.01495 20.3184 9.01494 20.3184 9.11194 20.3184H9.16095C9.25795 20.3184 9.25793 20.3184 9.25793 20.221V19.3446C9.25793 19.0038 9.06293 18.809 8.72293 18.809C8.52793 18.7603 8.33293 18.8577 8.23593 19.0038V18.3708C8.23593 18.2734 8.23594 18.2734 8.13794 18.2734H8.08994C7.99194 18.2734 7.99194 18.2734 7.99194 18.3708V20.2697C7.99194 20.367 7.99194 20.367 8.08994 20.367H8.13794C8.23594 20.367 8.23593 20.367 8.23593 20.2697V19.442C8.23593 19.1498 8.33294 19.0524 8.62494 19.0038Z" fill="#009EDB"/>
<path id="Vector_8" d="M9.55005 19.7337V19.4415C9.55005 19.052 9.74507 18.8086 10.1831 18.8086C10.6211 18.8086 10.8161 19.0033 10.8161 19.4415V19.7337C10.8161 20.1719 10.6211 20.3666 10.1831 20.3666C9.74507 20.3666 9.55005 20.1232 9.55005 19.7337ZM10.6211 19.4415C10.6211 19.1494 10.5241 19.052 10.1831 19.052C9.84207 19.052 9.74506 19.1981 9.74506 19.4415V19.7337C9.74506 20.0258 9.84207 20.1232 10.1831 20.1232C10.5241 20.1232 10.6211 19.9771 10.6211 19.7337V19.4415Z" fill="#009EDB"/>
<path id="Vector_9" d="M10.184 20.3666C9.74496 20.3666 9.55096 20.1719 9.55096 19.7337V19.4415C9.55096 19.2468 9.59896 19.1007 9.69696 18.9546C9.84296 18.8572 9.98896 18.8086 10.184 18.8086C10.622 18.8086 10.816 19.0033 10.816 19.4415V19.7337C10.865 20.0258 10.67 20.3179 10.33 20.3666C10.33 20.3666 10.281 20.3666 10.184 20.3666ZM10.184 18.8572C9.98896 18.8572 9.84296 18.9059 9.69696 19.0033C9.59896 19.1494 9.50196 19.2954 9.55096 19.4902V19.7823C9.55096 20.2205 9.74496 20.4153 10.184 20.4153C10.378 20.4153 10.524 20.3666 10.67 20.2692C10.768 20.1232 10.865 19.9771 10.816 19.7823V19.4902C10.865 19.052 10.622 18.8572 10.184 18.8572ZM10.184 20.1719C9.89096 20.1719 9.74496 20.0745 9.74496 19.7337V19.4415C9.74496 19.1494 9.84296 19.0033 10.184 19.0033C10.524 19.0033 10.622 19.1007 10.622 19.4415V19.7337C10.622 20.0258 10.524 20.1719 10.184 20.1719ZM10.184 19.052C9.89096 19.052 9.74496 19.1494 9.74496 19.4415V19.7337C9.74496 20.0258 9.84296 20.1232 10.184 20.1232C10.524 20.1232 10.622 20.0258 10.622 19.7337V19.4415C10.622 19.1494 10.524 19.052 10.184 19.052Z" fill="#009EDB"/>
<path id="Vector_10" d="M11.9351 19.4415C11.9351 19.052 12.1301 18.8086 12.6171 18.8086C12.7141 18.8086 12.812 18.8086 12.86 18.8572C12.958 18.8572 12.9581 18.9059 12.9581 18.9546V19.0033C12.9581 19.1007 12.958 19.1007 12.86 19.1007C12.763 19.052 12.7141 19.052 12.6171 19.052C12.2761 19.052 12.179 19.1981 12.179 19.4415V19.7337C12.179 20.0258 12.325 20.1232 12.666 20.1232C12.763 20.1232 12.8601 20.1232 12.9091 20.0745C12.9581 20.0745 13.0061 20.0745 13.0061 20.1719V20.2205C13.0061 20.2692 13.0061 20.3179 12.9091 20.3179C12.8121 20.3666 12.7141 20.3666 12.6171 20.3666C12.1791 20.3666 11.9351 20.1719 11.9351 19.7337V19.4415Z" fill="#009EDB"/>
<path id="Vector_11" d="M12.5689 20.3666C12.3739 20.3666 12.2279 20.3179 12.0819 20.2205C11.9359 20.0745 11.8869 19.9284 11.9359 19.7337V19.4415C11.9359 19.2955 11.9849 19.1007 12.0819 19.0033C12.2279 18.9059 12.3739 18.8086 12.5689 18.8572C12.6659 18.8572 12.7639 18.8572 12.8119 18.9059C12.9099 18.9059 12.9099 18.9546 12.9099 19.0033V19.052C12.9099 19.1007 12.9099 19.1007 12.9099 19.1494C12.9099 19.1494 12.8609 19.1494 12.8119 19.1494C12.7149 19.1007 12.6659 19.1007 12.5689 19.1007C12.2279 19.1007 12.1309 19.1981 12.1309 19.4902V19.7823C12.1309 20.0745 12.2769 20.1719 12.6179 20.1719C12.7149 20.1719 12.8119 20.1719 12.8609 20.1232C12.9099 20.1232 12.9099 20.1232 12.9099 20.1232C12.9099 20.1232 12.9579 20.1719 12.9579 20.2205V20.2692C12.9579 20.3179 12.9579 20.3666 12.8609 20.3666C12.8119 20.3179 12.7149 20.3666 12.5689 20.3666ZM12.5689 18.8572C12.1309 18.8572 11.9359 19.052 11.9359 19.4415V19.7337C11.9359 20.1719 12.1309 20.3179 12.6179 20.3179C12.7149 20.3179 12.8119 20.3179 12.9099 20.2692C13.0069 20.2692 13.0069 20.2205 13.0069 20.1719V20.1232C13.0069 20.0745 13.0069 20.0745 13.0069 20.0258C13.0069 19.9771 12.9579 20.0258 12.9579 20.0258C12.8609 20.0745 12.7639 20.0745 12.6659 20.0745C12.3249 20.0745 12.1789 19.9771 12.1789 19.685V19.3928C12.1789 19.1007 12.3249 19.0033 12.6179 19.0033C12.7149 19.0033 12.8119 19.0033 12.8609 19.052C12.9099 19.052 12.9099 19.052 12.9099 19.052C12.9099 19.052 12.9099 19.0033 12.9099 18.9546V18.9059C12.9099 18.8572 12.9099 18.8086 12.8119 18.8086C12.7639 18.8572 12.6659 18.8572 12.5689 18.8572Z" fill="#009EDB"/>
<path id="Vector_12" d="M13.3971 19.7845C13.3971 20.0279 13.4941 20.1253 13.7861 20.1253C14.0781 20.1253 14.1761 20.0279 14.1761 19.7845V18.9567C14.1761 18.8594 14.1761 18.8594 14.2731 18.8594H14.3221C14.4191 18.8594 14.4191 18.8594 14.4191 18.9567V19.7845C14.4191 20.1253 14.2241 20.32 13.7861 20.32C13.3481 20.32 13.1531 20.174 13.1531 19.7845V18.9567C13.1531 18.8594 13.1531 18.8594 13.2511 18.8594H13.2991C13.3971 18.8594 13.3971 18.8594 13.3971 18.9567V19.7845Z" fill="#009EDB"/>
<path id="Vector_13" d="M13.7861 20.3687C13.3971 20.3687 13.1531 20.174 13.1531 19.7845V18.9567C13.1531 18.8594 13.1531 18.8594 13.2511 18.8594H13.2991C13.3971 18.8594 13.3971 18.8594 13.3971 18.9567V19.7845C13.3971 20.0279 13.4941 20.1253 13.7861 20.1253C14.0781 20.1253 14.1761 20.0279 14.1761 19.7845V18.9567C14.1761 18.8594 14.1761 18.8594 14.2731 18.8594H14.3221C14.4191 18.8594 14.4191 18.8594 14.4191 18.9567V19.7845C14.4191 19.9305 14.3711 20.0766 14.2731 20.174C14.1271 20.32 13.9811 20.3687 13.7861 20.3687ZM13.2511 18.8594C13.2021 18.8594 13.1531 18.8594 13.1531 18.9567V19.7845C13.1531 19.9305 13.2021 20.0766 13.2991 20.174C13.4451 20.2714 13.5921 20.32 13.7861 20.32C13.9811 20.32 14.1271 20.2714 14.2731 20.174C14.3711 20.0766 14.4191 19.9305 14.4191 19.7845V18.9567C14.4191 18.9081 14.4191 18.8594 14.3221 18.8594H14.2731C14.1761 18.8594 14.1761 18.8594 14.1761 18.9567V19.7845C14.1761 20.0279 14.0781 20.1253 13.7861 20.1253C13.4941 20.1253 13.3971 20.0279 13.3971 19.7845V18.9567C13.3971 18.9081 13.3971 18.8594 13.2991 18.8594H13.2511Z" fill="#009EDB"/>
<path id="Vector_14" d="M14.7109 19.7322V19.4401C14.7109 19.0506 14.9059 18.8072 15.3439 18.8072C15.7819 18.8072 15.9769 19.0019 15.9769 19.4401V19.7322C15.9769 20.1704 15.7819 20.3652 15.3439 20.3652C14.9059 20.3652 14.7109 20.1218 14.7109 19.7322ZM15.782 19.4401C15.782 19.148 15.6849 19.0506 15.3439 19.0506C15.0029 19.0506 14.9059 19.1967 14.9059 19.4401V19.7322C14.9059 20.0244 15.0029 20.1218 15.3439 20.1218C15.6849 20.1218 15.782 19.9757 15.782 19.7322V19.4401ZM15.1489 18.4663C15.1979 18.3689 15.2469 18.3203 15.3439 18.3203C15.4419 18.3203 15.4899 18.3689 15.5389 18.4663L15.6359 18.6611C15.6849 18.7098 15.636 18.7098 15.588 18.7098C15.539 18.7098 15.4899 18.7098 15.4899 18.6611L15.4419 18.5637C15.3929 18.4663 15.344 18.4663 15.295 18.5637L15.2469 18.6611C15.2469 18.7098 15.1979 18.7585 15.1489 18.7098H15.101C15.052 18.7098 15.0519 18.7098 15.0519 18.6611L15.1489 18.4663ZM15.2469 20.6086C15.2949 20.56 15.3929 20.56 15.4419 20.6086C15.4899 20.6573 15.4899 20.7547 15.4419 20.8034C15.3929 20.8521 15.2949 20.8521 15.2469 20.8034C15.1979 20.7547 15.1979 20.6573 15.2469 20.6086Z" fill="#009EDB"/>
<path id="Vector_15" d="M15.3439 20.8521C15.2469 20.8521 15.1979 20.8034 15.1979 20.706C15.1979 20.6573 15.1979 20.6086 15.2469 20.6086C15.2949 20.56 15.2949 20.56 15.3439 20.56C15.4419 20.56 15.4899 20.6086 15.4899 20.706C15.4899 20.7547 15.4899 20.8034 15.4419 20.8034C15.4419 20.8521 15.3929 20.8521 15.3439 20.8521ZM15.3439 20.56C15.2949 20.56 15.2469 20.56 15.2469 20.6086C15.1979 20.6573 15.1979 20.6573 15.1979 20.706C15.1979 20.7547 15.1979 20.8034 15.2469 20.8034C15.2949 20.8521 15.3929 20.8521 15.4419 20.8034C15.4899 20.7547 15.4899 20.7547 15.4899 20.706C15.4899 20.6573 15.4419 20.56 15.3439 20.56ZM15.3439 20.3652C14.9059 20.3652 14.7109 20.1704 14.7109 19.7322V19.4401C14.7109 19.2454 14.7599 19.0993 14.8569 18.9532C15.0029 18.8558 15.1489 18.8072 15.3439 18.8072C15.7819 18.8072 15.9769 19.0019 15.9769 19.4401V19.7322C16.0259 20.0244 15.8309 20.3165 15.4899 20.3652C15.4899 20.3652 15.3929 20.3652 15.3439 20.3652ZM15.3439 18.8558C15.1489 18.8558 15.0029 18.9045 14.8569 19.0019C14.7599 19.148 14.6629 19.294 14.7109 19.4888V19.7809C14.7109 20.2191 14.9059 20.4139 15.3439 20.4139C15.5389 20.4139 15.6849 20.3652 15.8309 20.2678C15.9279 20.1218 16.0259 19.9757 15.9769 19.7809V19.4888C15.9769 19.0506 15.7819 18.8558 15.3439 18.8558ZM15.3439 20.1704C15.0519 20.1704 14.9059 20.0731 14.9059 19.7322V19.4401C14.9059 19.148 15.0029 19.0019 15.3439 19.0019C15.6849 19.0019 15.7819 19.0993 15.7819 19.4401V19.7322C15.7819 20.0244 15.6849 20.1704 15.3439 20.1704ZM15.3439 19.0506C15.0519 19.0506 14.9059 19.148 14.9059 19.4401V19.7322C14.9059 20.0244 15.0029 20.1218 15.3439 20.1218C15.6849 20.1218 15.7819 20.0244 15.7819 19.7322V19.4401C15.7819 19.148 15.6849 19.0506 15.3439 19.0506ZM15.6359 18.7098C15.5879 18.7098 15.5389 18.7098 15.5389 18.6124L15.4899 18.515C15.4899 18.4663 15.4419 18.4663 15.4419 18.4663C15.4419 18.4663 15.3929 18.4663 15.3929 18.515L15.3439 18.6124C15.3439 18.6611 15.2949 18.7098 15.2469 18.7098H15.1009C15.0519 18.7098 15.0519 18.7098 15.0519 18.7098V18.6611L15.1489 18.4663C15.2469 18.3689 15.2469 18.3203 15.3439 18.3203C15.4419 18.3203 15.4899 18.3689 15.5389 18.4663L15.6359 18.6611C15.6359 18.6611 15.6849 18.7098 15.6359 18.7098C15.6849 18.7098 15.5879 18.7098 15.6359 18.7098ZM15.3439 18.4176C15.3439 18.4176 15.3929 18.4176 15.4419 18.4663L15.4899 18.5637C15.4899 18.6124 15.5389 18.6611 15.5879 18.6124C15.6359 18.6124 15.6359 18.6124 15.6359 18.6124C15.6359 18.6124 15.6359 18.6124 15.6359 18.5637L15.5879 18.4663C15.5389 18.3689 15.4899 18.3203 15.3929 18.3203C15.2949 18.3203 15.2469 18.3689 15.1979 18.4663L15.1009 18.6611V18.7098C15.1009 18.7098 15.1009 18.7098 15.1489 18.7098C15.1979 18.7098 15.2469 18.7098 15.2469 18.6611L15.2949 18.5637C15.2949 18.4663 15.3439 18.4176 15.3439 18.4176Z" fill="#009EDB"/>
<path id="Vector_16" d="M16.269 19.4415C16.269 19.052 16.464 18.8086 16.951 18.8086C17.048 18.8086 17.146 18.8086 17.194 18.8572C17.292 18.8572 17.292 18.9059 17.292 18.9546V19.0033C17.292 19.1007 17.292 19.1007 17.194 19.1007C17.097 19.052 17.048 19.052 16.951 19.052C16.61 19.052 16.513 19.1981 16.513 19.4415V19.7337C16.513 20.0258 16.659 20.1232 16.951 20.1232C17.048 20.1232 17.146 20.1232 17.243 20.0745C17.292 20.0745 17.34 20.0745 17.34 20.1719V20.2205C17.34 20.2692 17.34 20.3179 17.243 20.3179C17.146 20.3666 17.048 20.3666 16.951 20.3666C16.513 20.3666 16.269 20.1719 16.269 19.7337V19.4415Z" fill="#009EDB"/>
<path id="Vector_17" d="M16.9509 20.3666C16.7559 20.3666 16.6099 20.3179 16.4639 20.2205C16.3179 20.0745 16.269 19.9284 16.318 19.7337V19.4415C16.318 19.2955 16.3669 19.1007 16.4639 19.0033C16.6099 18.9059 16.7559 18.8086 16.9509 18.8572C17.0479 18.8572 17.146 18.8572 17.194 18.9059C17.292 18.9059 17.292 18.9546 17.292 19.0033V19.052C17.292 19.1007 17.292 19.1007 17.292 19.1494C17.292 19.1494 17.243 19.1494 17.194 19.1494C17.097 19.1007 17.0479 19.1007 16.9509 19.1007C16.6589 19.1007 16.513 19.1981 16.513 19.4902V19.7823C16.513 20.0745 16.6589 20.1719 16.9509 20.1719C17.0479 20.1719 17.146 20.1719 17.194 20.1232C17.194 20.1232 17.243 20.1232 17.292 20.1232C17.292 20.1232 17.292 20.1719 17.292 20.2205V20.2692C17.292 20.3179 17.292 20.3666 17.194 20.3666C17.146 20.3179 17.0479 20.3666 16.9509 20.3666ZM16.9509 18.8572C16.5129 18.8572 16.318 19.052 16.318 19.4415V19.7337C16.318 20.1719 16.513 20.3179 16.999 20.3179C17.097 20.3179 17.194 20.3179 17.292 20.2692C17.389 20.2692 17.389 20.2205 17.389 20.1719V20.1232C17.389 20.0745 17.389 20.0745 17.389 20.0258C17.389 19.9771 17.34 20.0258 17.34 20.0258C17.243 20.0745 17.146 20.0745 17.048 20.0745C16.707 20.0745 16.561 19.9771 16.561 19.685V19.3928C16.561 19.1007 16.707 19.0033 16.999 19.0033C17.097 19.0033 17.194 19.0033 17.243 19.052C17.292 19.052 17.292 19.052 17.292 19.052C17.292 19.052 17.292 19.0033 17.292 18.9546V18.9059C17.292 18.8572 17.292 18.8086 17.194 18.8086C17.097 18.8572 17.0479 18.8572 16.9509 18.8572Z" fill="#009EDB"/>
<path id="Vector_18" d="M18.314 20.174C18.314 20.0766 18.314 20.0766 18.412 20.0766C18.558 20.1253 18.704 20.1253 18.85 20.1253C19.093 20.1253 19.191 20.0766 19.191 19.9792C19.191 19.8818 19.142 19.8331 18.996 19.7845L18.655 19.6384C18.46 19.541 18.363 19.4436 18.363 19.2489C18.363 19.0541 18.509 18.8594 18.85 18.8594C18.996 18.8594 19.093 18.8594 19.239 18.9081C19.288 18.9081 19.337 18.9567 19.337 19.0054V19.0541C19.337 19.1515 19.337 19.1515 19.239 19.1028C19.142 19.0541 18.996 19.0541 18.85 19.0541C18.655 19.0541 18.558 19.1028 18.558 19.2002C18.558 19.2976 18.606 19.3463 18.704 19.3949L19.093 19.541C19.288 19.6384 19.385 19.7358 19.385 19.9305C19.385 20.1253 19.191 20.32 18.801 20.32C18.655 20.32 18.509 20.32 18.363 20.2714C18.314 20.32 18.314 20.2714 18.314 20.174Z" fill="#009EDB"/>
<path id="Vector_19" d="M18.8501 20.3666C18.7041 20.3666 18.5581 20.3666 18.4111 20.3179C18.3141 20.3179 18.3141 20.2692 18.3141 20.2205C18.3141 20.1719 18.3141 20.1719 18.3141 20.1232C18.3141 20.0745 18.3631 20.1232 18.4111 20.1232C18.5581 20.1719 18.7041 20.1719 18.8501 20.1719C19.0931 20.1719 19.1901 20.1232 19.1901 20.0258C19.1901 19.9284 19.1421 19.8797 18.9961 19.831L18.6061 19.6363C18.4111 19.5389 18.3141 19.4415 18.3141 19.2468C18.3141 19.052 18.4601 18.8572 18.8501 18.8572C18.9961 18.8572 19.0931 18.8572 19.2391 18.9059C19.3371 18.9059 19.3371 18.9546 19.3371 19.0033V19.052C19.3371 19.052 19.3371 19.1007 19.3371 19.1494C19.2881 19.1494 19.2881 19.1494 19.2391 19.1494C19.1421 19.1007 18.9961 19.1007 18.8501 19.1007C18.6551 19.1007 18.5581 19.1494 18.5581 19.2468C18.5581 19.3441 18.6061 19.3928 18.7041 19.4415L19.0931 19.6363C19.2881 19.7337 19.3851 19.831 19.3851 20.0258C19.3851 20.2205 19.1901 20.3666 18.8501 20.3666ZM18.3631 20.0745C18.3141 20.0745 18.3141 20.1232 18.3141 20.1232C18.3141 20.1719 18.3141 20.2205 18.4111 20.2205C18.5581 20.2692 18.7041 20.2692 18.8501 20.2692C19.2391 20.2692 19.3851 20.1719 19.3851 19.8797C19.3851 19.5876 19.2881 19.5876 19.0931 19.4902L18.7041 19.3441C18.6061 19.3441 18.5581 19.2468 18.5581 19.1494C18.5581 19.052 18.6551 19.0033 18.8501 19.0033C18.9961 19.0033 19.0931 19.0033 19.2391 19.052C19.2881 19.052 19.2881 19.052 19.2881 19.052V19.0033V18.9546C19.2881 18.9059 19.2881 18.8572 19.1901 18.8572C19.0931 18.8086 18.9471 18.8086 18.8011 18.8086C18.4601 18.8086 18.2651 18.9059 18.2651 19.1981C18.2651 19.4902 18.3631 19.4902 18.5581 19.5876L18.8981 19.7823C19.0441 19.831 19.0931 19.8797 19.0931 19.9771C19.0931 20.0745 18.9961 20.1232 18.7521 20.1232C18.6551 20.1232 18.5091 20.0745 18.3631 20.0745Z" fill="#009EDB"/>
<path id="Vector_20" d="M19.678 19.7329V19.4408C19.678 19.0513 19.873 18.8078 20.311 18.8078C20.749 18.8078 20.944 19.0026 20.944 19.4408V19.7329C20.944 20.1711 20.749 20.3659 20.311 20.3659C19.873 20.3659 19.678 20.1224 19.678 19.7329ZM20.749 19.4408C20.749 19.1487 20.652 19.0513 20.311 19.0513C19.97 19.0513 19.873 19.1974 19.873 19.4408V19.7329C19.873 20.0251 19.97 20.1224 20.311 20.1224C20.652 20.1224 20.749 19.9764 20.749 19.7329V19.4408ZM20.116 18.467C20.214 18.3696 20.214 18.321 20.311 18.321C20.408 18.321 20.457 18.3696 20.506 18.467L20.603 18.6618C20.652 18.7105 20.603 18.7105 20.554 18.7105C20.506 18.7105 20.457 18.7105 20.457 18.6618L20.408 18.5644C20.36 18.467 20.311 18.467 20.262 18.5644L20.214 18.6618C20.165 18.7105 20.165 18.7105 20.116 18.7105C20.067 18.7105 20.019 18.7105 20.067 18.6618L20.116 18.467ZM20.847 18.2723C20.798 18.321 20.749 18.321 20.7 18.321H20.652C20.603 18.321 20.554 18.321 20.603 18.2236L20.7 17.9801C20.7 17.9314 20.798 17.8828 20.847 17.8828H20.944C21.041 17.8828 21.041 17.8828 20.993 17.9801L20.847 18.2723Z" fill="#009EDB"/>
<path id="Vector_21" d="M20.3112 20.3676C19.8722 20.3676 19.6782 20.1729 19.6782 19.7347V19.4425C19.6782 19.2478 19.7262 19.1017 19.8242 18.9556C19.9702 18.8583 20.1162 18.8096 20.3112 18.8096C20.7492 18.8096 20.9442 19.0043 20.9442 19.4425V19.7347C20.9922 20.1729 20.7492 20.3676 20.3112 20.3676ZM20.3112 18.8583C20.1162 18.8583 19.9702 18.907 19.8242 19.0043C19.7262 19.1504 19.6292 19.2965 19.6782 19.4912V19.7834C19.6782 20.2216 19.8722 20.4163 20.3112 20.4163C20.5052 20.4163 20.6522 20.3676 20.7982 20.2702C20.8952 20.1242 20.9922 19.9781 20.9442 19.7834V19.4912C20.9442 19.053 20.7492 18.8583 20.3112 18.8583ZM20.3112 20.1729C20.0192 20.1729 19.8731 20.0755 19.8731 19.7347V19.4425C19.8731 19.1504 19.9702 19.0043 20.3112 19.0043C20.6522 19.0043 20.7491 19.1017 20.7491 19.4425V19.7347C20.7491 20.0268 20.6522 20.1729 20.3112 20.1729ZM20.3112 19.053C20.0192 19.053 19.8731 19.1504 19.8731 19.4425V19.7347C19.8731 20.0268 19.9702 20.1242 20.3112 20.1242C20.6522 20.1242 20.7491 20.0268 20.7491 19.7347V19.4425C20.7491 19.1504 20.6032 19.053 20.3112 19.053ZM20.6031 18.7122C20.5541 18.7122 20.5052 18.7122 20.4572 18.6148L20.4081 18.5174C20.3591 18.4201 20.3111 18.4201 20.2621 18.5174L20.2132 18.6148C20.2132 18.6635 20.1651 18.7122 20.0671 18.7122C20.0191 18.7122 20.0192 18.7122 20.0192 18.7122V18.6635L20.1162 18.4688C20.1652 18.3714 20.2132 18.3227 20.3112 18.3227C20.4082 18.3227 20.4572 18.3714 20.5052 18.4688L20.6031 18.6635V18.7122ZM20.3112 18.4201C20.3112 18.4201 20.3591 18.4201 20.4081 18.4688L20.4572 18.5661C20.4572 18.6148 20.5051 18.6635 20.5541 18.6148C20.6031 18.6148 20.6031 18.6148 20.6031 18.6148C20.6031 18.6148 20.6031 18.6148 20.6031 18.5661L20.5052 18.3714C20.4082 18.274 20.4082 18.2253 20.3112 18.2253C20.2132 18.2253 20.1652 18.274 20.1162 18.3714L20.0192 18.5661V18.6148C20.0192 18.6148 20.0191 18.6148 20.0671 18.6148C20.1161 18.6148 20.1652 18.6148 20.1652 18.5661L20.2132 18.4688C20.2622 18.4688 20.3112 18.4201 20.3112 18.4201ZM20.7491 18.3227C20.7001 18.3227 20.6522 18.3227 20.6522 18.3227V18.274L20.7982 18.0305C20.7982 17.9332 20.8952 17.8845 20.9442 17.9332H20.9922C21.0412 17.9332 21.0411 17.9332 21.0901 17.9332C21.1381 17.9332 21.0901 17.9819 21.0901 18.0305L20.9442 18.274C20.8952 18.3227 20.7981 18.3714 20.7491 18.3227ZM20.9442 17.9332C20.8952 17.9332 20.7982 17.9819 20.7982 18.0305L20.6522 18.274C20.6522 18.3227 20.6522 18.3227 20.6522 18.3227C20.6522 18.3227 20.6522 18.3227 20.7002 18.3227H20.7491C20.7981 18.3227 20.8461 18.274 20.8951 18.2253L21.0411 17.9819C21.0411 17.9332 21.0901 17.9332 21.0411 17.9332C20.9921 17.9332 20.9922 17.9332 20.9442 17.9332Z" fill="#009EDB"/>
<path id="Vector_22" d="M21.528 20.2227C21.528 20.32 21.5279 20.32 21.4299 20.32H21.3819C21.2839 20.32 21.2839 20.32 21.2839 20.2227V19.3949C21.2839 19.0054 21.4789 18.8594 21.9169 18.8594C22.3549 18.8594 22.5499 19.0541 22.5499 19.3949V20.2227C22.5499 20.32 22.5499 20.32 22.4529 20.32C22.3549 20.32 22.3549 20.32 22.3549 20.2227V19.3949C22.3549 19.1515 22.2579 19.0541 21.9659 19.0541C21.6739 19.0541 21.5759 19.1515 21.5759 19.3949L21.528 20.2227Z" fill="#009EDB"/>
<path id="Vector_23" d="M22.4039 20.3179C22.3069 20.3179 22.3069 20.3179 22.3069 20.2205V19.3928C22.3069 19.1494 22.2089 19.052 21.9169 19.052C21.6249 19.052 21.528 19.1494 21.528 19.3928V20.2205C21.528 20.3179 21.5279 20.3179 21.4299 20.3179H21.3819C21.2839 20.3179 21.2839 20.3179 21.2839 20.2205V19.3928C21.2839 19.0033 21.4789 18.8086 21.9169 18.8086C22.1119 18.8086 22.2579 18.8572 22.4039 18.9546C22.5009 19.052 22.5499 19.1981 22.5499 19.3441V20.1719C22.5009 20.3179 22.5009 20.3179 22.4039 20.3179ZM21.9169 19.052C22.2089 19.052 22.3069 19.1494 22.3069 19.3928V20.2205C22.3069 20.3179 22.3069 20.3179 22.4039 20.3179C22.5009 20.3179 22.5009 20.3179 22.5009 20.2205V19.3928C22.5009 19.2468 22.453 19.1007 22.3549 19.0033C22.2089 18.9059 22.0629 18.8572 21.9169 18.8572C21.7219 18.8572 21.5759 18.9059 21.4299 19.0033C21.3329 19.1007 21.2839 19.2468 21.2839 19.3928V20.2205C21.2839 20.3179 21.2839 20.3179 21.3819 20.3179H21.4299C21.5279 20.3179 21.528 20.3179 21.528 20.2205V19.3441C21.528 19.1494 21.6249 19.052 21.9169 19.052Z" fill="#009EDB"/>
<path id="Vector_24" d="M24.059 19.3942C24.059 19.7351 23.865 19.9298 23.426 19.9298C23.329 19.9298 23.232 19.9298 23.134 19.9298C23.086 19.9298 23.037 19.9785 23.037 20.0272C23.037 20.0759 23.037 20.0759 23.134 20.1246C23.232 20.1246 23.329 20.1246 23.426 20.1246C23.572 20.1246 23.767 20.1246 23.913 20.222C24.011 20.2706 24.059 20.4167 24.059 20.5628C24.059 20.7089 24.011 20.8062 23.913 20.9036C23.767 21.001 23.572 21.001 23.426 21.001C23.28 21.001 23.086 20.9523 22.94 20.9036C22.842 20.8549 22.793 20.7089 22.793 20.6115C22.793 20.4654 22.842 20.368 22.94 20.2707C22.842 20.222 22.793 20.1733 22.842 20.0759C22.842 19.9298 22.94 19.8811 23.086 19.8324C22.94 19.7838 22.793 19.589 22.842 19.3942C22.842 19.0534 23.086 18.9074 23.475 18.9074C23.572 18.9074 23.67 18.9074 23.767 18.956L23.913 18.81C23.962 18.7613 24.011 18.7613 24.011 18.81C24.059 18.8587 24.059 18.8587 24.011 18.9074L23.865 19.0534C24.011 19.1021 24.059 19.2482 24.059 19.3942ZM23.134 20.2707C23.037 20.3193 22.988 20.4167 22.988 20.5141C22.988 20.7089 23.086 20.7575 23.426 20.7575C23.767 20.7575 23.865 20.7089 23.865 20.5141C23.865 20.3193 23.767 20.3193 23.426 20.3193C23.329 20.3193 23.232 20.3193 23.134 20.2707ZM23.816 19.3456C23.816 19.1508 23.67 19.0534 23.426 19.0534C23.183 19.0534 23.037 19.1508 23.037 19.3456V19.3942C23.037 19.589 23.134 19.7351 23.426 19.7351C23.719 19.7351 23.816 19.589 23.816 19.3456Z" fill="#009EDB"/>
<path id="Vector_25" d="M23.4259 20.952C23.2799 20.952 23.0859 20.952 22.9399 20.8546C22.8419 20.7572 22.7929 20.6599 22.7929 20.5138C22.7929 20.3677 22.8419 20.2704 22.9399 20.173C22.8419 20.1243 22.793 20.0756 22.842 19.9782C22.842 19.8322 22.9399 19.7835 23.0859 19.7348C22.9399 19.6374 22.842 19.4913 22.842 19.2966V19.3453C22.842 19.1992 22.8909 19.0531 22.9879 18.9558C23.1339 18.8584 23.2799 18.8097 23.4259 18.8097C23.5239 18.8097 23.6209 18.8097 23.7189 18.8584L23.8649 18.7123C23.9129 18.6636 23.9619 18.6636 23.9619 18.7123C24.0109 18.7123 24.0109 18.761 24.0109 18.761C24.0109 18.761 24.0109 18.8097 23.9619 18.8097L23.816 18.9558C23.913 19.0531 23.9619 19.1505 23.9619 19.2966V19.3453C23.9619 19.6861 23.767 19.8808 23.329 19.8808C23.232 19.8808 23.1339 19.8808 23.0369 19.8808C22.9879 19.8808 22.9879 19.9295 22.9879 19.9782C22.9879 20.0269 23.0369 20.0269 23.0859 20.0756C23.1829 20.0756 23.2799 20.0756 23.3779 20.0756C23.5719 20.0756 23.7189 20.0756 23.9129 20.173C24.0109 20.2217 24.0589 20.3677 24.0589 20.5138C24.0589 20.6599 24.0109 20.8059 23.9129 20.8546C23.8159 20.9033 23.6209 20.952 23.4259 20.952ZM23.4259 18.8584C23.0369 18.8584 22.842 19.0531 22.842 19.3453C22.842 19.54 22.9399 19.6861 23.0859 19.7835C22.9399 19.7835 22.842 19.8808 22.842 20.0269C22.842 20.1243 22.8909 20.173 22.9399 20.2217C22.8419 20.2704 22.7449 20.4164 22.7929 20.5138C22.7929 20.6112 22.8419 20.7572 22.9399 20.8059C23.0859 20.9033 23.2799 20.9033 23.4259 20.9033C23.5719 20.9033 23.7669 20.9033 23.9129 20.8059C24.0109 20.7086 24.0589 20.6112 24.0589 20.4651C24.0589 20.319 24.0109 20.2217 23.9129 20.173C23.7669 20.1243 23.5719 20.0756 23.4259 20.0756C23.3289 20.0756 23.2319 20.0756 23.1339 20.0756C23.0859 20.0756 23.0859 20.0269 23.0369 19.9782C23.0369 19.9295 23.0859 19.8808 23.1339 19.8808C23.2319 19.8808 23.3289 19.8808 23.4259 19.8808C23.6209 19.8808 23.7669 19.8322 23.9129 19.7348C24.0109 19.6374 24.0589 19.4913 24.0589 19.3453C24.0589 19.1992 24.0109 19.1018 23.9129 19.0044L24.0589 18.8584C24.1079 18.8584 24.1079 18.8097 24.1079 18.8097C24.1079 18.8097 24.1079 18.761 24.0589 18.761H24.0109C23.9619 18.7123 23.9619 18.7123 23.9129 18.761L23.7669 18.9071C23.6699 18.8584 23.5719 18.8584 23.4259 18.8584ZM23.4259 20.8059C23.0859 20.8059 22.9879 20.7572 22.9879 20.5625C22.9879 20.4651 23.0369 20.3677 23.1339 20.319C23.2319 20.319 23.3289 20.319 23.4259 20.319C23.7669 20.319 23.8649 20.3677 23.8649 20.5625C23.8649 20.7572 23.7669 20.8059 23.4259 20.8059ZM23.1339 20.319C23.0369 20.3677 22.9879 20.4651 22.9879 20.5625C22.9879 20.7572 23.0859 20.8059 23.4259 20.8059C23.7669 20.8059 23.8649 20.7572 23.8649 20.5625C23.8649 20.3677 23.7669 20.319 23.4259 20.319C23.3289 20.319 23.2319 20.319 23.1339 20.319ZM23.4259 19.7348C23.1339 19.7348 23.0369 19.6374 23.0369 19.394V19.3453C23.0369 19.1505 23.1829 19.0044 23.4259 19.0044C23.6699 19.0044 23.816 19.1018 23.816 19.3453V19.394C23.816 19.5887 23.7189 19.6861 23.4259 19.7348ZM23.4259 19.0531C23.1829 19.0531 23.0369 19.1505 23.0369 19.3453V19.394C23.0369 19.6374 23.1339 19.7348 23.4259 19.7348C23.7189 19.7348 23.816 19.6374 23.816 19.394V19.3453C23.816 19.1505 23.7189 19.0531 23.4259 19.0531Z" fill="#009EDB"/>
<path id="Vector_26" d="M26.689 18.6142C26.689 18.6629 26.6891 18.7116 26.5921 18.7116H26.397V19.7341C26.397 20.1236 26.202 20.367 25.764 20.367C25.326 20.367 25.1311 20.1723 25.1311 19.7341V19.442C25.0821 19.1498 25.3261 18.8577 25.6181 18.8577C25.6671 18.8577 25.715 18.8577 25.764 18.8577C25.959 18.809 26.153 18.9064 26.251 19.0524V18.7116H25.813C25.764 18.7116 25.715 18.7116 25.715 18.6142C25.715 18.5656 25.715 18.5169 25.813 18.5169H26.202V18.3708C26.202 18.2734 26.202 18.2734 26.3 18.2734C26.397 18.2734 26.397 18.2734 26.397 18.3708V18.5169H26.5921C26.6401 18.5169 26.64 18.5169 26.689 18.6142ZM25.326 19.7341C25.326 20.0262 25.423 20.1236 25.764 20.1236C26.105 20.1236 26.202 19.9775 26.202 19.7341V19.442C26.202 19.1498 26.105 19.0524 25.764 19.0524C25.423 19.0524 25.326 19.1985 25.326 19.442V19.7341Z" fill="#009EDB"/>
<path id="Vector_27" d="M25.764 20.367C25.569 20.367 25.423 20.3184 25.277 20.221C25.18 20.0749 25.082 19.9288 25.131 19.7341V19.442C25.131 19.2472 25.18 19.1011 25.277 18.9551C25.423 18.809 25.569 18.7603 25.764 18.809C25.959 18.809 26.1049 18.8577 26.2019 19.0038V18.6629H25.8129C25.7639 18.6629 25.7149 18.6629 25.7149 18.5656C25.7149 18.5169 25.7149 18.4682 25.8129 18.4682H26.2019V18.3708C26.2019 18.2734 26.2019 18.2734 26.2999 18.2734C26.3969 18.2734 26.397 18.2734 26.397 18.3708V18.5169H26.592C26.64 18.5169 26.6889 18.5169 26.6889 18.6142C26.6889 18.6629 26.689 18.7116 26.592 18.7116H26.397V19.7341C26.397 20.1723 26.202 20.367 25.764 20.367ZM25.7149 18.8577C25.5689 18.8577 25.375 18.9064 25.277 19.0038C25.18 19.1498 25.131 19.2959 25.131 19.4906V19.7828C25.131 19.9775 25.18 20.1236 25.277 20.2697C25.423 20.367 25.569 20.4157 25.764 20.4157C25.959 20.4157 26.105 20.367 26.251 20.2697C26.397 20.1236 26.446 19.9775 26.397 19.7828V18.7116H26.592C26.64 18.7116 26.6889 18.7116 26.6889 18.6142C26.6889 18.5656 26.689 18.5169 26.592 18.5169H26.397V18.3708C26.397 18.2734 26.3969 18.2734 26.2999 18.2734C26.2019 18.2734 26.2019 18.2734 26.2019 18.3708V18.5169H25.8129C25.7639 18.5169 25.7149 18.5169 25.7149 18.6142C25.7149 18.6629 25.7149 18.7116 25.8129 18.7116H26.2019V19.1011C26.1049 18.9064 25.9099 18.809 25.7149 18.8577ZM25.764 20.1723C25.472 20.1723 25.3259 20.0749 25.3259 19.7341V19.442C25.3259 19.1498 25.423 19.0038 25.764 19.0038C26.105 19.0038 26.2019 19.1011 26.2019 19.442V19.7341C26.2019 20.0262 26.056 20.1723 25.764 20.1723ZM25.764 19.0524C25.472 19.0524 25.3259 19.1498 25.3259 19.442V19.7341C25.3259 20.0262 25.423 20.1236 25.764 20.1236C26.105 20.1236 26.2019 20.0262 26.2019 19.7341V19.442C26.2019 19.1498 26.056 19.0524 25.764 19.0524Z" fill="#009EDB"/>
<path id="Vector_28" d="M26.689 19.7337V19.4415C26.689 19.052 26.883 18.8086 27.322 18.8086C27.663 18.8086 27.857 18.9059 27.906 19.1494C27.955 19.1494 28.003 19.052 28.003 18.9059C28.003 18.8572 28.003 18.8572 28.052 18.8572H28.101C28.149 18.8572 28.149 18.8572 28.149 18.9059C28.149 19.1494 28.052 19.2468 27.906 19.2955C27.906 19.3441 27.906 19.3928 27.906 19.4415V19.7337C27.906 20.1719 27.711 20.3666 27.273 20.3666C26.835 20.3666 26.689 20.1232 26.689 19.7337ZM27.809 19.4415C27.809 19.1494 27.711 19.052 27.37 19.052C27.03 19.052 26.932 19.1981 26.932 19.4415V19.7337C26.932 20.0258 27.03 20.1232 27.37 20.1232C27.711 20.1232 27.809 19.9771 27.809 19.7337V19.4415Z" fill="#009EDB"/>
<path id="Vector_29" d="M27.3711 20.3666C26.9331 20.3666 26.7381 20.1719 26.7381 19.7337V19.4415C26.7381 19.2468 26.7871 19.1007 26.8841 18.9546C27.0301 18.8572 27.1761 18.8086 27.3711 18.8086C27.7121 18.8086 27.8581 18.9059 27.9551 19.1494C28.0041 19.1494 28.0531 19.052 28.0531 18.9059C28.0531 18.8572 28.0531 18.8572 28.1501 18.8572H28.1991C28.2471 18.8572 28.2471 18.8572 28.2471 18.9059C28.2471 19.1007 28.1501 19.2468 28.0041 19.2955C28.0041 19.3441 28.0041 19.3928 28.0041 19.4415V19.7337C28.0531 20.0258 27.8581 20.3179 27.5171 20.3666C27.4681 20.3666 27.4201 20.3666 27.3711 20.3666ZM27.3711 18.8572C27.1761 18.8572 27.0301 18.9059 26.8841 19.0033C26.7871 19.1494 26.6891 19.2954 26.7381 19.4902V19.7823C26.7381 20.2205 26.9331 20.4153 27.3711 20.4153C27.5661 20.4153 27.7121 20.3666 27.8581 20.2692C27.9551 20.1232 28.0531 19.9771 28.0041 19.7823V19.4902C28.0041 19.4415 28.0041 19.3928 28.0041 19.3441C28.1501 19.2955 28.2471 19.1494 28.2471 18.9546C28.2471 18.9059 28.2471 18.9059 28.1991 18.9059H28.1501C28.1011 18.9059 28.1011 18.9059 28.1011 18.9546C28.1011 19.1007 28.0531 19.1494 28.0041 19.1981C27.8581 18.9546 27.6631 18.8572 27.3711 18.8572ZM27.3711 20.1719C27.0791 20.1719 26.9331 20.0745 26.9331 19.7337V19.4415C26.9331 19.1494 27.0301 19.0033 27.3711 19.0033C27.7121 19.0033 27.8091 19.1007 27.8091 19.4415V19.7337C27.8091 20.0258 27.6631 20.1719 27.3711 20.1719ZM27.3711 19.052C27.0791 19.052 26.9331 19.1494 26.9331 19.4415V19.7337C26.9331 20.0258 27.0301 20.1232 27.3711 20.1232C27.7121 20.1232 27.8091 20.0258 27.8091 19.7337V19.4415C27.8091 19.1494 27.6631 19.052 27.3711 19.052Z" fill="#009EDB"/>
<path id="Vector_30" d="M28.5389 20.2227C28.5389 20.32 28.5389 20.32 28.4419 20.32H28.3929C28.2959 20.32 28.2959 20.32 28.2959 20.2227V19.3949C28.2959 19.0054 28.4899 18.8594 28.9289 18.8594C29.3669 18.8594 29.5619 19.0541 29.5619 19.3949V20.2227C29.5619 20.32 29.5619 20.32 29.4639 20.32H29.4159C29.3179 20.32 29.3179 20.32 29.3179 20.2227V19.3949C29.3179 19.1515 29.2209 19.0541 28.9289 19.0541C28.6359 19.0541 28.5389 19.1515 28.5389 19.3949V20.2227Z" fill="#009EDB"/>
<path id="Vector_31" d="M29.4639 20.3179C29.3669 20.3179 29.3179 20.3179 29.3179 20.2205V19.3928C29.3179 19.1494 29.2209 19.052 28.9289 19.052C28.6359 19.052 28.5389 19.1494 28.5389 19.3928V20.2205C28.5389 20.3179 28.5389 20.3179 28.4419 20.3179H28.3929C28.2959 20.3179 28.2959 20.3179 28.2959 20.2205V19.3928C28.2959 19.0033 28.4899 18.8086 28.9289 18.8086C29.1229 18.8086 29.2689 18.8572 29.4159 18.9546C29.5129 19.052 29.5619 19.1981 29.5619 19.3441V20.1719C29.5619 20.3179 29.5619 20.3179 29.4639 20.3179ZM28.9289 19.0033C29.2209 19.0033 29.3179 19.1007 29.3179 19.3441V20.1719C29.3179 20.2692 29.3179 20.2692 29.4159 20.2692H29.4639C29.5619 20.2692 29.5619 20.2692 29.5619 20.1719V19.3441C29.5619 19.1981 29.5129 19.052 29.4159 18.9546C29.2689 18.8572 29.1229 18.8086 28.9289 18.8086C28.7339 18.8086 28.5879 18.8572 28.4419 18.9546C28.3439 19.052 28.2959 19.1981 28.2959 19.3441V20.1719C28.2959 20.2692 28.2959 20.2692 28.3929 20.2692H28.4419C28.5389 20.2692 28.5389 20.2692 28.5389 20.1719V19.3441C28.5389 19.1494 28.6359 19.052 28.9289 19.0033Z" fill="#009EDB"/>
<path id="Vector_32" d="M31.899 19.3942C31.899 19.7351 31.704 19.9298 31.314 19.9298C31.217 19.9298 31.12 19.9298 30.973 19.9298C30.925 19.9298 30.876 19.9785 30.876 20.0272C30.876 20.0759 30.876 20.0759 30.973 20.1246C31.071 20.1246 31.168 20.1246 31.266 20.1246C31.412 20.1246 31.606 20.1246 31.753 20.222C31.85 20.2706 31.899 20.4167 31.899 20.5628C31.899 20.7089 31.85 20.8062 31.753 20.9036C31.606 21.001 31.412 21.001 31.266 21.001C31.071 21.001 30.925 21.001 30.73 20.9036C30.633 20.8062 30.584 20.7089 30.584 20.6115C30.584 20.4654 30.633 20.368 30.73 20.2707C30.633 20.222 30.584 20.1733 30.633 20.0759C30.633 19.9298 30.73 19.8811 30.876 19.8324C30.73 19.7838 30.584 19.589 30.633 19.3942C30.633 19.0534 30.876 18.9074 31.266 18.9074C31.363 18.9074 31.46 18.9074 31.558 18.956L31.704 18.81C31.753 18.7613 31.801 18.7613 31.801 18.81C31.85 18.8587 31.85 18.8587 31.801 18.9074L31.655 19.0534C31.801 19.1021 31.85 19.2482 31.899 19.3942ZM30.973 20.2707C30.876 20.3193 30.827 20.4167 30.827 20.5141C30.827 20.7089 30.925 20.7575 31.266 20.7575C31.606 20.7575 31.704 20.7089 31.704 20.5141C31.704 20.3193 31.606 20.2707 31.266 20.2707C31.168 20.3193 31.071 20.3193 30.973 20.2707ZM31.655 19.3456C31.655 19.1508 31.509 19.0534 31.266 19.0534C31.022 19.0534 30.876 19.1508 30.876 19.3456V19.3942C30.876 19.589 30.973 19.7351 31.266 19.7351C31.558 19.7351 31.655 19.589 31.655 19.3456Z" fill="#009EDB"/>
<path id="Vector_33" d="M31.2659 20.952C31.0709 20.952 30.9249 20.952 30.7309 20.8546C30.6329 20.7572 30.584 20.6599 30.584 20.5138C30.584 20.3677 30.6329 20.2704 30.7309 20.173C30.6329 20.1243 30.5839 20.0756 30.6329 19.9782C30.6329 19.8322 30.731 19.7835 30.877 19.7348C30.731 19.6374 30.6329 19.4913 30.6329 19.2966V19.3453C30.6329 19.1992 30.6819 19.0531 30.7789 18.9558C30.9249 18.8584 31.071 18.8097 31.217 18.8097C31.315 18.8097 31.412 18.8097 31.51 18.8584L31.6559 18.7123C31.7039 18.6636 31.7529 18.6636 31.7529 18.7123C31.8019 18.7123 31.8019 18.761 31.8019 18.761C31.8019 18.761 31.8019 18.8097 31.7529 18.8097L31.6069 18.9558C31.7039 19.0531 31.7529 19.1505 31.7529 19.2966V19.3453C31.7529 19.6861 31.5579 19.8808 31.1199 19.8808C31.0229 19.8808 30.9249 19.8808 30.7789 19.8808C30.7309 19.8808 30.7309 19.9295 30.7309 19.9782C30.7309 20.0269 30.7309 20.0269 30.8279 20.0756C30.9249 20.0756 31.0229 20.0756 31.1199 20.0756C31.2659 20.0756 31.4609 20.0756 31.6069 20.173C31.7039 20.2217 31.7529 20.3677 31.7529 20.5138C31.7529 20.6599 31.7039 20.8059 31.6069 20.8546C31.6069 20.9033 31.4609 20.952 31.2659 20.952ZM31.2659 18.8584C30.8769 18.8584 30.6329 19.0531 30.6329 19.3453C30.6329 19.54 30.731 19.6861 30.877 19.7835C30.731 19.7835 30.6329 19.8808 30.6329 20.0269C30.6329 20.1243 30.6819 20.173 30.7309 20.2217C30.6329 20.2704 30.536 20.4164 30.584 20.5138C30.584 20.6112 30.6329 20.7572 30.7309 20.8059C31.0709 20.952 31.4119 20.952 31.7529 20.8059C31.8499 20.7086 31.8989 20.6112 31.8989 20.4651C31.8989 20.319 31.8499 20.2217 31.7529 20.173C31.6069 20.0756 31.4119 20.0756 31.2659 20.0756C31.1689 20.0756 31.0709 20.0756 30.9739 20.0756C30.9249 20.0756 30.877 20.0269 30.877 19.9782C30.877 19.9295 30.9249 19.8808 30.9739 19.8808C31.0709 19.8808 31.1689 19.8808 31.3149 19.8808C31.4609 19.8808 31.6559 19.8322 31.7529 19.7348C31.8499 19.6374 31.8989 19.4913 31.8989 19.3453C31.8989 19.1992 31.8499 19.1018 31.7529 19.0044L31.8989 18.8584L31.9479 18.8097C31.9479 18.8097 31.9479 18.761 31.8989 18.761C31.8499 18.7123 31.8499 18.7123 31.8019 18.761L31.6559 18.9071C31.5099 18.8584 31.4119 18.8584 31.2659 18.8584ZM31.2659 20.8059C30.9249 20.8059 30.8279 20.7572 30.8279 20.5625C30.8279 20.4651 30.8769 20.3677 30.9739 20.319C31.0709 20.319 31.1689 20.319 31.2659 20.319C31.6069 20.319 31.704 20.3677 31.704 20.5625C31.704 20.7572 31.5579 20.8059 31.2659 20.8059ZM30.9739 20.319C30.8769 20.3677 30.8279 20.4651 30.8279 20.5625C30.8279 20.7572 30.9249 20.8059 31.2659 20.8059C31.6069 20.8059 31.704 20.7572 31.704 20.5625C31.704 20.3677 31.6069 20.319 31.2659 20.319C31.1689 20.319 31.0709 20.319 30.9739 20.319ZM31.2659 19.7348C30.9739 19.7348 30.877 19.6374 30.877 19.394V19.3453C30.877 19.1505 31.0229 19.0044 31.2659 19.0044C31.5099 19.0044 31.6559 19.1018 31.6559 19.3453V19.394C31.6559 19.5887 31.5579 19.6861 31.2659 19.7348ZM31.2659 19.0531C30.9739 19.0531 30.877 19.1505 30.877 19.3453V19.394C30.877 19.6374 30.9739 19.7348 31.2659 19.7348C31.5579 19.7348 31.6559 19.6374 31.6559 19.394V19.3453C31.6559 19.1505 31.5579 19.0531 31.2659 19.0531Z" fill="#009EDB"/>
<path id="Vector_34" d="M32.4829 18.4195C32.4829 18.5169 32.4339 18.5656 32.3369 18.5656C32.2389 18.5656 32.1909 18.5169 32.1909 18.4195C32.1909 18.3221 32.2389 18.2734 32.3369 18.2734C32.4339 18.2734 32.4829 18.3221 32.4829 18.4195ZM32.2389 18.9551C32.2389 18.8577 32.2389 18.8577 32.3369 18.8577H32.3849C32.4829 18.8577 32.4829 18.8577 32.4829 18.9551V20.221C32.4829 20.3184 32.4829 20.3184 32.3849 20.3184H32.3369C32.2389 20.3184 32.2389 20.3184 32.2389 20.221V18.9551Z" fill="#009EDB"/>
<path id="Vector_35" d="M32.3369 20.3202C32.2389 20.3202 32.1909 20.3202 32.1909 20.2228V18.9569C32.1909 18.8595 32.1909 18.8595 32.2879 18.8595H32.3369C32.4339 18.8595 32.4339 18.8595 32.4339 18.9569V20.2228C32.4339 20.3202 32.4339 20.3202 32.3369 20.3202ZM32.3369 18.8595C32.2389 18.8595 32.2389 18.8595 32.2389 18.9569V20.2228C32.2389 20.3202 32.2389 20.3202 32.3369 20.3202H32.3849C32.4339 20.3202 32.4829 20.3202 32.4829 20.2228V18.9569C32.4339 18.9082 32.4339 18.8595 32.3369 18.8595ZM32.3369 18.5187C32.2389 18.5187 32.1909 18.47 32.1909 18.3726C32.1909 18.2753 32.2389 18.2266 32.3369 18.2266C32.4339 18.2266 32.4829 18.2753 32.4829 18.3726C32.4829 18.47 32.3849 18.5187 32.3369 18.5187ZM32.3369 18.2753C32.2389 18.2753 32.1909 18.3239 32.1909 18.4213C32.1909 18.5187 32.2389 18.5674 32.3369 18.5674C32.4339 18.5674 32.4829 18.5187 32.4829 18.4213C32.4829 18.3239 32.3849 18.2753 32.3369 18.2753Z" fill="#009EDB"/>
<path id="Vector_36" d="M33.9429 19.8796C33.9429 20.2204 33.7479 20.3665 33.3099 20.3665C32.9689 20.3665 32.7749 20.2204 32.7749 19.9283C32.7749 19.6361 32.9689 19.4901 33.3589 19.4901H33.6999V19.2953C33.6999 19.1006 33.5539 19.0519 33.3099 19.0519C33.2129 19.0519 33.1149 19.0519 32.9689 19.1006C32.8719 19.1006 32.8719 19.1006 32.8719 19.0032C32.8719 18.9545 32.8719 18.9058 32.9689 18.9058C33.0669 18.9058 33.1639 18.8571 33.3099 18.8571C33.6999 18.8571 33.9429 19.0032 33.9429 19.344V19.8796ZM33.6999 19.6361H33.3589C33.1149 19.6361 32.9689 19.7335 32.9689 19.8796C32.9689 20.0257 33.0669 20.123 33.3099 20.123C33.5539 20.123 33.6999 20.0743 33.6999 19.8309V19.6361ZM33.3589 18.6624C33.3099 18.6624 33.3099 18.6624 33.3099 18.6137C33.3099 18.565 33.3589 18.5163 33.4559 18.4189L33.5049 18.3702C33.5049 18.3215 33.5049 18.2728 33.4559 18.2728C33.4079 18.2728 33.3589 18.2728 33.3099 18.2728C33.2619 18.2728 33.2619 18.2728 33.2129 18.2242C33.2129 18.1755 33.2129 18.1755 33.2619 18.1268C33.3099 18.1268 33.3589 18.0781 33.4559 18.0781C33.5539 18.0781 33.6509 18.1268 33.6509 18.2728V18.3215C33.6509 18.4676 33.4559 18.5163 33.4559 18.6137C33.4559 18.6137 33.4559 18.6624 33.3589 18.6624Z" fill="#009EDB"/>
<path id="Vector_37" d="M33.3101 20.3686C32.9211 20.3686 32.7261 20.2225 32.7261 19.9304C32.7261 19.6383 32.9211 19.4922 33.3101 19.4922H33.6511V19.2974C33.6511 19.1027 33.5541 19.054 33.2621 19.054C33.1641 19.054 33.0671 19.054 32.9211 19.1027C32.8721 19.1027 32.8721 19.1027 32.8231 19.1027C32.7751 19.1027 32.8231 19.054 32.8231 19.054C32.8231 19.0053 32.8231 18.9566 32.9211 18.9566C33.0181 18.9566 33.1161 18.9079 33.2621 18.9079C33.6511 18.9079 33.8951 19.054 33.8951 19.3948V19.9791C33.9431 20.2225 33.7491 20.3686 33.3101 20.3686ZM33.3591 19.4922C32.9211 19.4922 32.7751 19.6383 32.7751 19.9304C32.7751 20.2225 32.9701 20.3686 33.3101 20.3686C33.4561 20.3686 33.6511 20.3686 33.7971 20.2712C33.8951 20.1738 33.9431 20.0765 33.9431 19.9304V19.3461C33.9431 19.2001 33.8951 19.1027 33.7971 19.0053C33.6511 18.9079 33.5051 18.8592 33.3591 18.9079C33.2621 18.9079 33.1641 18.9079 33.0181 18.9566C32.9211 18.9566 32.9211 19.0053 32.9211 19.054C32.9211 19.1027 32.9211 19.1027 32.9211 19.1027C32.9211 19.1027 32.9701 19.1027 33.0181 19.1027C33.1161 19.1027 33.2131 19.054 33.3591 19.054C33.6511 19.054 33.7491 19.1514 33.7491 19.3461V19.5409L33.3591 19.4922ZM33.3101 20.1738C33.0671 20.1738 32.9701 20.0765 32.9701 19.9304C32.9701 19.7843 33.0671 19.6869 33.3591 19.6869H33.7001V19.9304C33.7001 20.1252 33.5541 20.1738 33.3101 20.1738ZM33.3591 19.6869C33.0671 19.6869 32.9701 19.7843 32.9701 19.9304C32.9701 20.0765 33.0671 20.1738 33.3101 20.1738C33.5541 20.1738 33.7001 20.0765 33.7001 19.8817V19.6383L33.3591 19.6869ZM33.3591 18.7132C33.3101 18.7132 33.3101 18.7132 33.2621 18.6645C33.2131 18.6158 33.3101 18.5671 33.3591 18.4697L33.4081 18.421L33.4561 18.3723C33.4561 18.3237 33.4561 18.275 33.4081 18.275C33.3591 18.275 33.3101 18.275 33.3101 18.3237C33.2621 18.3237 33.2621 18.3237 33.2131 18.275C33.2131 18.2263 33.2131 18.2263 33.2621 18.1776C33.3101 18.1776 33.3591 18.1289 33.4561 18.1289C33.5051 18.1289 33.5541 18.1289 33.6021 18.1776C33.6511 18.2263 33.6511 18.275 33.6511 18.3237C33.6511 18.3723 33.602 18.4697 33.554 18.4697C33.505 18.5184 33.5051 18.5184 33.4561 18.5671C33.4561 18.6645 33.4561 18.7132 33.3591 18.7132ZM33.4081 18.275C33.4561 18.275 33.4561 18.275 33.4561 18.3723C33.4561 18.421 33.4561 18.421 33.4081 18.421L33.3591 18.4697C33.3101 18.5184 33.2621 18.5671 33.2621 18.6158C33.2621 18.6645 33.2621 18.6645 33.3101 18.6645C33.3591 18.6645 33.3591 18.6158 33.3591 18.6158C33.3591 18.5671 33.4081 18.5184 33.4561 18.5184C33.5051 18.4697 33.554 18.421 33.554 18.3723C33.554 18.3237 33.5541 18.275 33.5051 18.2263C33.4561 18.1776 33.4081 18.1776 33.3591 18.1776C33.3101 18.1776 33.2621 18.1776 33.1641 18.2263C33.1161 18.2263 33.1161 18.275 33.1161 18.3237C33.1161 18.3723 33.1641 18.3723 33.2131 18.3723C33.3101 18.275 33.3591 18.275 33.4081 18.275Z" fill="#009EDB"/>
<path id="Vector_38" d="M34.4799 20.2227C34.4799 20.32 34.4798 20.32 34.3818 20.32H34.3329C34.2359 20.32 34.2358 20.32 34.2358 20.2227V19.3949C34.2358 19.0054 34.4308 18.8594 34.8688 18.8594C35.3068 18.8594 35.5019 19.0541 35.5019 19.3949V20.2227C35.5019 20.32 35.5018 20.32 35.4048 20.32H35.3558C35.2588 20.32 35.2589 20.32 35.2589 20.2227V19.3949C35.2589 19.1515 35.1608 19.0541 34.8688 19.0541C34.5768 19.0541 34.4799 19.1515 34.4799 19.3949V20.2227Z" fill="#009EDB"/>
<path id="Vector_39" d="M35.4048 20.3179C35.3068 20.3179 35.2589 20.3179 35.2589 20.2205V19.3928C35.2589 19.1494 35.1608 19.052 34.8688 19.052C34.5768 19.052 34.4799 19.1494 34.4799 19.3928V20.2205C34.4799 20.3179 34.4798 20.3179 34.3818 20.3179H34.3329C34.2359 20.3179 34.2358 20.3179 34.2358 20.2205V19.3928C34.2358 19.0033 34.4308 18.8086 34.8688 18.8086C35.0638 18.8086 35.2098 18.8572 35.3558 18.9546C35.4528 19.052 35.5019 19.1981 35.5019 19.3441V20.1719C35.5019 20.3179 35.5018 20.3179 35.4048 20.3179ZM34.8688 19.0033C35.1608 19.0033 35.2589 19.1007 35.2589 19.3441V20.1719C35.2589 20.2692 35.2588 20.2692 35.3558 20.2692H35.4048C35.5018 20.2692 35.5019 20.2692 35.5019 20.1719V19.3441C35.5019 19.1981 35.4528 19.052 35.3558 18.9546C35.2098 18.8572 35.0638 18.8086 34.8688 18.8086C34.6738 18.8086 34.5278 18.8572 34.3818 18.9546C34.2848 19.052 34.2358 19.1981 34.2358 19.3441V20.1719C34.2358 20.2692 34.2849 20.2692 34.3329 20.2692H34.3818C34.4798 20.2692 34.4799 20.2692 34.4799 20.1719V19.3441C34.4799 19.1494 34.5768 19.052 34.8688 19.0033Z" fill="#009EDB"/>
<path id="Vector_40" d="M36.6699 18.3708C36.6699 18.2734 36.6699 18.2734 36.7679 18.2734H36.8159C36.9139 18.2734 36.9139 18.2734 36.9139 18.3708V19.0524C37.0109 18.9064 37.2059 18.809 37.4009 18.8577C37.7419 18.8577 37.9359 19.0038 37.9359 19.3933V20.2697C37.9359 20.367 37.9359 20.367 37.8389 20.367H37.7899C37.6929 20.367 37.6929 20.367 37.6929 20.2697V19.3933C37.6929 19.1498 37.5959 19.0524 37.3029 19.0524C37.0109 19.0524 36.9139 19.1498 36.9139 19.442V20.2697C36.9139 20.367 36.9139 20.367 36.8159 20.367H36.7679C36.6699 20.367 36.6699 20.367 36.6699 20.2697V18.3708Z" fill="#009EDB"/>
<path id="Vector_41" d="M37.7901 20.3184C37.6921 20.3184 37.6441 20.3184 37.6441 20.221V19.3933C37.6441 19.1498 37.5461 19.0524 37.2541 19.0524C36.9621 19.0524 36.8651 19.1498 36.8651 19.442V20.2697C36.8651 20.367 36.8651 20.367 36.7671 20.367H36.7191C36.6211 20.367 36.6211 20.367 36.6211 20.2697V18.3708C36.6211 18.2734 36.6211 18.2734 36.7191 18.2734H36.7671C36.8651 18.2734 36.8651 18.2734 36.8651 18.3708V19.0524C36.9621 18.9064 37.1571 18.809 37.3521 18.8577C37.7411 18.8577 37.8871 19.0524 37.8871 19.3933V20.2697C37.8871 20.3184 37.8871 20.3184 37.7901 20.3184ZM37.3031 19.0038C37.5951 19.0038 37.6931 19.1011 37.6931 19.3446V20.221C37.6931 20.3184 37.6921 20.3184 37.7901 20.3184H37.8391C37.9361 20.3184 37.9361 20.3184 37.9361 20.221V19.3446C37.9361 19.0038 37.7411 18.809 37.4001 18.809C37.2061 18.7603 37.0111 18.8577 36.9131 19.0038V18.3708C36.9131 18.2734 36.9131 18.2734 36.8161 18.2734H36.7671C36.6701 18.2734 36.6701 18.2734 36.6701 18.3708V20.2697C36.6701 20.367 36.6701 20.367 36.7671 20.367H36.8161C36.9131 20.367 36.9131 20.367 36.9131 20.2697V19.442C36.8651 19.1498 37.0111 19.0524 37.3031 19.0038Z" fill="#009EDB"/>
<path id="Vector_42" d="M38.228 19.7351V19.443C38.228 19.0535 38.423 18.8101 38.861 18.8101C39.104 18.7614 39.348 18.9074 39.445 19.1509C39.494 19.1509 39.543 19.0535 39.543 18.9074C39.543 18.8587 39.543 18.8587 39.591 18.8587H39.64C39.689 18.8587 39.689 18.8587 39.689 18.9074C39.689 19.1509 39.591 19.2483 39.445 19.2969C39.445 19.3456 39.445 19.3943 39.445 19.443V19.7351C39.445 20.1733 39.25 20.3681 38.812 20.3681C38.374 20.3681 38.228 20.1247 38.228 19.7351ZM39.299 19.443C39.299 19.1509 39.202 19.0535 38.861 19.0535C38.52 19.0535 38.423 19.1996 38.423 19.443V19.7351C38.423 20.0273 38.52 20.1247 38.861 20.1247C39.202 20.1247 39.299 19.9786 39.299 19.7351V19.443Z" fill="#009EDB"/>
<path id="Vector_43" d="M38.8609 20.3666C38.4229 20.3666 38.2279 20.1719 38.2279 19.7337V19.4415C38.2279 19.2468 38.2769 19.1007 38.3739 18.9546C38.5199 18.8572 38.6659 18.8086 38.8609 18.8086C39.2019 18.8086 39.3969 18.9059 39.4449 19.1494C39.4939 19.1494 39.5429 19.052 39.5429 18.9059C39.5429 18.8572 39.5429 18.8572 39.5909 18.8572H39.6399C39.6889 18.8572 39.6889 18.8572 39.6889 18.9059C39.6889 19.1007 39.5909 19.2468 39.4449 19.2955C39.4449 19.3441 39.4449 19.3928 39.4449 19.4415V19.7337C39.4939 20.0258 39.2989 20.3179 38.9579 20.3666C38.9579 20.3666 38.9099 20.3666 38.8609 20.3666ZM38.8609 18.8572C38.6659 18.8572 38.5199 18.9059 38.3739 19.0033C38.2769 19.1494 38.1789 19.2954 38.2279 19.4902V19.7823C38.2279 20.2205 38.4229 20.4153 38.8609 20.4153C39.0559 20.4153 39.2019 20.3666 39.3479 20.2692C39.4449 20.1232 39.5429 19.9771 39.4939 19.7823V19.4902C39.4939 19.4415 39.4939 19.3928 39.4939 19.3441C39.6399 19.2955 39.7369 19.1494 39.7369 18.9546C39.7369 18.9059 39.7369 18.9059 39.6889 18.9059H39.6399C39.5909 18.9059 39.5909 18.9059 39.5909 18.9546C39.5909 19.1007 39.5429 19.1494 39.4939 19.1981C39.3969 18.9546 39.2019 18.8572 38.8609 18.8572ZM38.8609 20.1719C38.5689 20.1719 38.4229 20.0745 38.4229 19.7337V19.4415C38.4229 19.1494 38.5199 19.0033 38.8609 19.0033C39.2019 19.0033 39.2989 19.1007 39.2989 19.4415V19.7337C39.2989 20.0258 39.1529 20.1719 38.8609 20.1719ZM38.8609 19.052C38.5689 19.052 38.4229 19.1494 38.4229 19.4415V19.7337C38.4229 20.0258 38.5199 20.1232 38.8609 20.1232C39.2019 20.1232 39.2989 20.0258 39.2989 19.7337V19.4415C39.2989 19.1494 39.1529 19.052 38.8609 19.052Z" fill="#009EDB"/>
<path id="Vector_44" d="M40.03 20.2227C40.03 20.32 40.03 20.32 39.933 20.32C39.884 20.32 39.835 20.32 39.835 20.2227V19.3949C39.835 19.0054 40.03 18.8594 40.468 18.8594C40.906 18.8594 41.101 19.0541 41.101 19.3949V20.2227C41.101 20.32 41.101 20.32 41.004 20.32H40.955C40.858 20.32 40.858 20.32 40.858 20.2227V19.3949C40.858 19.1515 40.76 19.0541 40.468 19.0541C40.176 19.0541 40.079 19.1515 40.079 19.3949L40.03 20.2227Z" fill="#009EDB"/>
<path id="Vector_45" d="M40.9551 20.3179C40.8581 20.3179 40.8091 20.3179 40.8091 20.2205V19.3928C40.8091 19.1494 40.7121 19.052 40.4201 19.052C40.1281 19.052 40.0301 19.1494 40.0301 19.3928V20.2205C40.0301 20.3179 40.0301 20.3179 39.9331 20.3179C39.8841 20.3179 39.8361 20.3179 39.8361 20.2205V19.3928C39.8361 19.0033 40.0301 18.8086 40.4691 18.8086C40.6631 18.8086 40.8091 18.8572 40.9551 18.9546C41.0531 19.052 41.1011 19.1981 41.1011 19.3441V20.1719C41.0531 20.3179 41.0531 20.3179 40.9551 20.3179ZM40.4201 19.0033C40.7121 19.0033 40.8091 19.1007 40.8091 19.3441V20.1719C40.8091 20.2692 40.8091 20.2692 40.9071 20.2692H40.9551C41.0531 20.2692 41.0531 20.2692 41.0531 20.1719V19.3441C41.0531 19.1981 41.0041 19.052 40.9071 18.9546C40.7611 18.8572 40.6151 18.8086 40.4201 18.8086C40.2251 18.8086 40.0791 18.8572 39.9331 18.9546C39.8361 19.052 39.7871 19.1981 39.7871 19.3441V20.1719C39.7871 20.2692 39.8361 20.2692 39.8841 20.2692H39.9331C40.0301 20.2692 40.0301 20.2692 40.0301 20.1719V19.3441C40.0301 19.1494 40.1761 19.052 40.4201 19.0033Z" fill="#009EDB"/>
</g>
</svg>
