<svg xmlns="http://www.w3.org/2000/svg" version="1.1" xmlns:xlink="http://www.w3.org/1999/xlink" xmlns:svgjs="http://svgjs.dev/svgjs" width="1500" height="1500" viewBox="0 0 1500 1500"><rect width="1500" height="1500" fill="#000000"></rect><g transform="matrix(0.6666666666666666,0,0,0.6666666666666666,248.58004330472403,149.06774193548387)"><svg viewBox="0 0 207 248" data-background-color="#000000" preserveAspectRatio="xMidYMid meet" height="1797" width="1500" xmlns="http://www.w3.org/2000/svg" xmlns:xlink="http://www.w3.org/1999/xlink"><g id="tight-bounds" transform="matrix(1,0,0,1,0.2939310359221281,0.4000000000000057)"><svg viewBox="0 0 206.41213792815572 247.2" height="247.2" width="206.41213792815572"><rect width="206.41213792815572" height="247.2" fill="url(#182dfa60-504c-478e-8099-0d4192f6113b)" mask="url(#44c939bf-a492-404e-b6cb-163e6b8a5f8b)" data-fill-palette-color="tertiary"></rect><g><svg viewBox="0 0 311.2766466953247 372.7861541256203" height="247.2" width="206.41213792815572"><g><svg viewBox="0 0 311.2766466953247 372.7861541256203" height="372.7861541256203" width="311.2766466953247"><g id="textblocktransform"><svg viewBox="0 0 311.2766466953247 372.7861541256203" height="372.7861541256203" width="311.2766466953247" id="textblock"><g><svg viewBox="0 0 311.2766466953247 245.672304" height="245.672304" width="311.2766466953247"><rect width="311.2766466953247" height="245.672304" x="0" y="0" opacity="1" fill="url(#182dfa60-504c-478e-8099-0d4192f6113b)" data-fill-palette-color="tertiary"></rect><g transform="matrix(1,0,0,1,23.461705032,23.461705032)"><svg width="264.3532366313247" viewBox="2.53 -31.67 42.68 32.09" height="198.748893936" data-palette-color="#000000"><path d="M11.11 0.42L11.11 0.42Q8.33 0.42 6.09-0.69 3.85-1.81 2.53-3.4L2.53-3.4 3.68-8.19Q4.65-6.25 6.6-4.69 8.54-3.13 11.25-3.13L11.25-3.13Q13.72-3.13 15.33-4.69 16.94-6.25 16.94-8.54L16.94-8.54Q16.94-10.21 16.15-11.28 15.35-12.36 14.34-12.99 13.33-13.61 12.74-13.89L12.74-13.89 8.92-15.83Q8.02-16.32 6.68-17.19 5.35-18.06 4.34-19.58 3.33-21.11 3.33-23.54L3.33-23.54Q3.33-25.9 4.43-27.74 5.52-29.58 7.48-30.63 9.44-31.67 11.98-31.67L11.98-31.67Q14.48-31.67 16.39-30.78 18.3-29.9 19.38-28.96L19.38-28.96 18.23-24.17Q17.36-25.63 15.66-26.91 13.96-28.19 11.81-28.19L11.81-28.19Q9.72-28.19 8.47-26.96 7.22-25.73 7.22-23.92L7.22-23.92Q7.22-22.53 7.86-21.63 8.51-20.73 9.32-20.21 10.14-19.69 10.66-19.41L10.66-19.41 14.55-17.47Q15.24-17.12 16.3-16.49 17.36-15.87 18.4-14.84 19.44-13.82 20.14-12.34 20.83-10.87 20.83-8.78L20.83-8.78Q20.83-6.11 19.57-4.03 18.3-1.94 16.11-0.76 13.92 0.42 11.11 0.42ZM32.91-27.71L24.58-27.71 24.58-31.25 45.21-31.25 45.21-27.71 36.87-27.71 36.87 0 32.91 0 32.91-27.71Z" opacity="1" transform="matrix(1,0,0,1,0,0)" fill="#000000" class="wordmark-text-0" data-fill-palette-color="quaternary" id="text-0"></path></svg></g></svg></g><g transform="matrix(1,0,0,1,0,257.403156516)"><svg viewBox="0 0 311.2766466953247 115.38299760962036" height="115.38299760962036" width="311.2766466953247"><g transform="matrix(1,0,0,1,0,0)"><svg width="311.2766466953247" viewBox="2.05 -37.9 132.98999999999998 49.3" height="115.38299760962036" data-palette-color="url(#757fc99f-96ad-4582-8d3a-d73c0c636f24)"></svg></g></svg></g></svg></g></svg></g></svg></g><defs></defs><mask id="2453fa17-4d55-471d-a56c-e08242e072be"><g id="SvgjsG3264"><svg viewBox="0 0 206.41213792815572 247.2" height="247.2" width="206.41213792815572"><g><svg viewBox="0 0 311.2766466953247 372.7861541256203" height="247.2" width="206.41213792815572"><g><svg viewBox="0 0 311.2766466953247 372.7861541256203" height="372.7861541256203" width="311.2766466953247"><g id="SvgjsG3263"><svg viewBox="0 0 311.2766466953247 372.7861541256203" height="372.7861541256203" width="311.2766466953247" id="SvgjsSvg3262"><g><svg viewBox="0 0 311.2766466953247 245.672304" height="245.672304" width="311.2766466953247"><rect width="311.2766466953247" height="245.672304" x="0" y="0" opacity="1" fill="black"></rect><g transform="matrix(1,0,0,1,23.461705032,23.461705032)"><svg width="264.3532366313247" viewBox="2.53 -31.67 42.68 32.09" height="198.748893936" data-palette-color="#000000"><path d="M11.11 0.42L11.11 0.42Q8.33 0.42 6.09-0.69 3.85-1.81 2.53-3.4L2.53-3.4 3.68-8.19Q4.65-6.25 6.6-4.69 8.54-3.13 11.25-3.13L11.25-3.13Q13.72-3.13 15.33-4.69 16.94-6.25 16.94-8.54L16.94-8.54Q16.94-10.21 16.15-11.28 15.35-12.36 14.34-12.99 13.33-13.61 12.74-13.89L12.74-13.89 8.92-15.83Q8.02-16.32 6.68-17.19 5.35-18.06 4.34-19.58 3.33-21.11 3.33-23.54L3.33-23.54Q3.33-25.9 4.43-27.74 5.52-29.58 7.48-30.63 9.44-31.67 11.98-31.67L11.98-31.67Q14.48-31.67 16.39-30.78 18.3-29.9 19.38-28.96L19.38-28.96 18.23-24.17Q17.36-25.63 15.66-26.91 13.96-28.19 11.81-28.19L11.81-28.19Q9.72-28.19 8.47-26.96 7.22-25.73 7.22-23.92L7.22-23.92Q7.22-22.53 7.86-21.63 8.51-20.73 9.32-20.21 10.14-19.69 10.66-19.41L10.66-19.41 14.55-17.47Q15.24-17.12 16.3-16.49 17.36-15.87 18.4-14.84 19.44-13.82 20.14-12.34 20.83-10.87 20.83-8.78L20.83-8.78Q20.83-6.11 19.57-4.03 18.3-1.94 16.11-0.76 13.92 0.42 11.11 0.42ZM32.91-27.71L24.58-27.71 24.58-31.25 45.21-31.25 45.21-27.71 36.87-27.71 36.87 0 32.91 0 32.91-27.71Z" opacity="1" transform="matrix(1,0,0,1,0,0)" fill="black" class="wordmark-text-0" id="SvgjsPath3261"></path></svg></g></svg></g><g transform="matrix(1,0,0,1,0,257.403156516)"><svg viewBox="0 0 311.2766466953247 115.38299760962036" height="115.38299760962036" width="311.2766466953247"><g transform="matrix(1,0,0,1,0,0)"><svg width="311.2766466953247" viewBox="2.05 -37.9 132.98999999999998 49.3" height="115.38299760962036" data-palette-color="url(#757fc99f-96ad-4582-8d3a-d73c0c636f24)"><path d="M17.9-24.6L17.2-21.05Q15.1-21.7 13.48-21.93 11.85-22.15 10.5-22.15L10.5-22.15Q8.75-22.15 7.58-21.3 6.4-20.45 6.4-19.1L6.4-19.1Q6.45-17.9 7.45-17.05 8.45-16.2 9.78-15.53 11.1-14.85 12.73-14.05 14.35-13.25 15.78-12.25 17.2-11.25 18.1-9.85 19-8.45 19.05-6.5L19.05-6.5Q19-4.4 18.13-3.03 17.25-1.65 15.88-0.83 14.5 0 12.9 0.33 11.3 0.65 9.9 0.65L9.9 0.65Q8.1 0.65 6.18 0.45 4.25 0.25 2.05-0.4L2.05-0.4 2.8-4Q5.05-3.4 6.9-3.13 8.75-2.85 9.95-2.85L9.95-2.85Q10.85-2.85 11.73-3.05 12.6-3.25 13.3-3.63 14-4 14.43-4.6 14.85-5.2 14.85-5.95L14.85-5.95Q14.8-7.35 13.9-8.33 13-9.3 11.58-10.08 10.15-10.85 8.53-11.63 6.9-12.4 5.48-13.43 4.05-14.45 3.1-15.88 2.15-17.3 2.15-19.4L2.15-19.4Q2.15-20.9 2.93-22.08 3.7-23.25 4.93-24.03 6.15-24.8 7.63-25.23 9.1-25.65 10.5-25.65L10.5-25.65Q11.95-25.65 13.75-25.43 15.55-25.2 17.9-24.6L17.9-24.6ZM24.45 0L24.45-25.2 28.45-25.65 28.45 0 24.45 0ZM23.8-32.35L23.8-32.35Q23.8-33.5 24.57-34.27 25.35-35.05 26.5-35.05L26.5-35.05Q27.7-35.05 28.52-34.27 29.35-33.5 29.35-32.35L29.35-32.35Q29.35-31.2 28.52-30.43 27.7-29.65 26.5-29.65L26.5-29.65Q25.35-29.65 24.57-30.43 23.8-31.2 23.8-32.35ZM35.7 0L35.7-20.6Q35.7-22.3 35.4-24.7L35.4-24.7 39.15-25.2 39.7-22.05Q41.05-23.05 42.34-23.8 43.65-24.55 45.15-25.1 46.65-25.65 48.2-25.65L48.2-25.65Q50.7-25.65 52.15-24.78 53.59-23.9 54.3-21.8L54.3-21.8Q56.34-23.25 58.57-24.45 60.8-25.65 63.2-25.65L63.2-25.65Q65.05-25.65 66.34-25.18 67.65-24.7 68.44-23.6 69.25-22.5 69.59-20.7 69.94-18.9 69.94-16.2L69.94-16.2 69.94 0 65.94 0 65.94-15.75Q65.94-17.25 65.9-18.43 65.84-19.6 65.55-20.43 65.25-21.25 64.57-21.7 63.9-22.15 62.65-22.15L62.65-22.15Q61.5-22.15 60.47-21.83 59.45-21.5 58.34-20.9 57.25-20.3 54.95-18.45L54.95-18.45 54.95 0 50.95 0 50.95-15.75Q50.95-17.25 50.9-18.43 50.84-19.6 50.55-20.43 50.25-21.25 49.57-21.7 48.9-22.15 47.65-22.15L47.65-22.15Q46.34-22.15 44.95-21.6 43.55-21.05 42.3-20.3 41.05-19.55 39.7-18.55L39.7-18.55 39.7 0 35.7 0ZM77.04 11.4L77.04-19.35Q77.04-21.15 76.79-24.7L76.79-24.7 80.49-25.2 80.94-22.5Q81.94-23.35 83.02-24.03 84.09-24.7 85.37-25.18 86.64-25.65 88.09-25.65L88.09-25.65Q90.14-25.65 91.97-24.95 93.79-24.25 95.17-22.7 96.54-21.15 97.34-18.68 98.14-16.2 98.14-12.6L98.14-12.6Q98.14-8.95 97.07-6.43 95.99-3.9 94.27-2.33 92.54-0.75 90.37-0.05 88.19 0.65 85.94 0.65L85.94 0.65Q83.54 0.6 81.04 0.05L81.04 0.05 81.04 10.9 77.04 11.4ZM85.94-2.85L85.94-2.85Q88.04-2.85 89.54-3.6 91.04-4.35 92.02-5.68 92.99-7 93.44-8.72 93.89-10.45 93.89-12.4L93.89-12.4Q93.89-14.15 93.57-15.9 93.24-17.65 92.52-19.03 91.79-20.4 90.59-21.28 89.39-22.15 87.64-22.15L87.64-22.15Q86.34-22.15 85.19-21.68 84.04-21.2 83.02-20.53 81.99-19.85 81.04-19L81.04-19 81.04-3.65Q81.59-3.45 82.27-3.28 82.94-3.1 83.87-2.98 84.79-2.85 85.94-2.85ZM103.99 0L103.99-37.45 107.99-37.9 107.99 0 103.99 0ZM133.04-3.95L133.79-0.6Q132.64-0.25 131.41 0 130.19 0.25 128.71 0.45 127.24 0.65 125.64 0.65L125.64 0.65Q123.14 0.65 120.99-0.05 118.84-0.75 117.24-2.3 115.64-3.85 114.71-6.33 113.79-8.8 113.79-12.4L113.79-12.4Q113.79-15.65 114.69-18.13 115.59-20.6 117.16-22.28 118.74-23.95 120.86-24.8 122.99-25.65 125.49-25.65L125.49-25.65Q127.94-25.65 129.74-24.7 131.54-23.75 132.71-22.13 133.89-20.5 134.46-18.32 135.04-16.15 135.04-13.75L135.04-13.75 134.29-11.55 118.14-11.55Q118.14-10 118.54-8.45 118.94-6.9 119.91-5.65 120.89-4.4 122.46-3.63 124.04-2.85 126.39-2.85L126.39-2.85Q127.89-2.85 129.14-3.03 130.39-3.2 131.31-3.43 132.24-3.65 133.04-3.95L133.04-3.95ZM118.29-14.75L130.89-14.75Q130.89-15.1 130.74-16.3 130.59-17.5 130.04-18.8 129.49-20.1 128.34-21.13 127.19-22.15 125.29-22.15L125.29-22.15Q123.19-22.15 121.84-21.28 120.49-20.4 119.69-19.2 118.89-18 118.59-16.75 118.29-15.5 118.29-14.75L118.29-14.75Z" opacity="1" transform="matrix(1,0,0,1,0,0)" fill="white" class="slogan-text-1" id="SvgjsPath3260"></path></svg></g></svg></g></svg></g></svg></g></svg></g><defs><mask></mask></defs></svg><rect width="206.41213792815572" height="247.2" fill="black" stroke="none" visibility="hidden"></rect></g></mask><linearGradient x1="0.054" x2="0.941" y1="0.5" y2="0.5" id="757fc99f-96ad-4582-8d3a-d73c0c636f24"><stop stop-color="#864d25" offset="0"></stop><stop stop-color="#f1c4b3" offset="0.498"></stop><stop stop-color="#864d25" offset="1"></stop></linearGradient><rect width="206.41213792815572" height="247.2" fill="url(#757fc99f-96ad-4582-8d3a-d73c0c636f24)" mask="url(#2453fa17-4d55-471d-a56c-e08242e072be)" data-fill-palette-color="secondary"></rect><mask id="44c939bf-a492-404e-b6cb-163e6b8a5f8b"><g id="SvgjsG3283"><svg viewBox="0 0 206.41213792815572 247.2" height="247.2" width="206.41213792815572"><g><svg viewBox="0 0 311.2766466953247 372.7861541256203" height="247.2" width="206.41213792815572"><g><svg viewBox="0 0 311.2766466953247 372.7861541256203" height="372.7861541256203" width="311.2766466953247"><g id="SvgjsG3282"><svg viewBox="0 0 311.2766466953247 372.7861541256203" height="372.7861541256203" width="311.2766466953247" id="SvgjsSvg3281"><g><svg viewBox="0 0 311.2766466953247 245.672304" height="245.672304" width="311.2766466953247"><rect width="311.2766466953247" height="245.672304" x="0" y="0" opacity="1" fill="white"></rect><g transform="matrix(1,0,0,1,23.461705032,23.461705032)"><svg width="264.3532366313247" viewBox="2.53 -31.67 42.68 32.09" height="198.748893936" data-palette-color="#000000"><path d="M11.11 0.42L11.11 0.42Q8.33 0.42 6.09-0.69 3.85-1.81 2.53-3.4L2.53-3.4 3.68-8.19Q4.65-6.25 6.6-4.69 8.54-3.13 11.25-3.13L11.25-3.13Q13.72-3.13 15.33-4.69 16.94-6.25 16.94-8.54L16.94-8.54Q16.94-10.21 16.15-11.28 15.35-12.36 14.34-12.99 13.33-13.61 12.74-13.89L12.74-13.89 8.92-15.83Q8.02-16.32 6.68-17.19 5.35-18.06 4.34-19.58 3.33-21.11 3.33-23.54L3.33-23.54Q3.33-25.9 4.43-27.74 5.52-29.58 7.48-30.63 9.44-31.67 11.98-31.67L11.98-31.67Q14.48-31.67 16.39-30.78 18.3-29.9 19.38-28.96L19.38-28.96 18.23-24.17Q17.36-25.63 15.66-26.91 13.96-28.19 11.81-28.19L11.81-28.19Q9.72-28.19 8.47-26.96 7.22-25.73 7.22-23.92L7.22-23.92Q7.22-22.53 7.86-21.63 8.51-20.73 9.32-20.21 10.14-19.69 10.66-19.41L10.66-19.41 14.55-17.47Q15.24-17.12 16.3-16.49 17.36-15.87 18.4-14.84 19.44-13.82 20.14-12.34 20.83-10.87 20.83-8.78L20.83-8.78Q20.83-6.11 19.57-4.03 18.3-1.94 16.11-0.76 13.92 0.42 11.11 0.42ZM32.91-27.71L24.58-27.71 24.58-31.25 45.21-31.25 45.21-27.71 36.87-27.71 36.87 0 32.91 0 32.91-27.71Z" opacity="1" transform="matrix(1,0,0,1,0,0)" fill="black" class="wordmark-text-0" id="SvgjsPath3280"></path></svg></g></svg></g><g transform="matrix(1,0,0,1,0,257.403156516)"><svg viewBox="0 0 311.2766466953247 115.38299760962036" height="115.38299760962036" width="311.2766466953247"><g transform="matrix(1,0,0,1,0,0)"><svg width="311.2766466953247" viewBox="2.05 -37.9 132.98999999999998 49.3" height="115.38299760962036" data-palette-color="url(#757fc99f-96ad-4582-8d3a-d73c0c636f24)"></svg></g></svg></g></svg></g></svg></g></svg></g><defs><mask></mask></defs><mask><g id="SvgjsG3279"><svg viewBox="0 0 206.41213792815572 247.2" height="247.2" width="206.41213792815572"><g><svg viewBox="0 0 311.2766466953247 372.7861541256203" height="247.2" width="206.41213792815572"><g><svg viewBox="0 0 311.2766466953247 372.7861541256203" height="372.7861541256203" width="311.2766466953247"><g id="SvgjsG3278"><svg viewBox="0 0 311.2766466953247 372.7861541256203" height="372.7861541256203" width="311.2766466953247" id="SvgjsSvg3277"><g><svg viewBox="0 0 311.2766466953247 245.672304" height="245.672304" width="311.2766466953247"><rect width="311.2766466953247" height="245.672304" x="0" y="0" opacity="1" fill="black"></rect><g transform="matrix(1,0,0,1,23.461705032,23.461705032)"><svg width="264.3532366313247" viewBox="2.53 -31.67 42.68 32.09" height="198.748893936" data-palette-color="#000000"><path d="M11.11 0.42L11.11 0.42Q8.33 0.42 6.09-0.69 3.85-1.81 2.53-3.4L2.53-3.4 3.68-8.19Q4.65-6.25 6.6-4.69 8.54-3.13 11.25-3.13L11.25-3.13Q13.72-3.13 15.33-4.69 16.94-6.25 16.94-8.54L16.94-8.54Q16.94-10.21 16.15-11.28 15.35-12.36 14.34-12.99 13.33-13.61 12.74-13.89L12.74-13.89 8.92-15.83Q8.02-16.32 6.68-17.19 5.35-18.06 4.34-19.58 3.33-21.11 3.33-23.54L3.33-23.54Q3.33-25.9 4.43-27.74 5.52-29.58 7.48-30.63 9.44-31.67 11.98-31.67L11.98-31.67Q14.48-31.67 16.39-30.78 18.3-29.9 19.38-28.96L19.38-28.96 18.23-24.17Q17.36-25.63 15.66-26.91 13.96-28.19 11.81-28.19L11.81-28.19Q9.72-28.19 8.47-26.96 7.22-25.73 7.22-23.92L7.22-23.92Q7.22-22.53 7.86-21.63 8.51-20.73 9.32-20.21 10.14-19.69 10.66-19.41L10.66-19.41 14.55-17.47Q15.24-17.12 16.3-16.49 17.36-15.87 18.4-14.84 19.44-13.82 20.14-12.34 20.83-10.87 20.83-8.78L20.83-8.78Q20.83-6.11 19.57-4.03 18.3-1.94 16.11-0.76 13.92 0.42 11.11 0.42ZM32.91-27.71L24.58-27.71 24.58-31.25 45.21-31.25 45.21-27.71 36.87-27.71 36.87 0 32.91 0 32.91-27.71Z" opacity="1" transform="matrix(1,0,0,1,0,0)" fill="black" class="wordmark-text-0" id="SvgjsPath3276"></path></svg></g></svg></g><g transform="matrix(1,0,0,1,0,257.403156516)"><svg viewBox="0 0 311.2766466953247 115.38299760962036" height="115.38299760962036" width="311.2766466953247"><g transform="matrix(1,0,0,1,0,0)"><svg width="311.2766466953247" viewBox="2.05 -37.9 132.98999999999998 49.3" height="115.38299760962036" data-palette-color="url(#757fc99f-96ad-4582-8d3a-d73c0c636f24)"><path d="M17.9-24.6L17.2-21.05Q15.1-21.7 13.48-21.93 11.85-22.15 10.5-22.15L10.5-22.15Q8.75-22.15 7.58-21.3 6.4-20.45 6.4-19.1L6.4-19.1Q6.45-17.9 7.45-17.05 8.45-16.2 9.78-15.53 11.1-14.85 12.73-14.05 14.35-13.25 15.78-12.25 17.2-11.25 18.1-9.85 19-8.45 19.05-6.5L19.05-6.5Q19-4.4 18.13-3.03 17.25-1.65 15.88-0.83 14.5 0 12.9 0.33 11.3 0.65 9.9 0.65L9.9 0.65Q8.1 0.65 6.18 0.45 4.25 0.25 2.05-0.4L2.05-0.4 2.8-4Q5.05-3.4 6.9-3.13 8.75-2.85 9.95-2.85L9.95-2.85Q10.85-2.85 11.73-3.05 12.6-3.25 13.3-3.63 14-4 14.43-4.6 14.85-5.2 14.85-5.95L14.85-5.95Q14.8-7.35 13.9-8.33 13-9.3 11.58-10.08 10.15-10.85 8.53-11.63 6.9-12.4 5.48-13.43 4.05-14.45 3.1-15.88 2.15-17.3 2.15-19.4L2.15-19.4Q2.15-20.9 2.93-22.08 3.7-23.25 4.93-24.03 6.15-24.8 7.63-25.23 9.1-25.65 10.5-25.65L10.5-25.65Q11.95-25.65 13.75-25.43 15.55-25.2 17.9-24.6L17.9-24.6ZM24.45 0L24.45-25.2 28.45-25.65 28.45 0 24.45 0ZM23.8-32.35L23.8-32.35Q23.8-33.5 24.57-34.27 25.35-35.05 26.5-35.05L26.5-35.05Q27.7-35.05 28.52-34.27 29.35-33.5 29.35-32.35L29.35-32.35Q29.35-31.2 28.52-30.43 27.7-29.65 26.5-29.65L26.5-29.65Q25.35-29.65 24.57-30.43 23.8-31.2 23.8-32.35ZM35.7 0L35.7-20.6Q35.7-22.3 35.4-24.7L35.4-24.7 39.15-25.2 39.7-22.05Q41.05-23.05 42.34-23.8 43.65-24.55 45.15-25.1 46.65-25.65 48.2-25.65L48.2-25.65Q50.7-25.65 52.15-24.78 53.59-23.9 54.3-21.8L54.3-21.8Q56.34-23.25 58.57-24.45 60.8-25.65 63.2-25.65L63.2-25.65Q65.05-25.65 66.34-25.18 67.65-24.7 68.44-23.6 69.25-22.5 69.59-20.7 69.94-18.9 69.94-16.2L69.94-16.2 69.94 0 65.94 0 65.94-15.75Q65.94-17.25 65.9-18.43 65.84-19.6 65.55-20.43 65.25-21.25 64.57-21.7 63.9-22.15 62.65-22.15L62.65-22.15Q61.5-22.15 60.47-21.83 59.45-21.5 58.34-20.9 57.25-20.3 54.95-18.45L54.95-18.45 54.95 0 50.95 0 50.95-15.75Q50.95-17.25 50.9-18.43 50.84-19.6 50.55-20.43 50.25-21.25 49.57-21.7 48.9-22.15 47.65-22.15L47.65-22.15Q46.34-22.15 44.95-21.6 43.55-21.05 42.3-20.3 41.05-19.55 39.7-18.55L39.7-18.55 39.7 0 35.7 0ZM77.04 11.4L77.04-19.35Q77.04-21.15 76.79-24.7L76.79-24.7 80.49-25.2 80.94-22.5Q81.94-23.35 83.02-24.03 84.09-24.7 85.37-25.18 86.64-25.65 88.09-25.65L88.09-25.65Q90.14-25.65 91.97-24.95 93.79-24.25 95.17-22.7 96.54-21.15 97.34-18.68 98.14-16.2 98.14-12.6L98.14-12.6Q98.14-8.95 97.07-6.43 95.99-3.9 94.27-2.33 92.54-0.75 90.37-0.05 88.19 0.65 85.94 0.65L85.94 0.65Q83.54 0.6 81.04 0.05L81.04 0.05 81.04 10.9 77.04 11.4ZM85.94-2.85L85.94-2.85Q88.04-2.85 89.54-3.6 91.04-4.35 92.02-5.68 92.99-7 93.44-8.72 93.89-10.45 93.89-12.4L93.89-12.4Q93.89-14.15 93.57-15.9 93.24-17.65 92.52-19.03 91.79-20.4 90.59-21.28 89.39-22.15 87.64-22.15L87.64-22.15Q86.34-22.15 85.19-21.68 84.04-21.2 83.02-20.53 81.99-19.85 81.04-19L81.04-19 81.04-3.65Q81.59-3.45 82.27-3.28 82.94-3.1 83.87-2.98 84.79-2.85 85.94-2.85ZM103.99 0L103.99-37.45 107.99-37.9 107.99 0 103.99 0ZM133.04-3.95L133.79-0.6Q132.64-0.25 131.41 0 130.19 0.25 128.71 0.45 127.24 0.65 125.64 0.65L125.64 0.65Q123.14 0.65 120.99-0.05 118.84-0.75 117.24-2.3 115.64-3.85 114.71-6.33 113.79-8.8 113.79-12.4L113.79-12.4Q113.79-15.65 114.69-18.13 115.59-20.6 117.16-22.28 118.74-23.95 120.86-24.8 122.99-25.65 125.49-25.65L125.49-25.65Q127.94-25.65 129.74-24.7 131.54-23.75 132.71-22.13 133.89-20.5 134.46-18.32 135.04-16.15 135.04-13.75L135.04-13.75 134.29-11.55 118.14-11.55Q118.14-10 118.54-8.45 118.94-6.9 119.91-5.65 120.89-4.4 122.46-3.63 124.04-2.85 126.39-2.85L126.39-2.85Q127.89-2.85 129.14-3.03 130.39-3.2 131.31-3.43 132.24-3.65 133.04-3.95L133.04-3.95ZM118.29-14.75L130.89-14.75Q130.89-15.1 130.74-16.3 130.59-17.5 130.04-18.8 129.49-20.1 128.34-21.13 127.19-22.15 125.29-22.15L125.29-22.15Q123.19-22.15 121.84-21.28 120.49-20.4 119.69-19.2 118.89-18 118.59-16.75 118.29-15.5 118.29-14.75L118.29-14.75Z" opacity="1" transform="matrix(1,0,0,1,0,0)" fill="black" class="slogan-text-1" id="SvgjsPath3275"></path></svg></g></svg></g></svg></g></svg></g></svg></g><defs><mask></mask></defs></svg><rect width="206.41213792815572" height="247.2" fill="black" stroke="none" visibility="hidden"></rect></g></mask></svg><rect width="206.41213792815572" height="247.2" fill="black" stroke="none" visibility="hidden"></rect></g></mask><linearGradient x1="0.054" x2="0.941" y1="0.5" y2="0.5" id="182dfa60-504c-478e-8099-0d4192f6113b"><stop stop-color="#864d25" offset="0"></stop><stop stop-color="#f1c4b3" offset="0.498"></stop><stop stop-color="#864d25" offset="1"></stop></linearGradient></svg><rect width="206.41213792815572" height="247.2" fill="none" stroke="none" visibility="hidden"></rect></g></svg></g></svg>