<svg width="150" height="50" viewBox="0 0 150 50" fill="none" xmlns="http://www.w3.org/2000/svg">
<g id="da-dang-ky-bo-cong-thuong.svg" clip-path="url(#clip0_174_3346)">
<g id="Group">
<path id="Vector" fill-rule="evenodd" clip-rule="evenodd" d="M19.3016 1.81482C23.8307 1.09497 28.5397 1.81482 32.6489 3.85439C37.0579 5.98395 40.7472 9.64319 42.9967 14.0523C42.6068 14.2022 42.2469 14.4422 41.9469 14.7721C34.9284 21.8807 27.9398 29.0192 20.9213 36.1277C17.412 32.5584 13.9027 28.9892 10.3935 25.4499C10.0036 25.09 9.67362 24.6101 9.16373 24.4301C8.38389 24.0702 7.3941 24.2502 6.79422 24.88C6.07437 25.5999 5.38451 26.3197 4.66466 27.0396C3.91482 27.8794 3.9748 29.2891 4.78464 30.039C9.49366 34.838 14.2027 39.607 18.9117 44.406C19.2716 44.7659 19.6016 45.1858 20.1115 45.3658C20.8613 45.6657 21.8211 45.5157 22.391 44.9159C30.0694 37.1475 37.7178 29.3491 45.3662 21.5807C46.0561 26.4697 45.1862 31.5686 42.8767 35.9177C40.7472 39.9969 37.3879 43.4162 33.3687 45.5457C29.0496 47.8853 24.0106 48.7251 19.1816 47.9452C13.8428 47.1054 8.8338 44.256 5.35452 40.0569C2.59509 36.7576 0.765471 32.6784 0.135602 28.3893C-0.554255 23.8602 0.135602 19.1212 2.0852 14.9521C3.37493 12.1627 5.20455 9.64319 7.45408 7.60361C10.7534 4.51426 14.9225 2.50467 19.3016 1.81482ZM23.1708 6.94375C22.271 7.33367 22.121 8.56342 22.451 9.40324C22.7809 10.3031 24.0706 10.543 24.7305 9.85315C25.2404 9.31326 25.2704 8.44344 25.0604 7.75358C24.7905 7.00374 23.8607 6.64381 23.1708 6.94375ZM25.8403 6.94375C25.9902 8.08352 26.1402 9.25327 26.2602 10.393C26.5301 10.453 26.8301 10.513 27.13 10.573C27.6999 9.55321 28.2998 8.53342 28.8396 7.51363C28.5397 7.45365 28.2698 7.39366 27.9698 7.33367C27.6099 8.08352 27.22 8.83336 26.89 9.5832C26.8601 8.74338 26.7701 7.90355 26.7401 7.06373C26.4401 7.03373 26.1402 6.97375 25.8403 6.94375ZM19.4216 7.33367C18.8517 7.6636 18.7017 8.44344 18.8517 9.07331C18.9417 9.67319 19.2716 10.333 19.9015 10.483C20.5914 10.633 21.3412 10.363 21.7911 9.82315C21.7011 9.37325 21.6111 8.89335 21.5212 8.44344C21.1012 8.53342 20.6513 8.6234 20.2014 8.71338C20.2314 8.89335 20.2614 9.07331 20.2914 9.25327C20.4714 9.22328 20.6513 9.19328 20.8613 9.16329C20.8913 9.34325 20.9213 9.52322 20.9213 9.73317C20.6813 9.82315 20.4114 9.97312 20.1414 9.85315C19.8715 9.73317 19.7515 9.40324 19.6915 9.1333C19.6016 8.77337 19.5416 8.38345 19.6615 8.05352C19.8115 7.78358 20.0815 7.72359 20.3514 7.75358C20.4714 7.87356 20.5914 7.99353 20.6813 8.1735C20.9213 8.1435 21.1912 8.08352 21.4312 8.02353C21.3112 7.75358 21.1912 7.45365 20.9213 7.30368C20.5014 7.00374 19.8715 7.09372 19.4216 7.33367ZM30.3993 8.1435C30.2494 9.28327 30.1294 10.453 29.9794 11.5928C30.2494 11.7128 30.4893 11.8627 30.7592 11.9827C31.5691 11.1429 32.3789 10.3031 33.1587 9.46323C32.8888 9.31326 32.6189 9.19329 32.3489 9.07331C31.809 9.70318 31.2991 10.333 30.7592 10.9629C30.9392 10.1531 31.0592 9.34325 31.2092 8.50343C30.9692 8.35346 30.6993 8.20349 30.3993 8.1435ZM14.2027 9.37325C14.6826 10.363 15.1625 11.3828 15.6424 12.3726C16.3022 12.0427 16.9921 11.7128 17.652 11.3528C17.562 11.1729 17.472 10.9629 17.382 10.783C16.9321 10.9929 16.5122 11.2029 16.0923 11.4128C15.9723 11.1729 15.8823 10.9629 15.7624 10.723C16.1223 10.543 16.4822 10.333 16.8721 10.1531C16.7821 9.97312 16.6922 9.79316 16.6022 9.6132C16.2423 9.79316 15.8523 9.97312 15.4924 10.1531C15.3724 9.94313 15.3125 9.73317 15.2225 9.52322C15.6724 9.31326 16.0923 9.1033 16.5422 8.86335C16.4522 8.68339 16.3622 8.47343 16.2723 8.29347C15.5524 8.68339 14.8925 9.07331 14.2027 9.37325ZM12.643 10.423C13.0629 10.9629 13.4528 11.5328 13.8428 12.0727C13.1529 11.7428 12.433 11.4428 11.7132 11.1129C11.5032 11.2629 11.2933 11.4428 11.0833 11.5928C11.7432 12.4926 12.3731 13.3624 13.0329 14.2622C13.2429 14.0823 13.4528 13.9323 13.6628 13.7823C13.2729 13.2424 12.883 12.6726 12.463 12.1327C13.1529 12.4626 13.8727 12.7625 14.5626 13.0925C14.7726 12.9425 14.9825 12.7625 15.1925 12.6126C14.5626 11.7128 13.9027 10.8429 13.2429 9.94313C13.0629 10.0931 12.853 10.2731 12.643 10.423ZM33.9386 9.97312C33.3087 10.8729 32.6489 11.7428 31.989 12.6426C32.1989 12.8225 32.4089 12.9725 32.6189 13.1525C33.0088 12.5826 33.4287 12.0427 33.8186 11.5028C33.6986 12.2826 33.6386 13.0625 33.5187 13.8423C33.7286 14.0223 33.9386 14.2022 34.1485 14.3522C34.8084 13.4524 35.4683 12.5826 36.0981 11.6828C35.8882 11.5328 35.6782 11.3528 35.4683 11.2029C35.0783 11.7428 34.6584 12.2826 34.2685 12.8525C34.3585 12.0727 34.4785 11.2928 34.5685 10.513C34.3585 10.2731 34.1485 10.1231 33.9386 9.97312ZM28.2698 10.2431C27.9398 10.3031 27.9098 10.8729 28.2398 10.9629C28.5097 11.1729 28.8996 10.8729 28.8696 10.573C28.8096 10.3031 28.5097 10.1831 28.2698 10.2431ZM18.2518 10.363C17.9819 10.393 17.7719 10.693 17.8919 10.9629C18.0119 11.2928 18.4918 11.2329 18.6418 10.9629C18.8517 10.693 18.5518 10.2731 18.2518 10.363ZM9.82359 12.8525C10.5734 13.6624 11.3533 14.4422 12.1331 15.222C12.3131 15.0421 12.493 14.8621 12.673 14.6522C11.8932 13.8723 11.1433 13.0625 10.3635 12.2826C10.1835 12.4926 10.0036 12.6726 9.82359 12.8525ZM7.93398 15.1021C8.77381 15.7919 9.64363 16.4818 10.5134 17.1716C10.9634 16.6017 11.4133 16.0019 11.8632 15.432C11.7132 15.312 11.5332 15.192 11.3533 15.0421C11.0833 15.402 10.8134 15.7619 10.5134 16.1218C9.82359 15.552 9.13373 15.0121 8.44388 14.4422C8.26392 14.6821 8.11395 14.8921 7.93398 15.1021ZM7.27412 16.0919C7.15415 16.3318 7.03417 16.5718 6.9142 16.8117C7.51407 17.1116 8.11395 17.4416 8.68383 17.7715C7.90399 17.7715 7.15415 17.8315 6.37431 17.8315C6.25433 18.0714 6.13436 18.3114 6.01438 18.5513C6.97418 19.0612 7.93398 19.6011 8.89378 20.081C9.01376 19.8411 9.13373 19.6011 9.25371 19.3612C8.65383 19.0312 8.05396 18.7313 7.45408 18.4014C8.23392 18.4314 9.01376 18.3414 9.7936 18.3414C9.91357 18.1014 10.0335 17.8615 10.1535 17.6215C9.22371 17.1116 8.26392 16.6017 7.27412 16.0919ZM6.22434 19.9311C5.26454 20.111 4.81463 21.4607 5.4445 22.2106C5.9244 22.7505 6.73423 22.9904 7.42409 22.8704C8.41388 22.6905 8.8338 21.2208 8.11395 20.5309C7.63405 20.021 6.8842 19.8111 6.22434 19.9311Z" fill="#BA7F23"/>
<path id="Vector_2" fill-rule="evenodd" clip-rule="evenodd" d="M23.5007 7.54501C23.7706 7.45503 24.1006 7.54501 24.2205 7.84494C24.4005 8.29485 24.3705 8.83474 24.2205 9.28465C24.1006 9.64457 23.6207 9.79454 23.3507 9.5246C23.0808 9.22466 23.0808 8.77475 23.1108 8.38483C23.1408 8.0549 23.2008 7.66498 23.5007 7.54501Z" fill="#BA7F23"/>
<path id="Vector_3" fill-rule="evenodd" clip-rule="evenodd" d="M62.0728 13.2734C62.7326 13.3034 63.4225 13.2134 64.0823 13.3634C64.5922 13.4834 64.8622 14.0233 64.8622 14.5332C64.8622 17.1426 64.8622 19.7521 64.8622 22.3616C64.8922 22.8415 64.6222 23.3513 64.1723 23.5013C63.4825 23.6813 62.7926 23.5913 62.1027 23.6213C62.1027 22.2116 62.1027 20.8319 62.1027 19.4222C62.6426 19.4222 63.1825 19.4222 63.7224 19.4222C63.7224 18.8223 63.7224 18.1924 63.7224 17.5925C63.1825 17.5925 62.6426 17.5925 62.1027 17.5925C62.0728 16.1528 62.0728 14.7131 62.0728 13.2734Z" fill="#BA7F23"/>
<path id="Vector_4" fill-rule="evenodd" clip-rule="evenodd" d="M85.3479 13.2734C86.0078 13.3034 86.6976 13.2134 87.3575 13.3634C87.8674 13.4834 88.1673 14.0233 88.1373 14.5332C88.1373 17.1426 88.1373 19.7521 88.1373 22.3616C88.1673 22.8415 87.9274 23.3513 87.4475 23.5013C86.7576 23.7113 86.0678 23.5913 85.3479 23.6213C85.3479 22.2116 85.3479 20.8319 85.3479 19.4222C85.8878 19.4222 86.4277 19.4222 86.9676 19.4222C86.9676 18.8223 86.9676 18.1924 86.9676 17.5925C86.4277 17.5925 85.8878 17.5925 85.3479 17.5925C85.3479 16.1528 85.3479 14.7131 85.3479 13.2734Z" fill="#BA7F23"/>
<path id="Vector_5" fill-rule="evenodd" clip-rule="evenodd" d="M71.7607 20.9199C72.1807 18.5204 72.6006 16.0909 73.0205 13.6914C73.4404 16.0909 73.8603 18.5204 74.2802 20.9199C73.4104 20.9199 72.5706 20.9199 71.7607 20.9199Z" fill="#BA7F23"/>
<path id="Vector_6" fill-rule="evenodd" clip-rule="evenodd" d="M94.9458 21.0097C95.3657 18.5803 95.7856 16.1808 96.2055 13.7812C96.6255 16.2107 97.0454 18.6102 97.4653 21.0097H94.9458Z" fill="#BA7F23"/>
<path id="Vector_7" fill-rule="evenodd" clip-rule="evenodd" d="M6.10427 20.7399C6.61416 20.6499 7.18404 20.7699 7.63395 21.0998C7.99387 21.3397 7.8439 22.0296 7.394 22.0596C6.9141 22.1196 6.4342 21.9396 6.01428 21.6997C5.65436 21.4897 5.74434 20.8898 6.10427 20.7399Z" fill="#BA7F23"/>
<path id="Vector_8" fill-rule="evenodd" clip-rule="evenodd" d="M60.543 33.6677C61.2328 33.6976 61.9827 33.5777 62.6725 33.7876C63.4824 34.0876 63.4524 35.4373 62.6725 35.7972C62.0127 36.0972 61.2328 35.9172 60.543 35.9772C60.543 35.1973 60.543 34.4475 60.543 33.6677Z" fill="#BA7F23"/>
<path id="Vector_9" fill-rule="evenodd" clip-rule="evenodd" d="M67.8316 33.6678C68.4914 33.4878 69.3013 33.6978 69.7212 34.2976C70.1711 34.9275 70.2311 35.7073 70.2011 36.4572C70.2311 37.207 70.1711 38.0169 69.7512 38.6467C69.1513 39.6065 67.5916 39.6065 66.9618 38.7067C66.5418 38.1368 66.4219 37.387 66.4519 36.6671C66.4519 36.0373 66.4219 35.4074 66.6618 34.8075C66.8418 34.2676 67.2617 33.8177 67.8316 33.6678Z" fill="#BA7F23"/>
<path id="Vector_10" fill-rule="evenodd" clip-rule="evenodd" d="M83.5483 33.6678C84.2082 33.4878 85.018 33.6978 85.408 34.2976C85.8579 34.9275 85.9179 35.7373 85.8879 36.4872C85.9179 37.237 85.8579 38.0469 85.438 38.6767C84.8381 39.6365 83.2784 39.6365 82.6485 38.7367C82.2286 38.1668 82.1086 37.417 82.1386 36.7271C82.1386 36.0973 82.1086 35.4374 82.3486 34.8675C82.5586 34.2676 83.0085 33.8177 83.5483 33.6678Z" fill="#BA7F23"/>
<path id="Vector_11" fill-rule="evenodd" clip-rule="evenodd" d="M126.049 33.6998C126.739 33.4599 127.609 33.6398 128.029 34.2697C128.509 34.9295 128.539 35.7994 128.509 36.5792C128.539 37.329 128.449 38.1389 127.999 38.7388C127.339 39.6386 125.779 39.5786 125.21 38.6188C124.67 37.779 124.73 36.7292 124.76 35.7994C124.82 34.9595 125.18 33.9997 126.049 33.6998Z" fill="#BA7F23"/>
<path id="Vector_12" fill-rule="evenodd" clip-rule="evenodd" d="M60.543 36.7594C61.1428 36.7594 61.7427 36.7294 62.3726 36.7594C62.8525 36.7894 63.3324 37.1194 63.4224 37.6292C63.5723 38.1991 63.3924 38.949 62.7925 39.1889C62.0727 39.4589 61.2928 39.3089 60.573 39.3389C60.543 38.4691 60.543 37.5992 60.543 36.7594Z" fill="#BA7F23"/>
<path id="Vector_13" fill-rule="evenodd" clip-rule="evenodd" d="M147.825 7.81164C146.865 7.06179 145.665 6.67188 144.496 6.67188C111.772 6.67188 79.0193 6.67188 46.2961 6.67188C48.9655 10.2711 50.8251 14.5302 51.665 18.9693C52.6248 23.9783 52.3248 29.2272 50.7351 34.0562C49.6854 37.3255 48.0957 40.3849 46.0261 43.0843C78.8093 43.0843 111.593 43.0843 144.346 43.0843C145.425 43.1143 146.505 42.8144 147.405 42.2145C148.935 41.2547 149.955 39.4851 150.045 37.6554V12.0708C149.985 10.4211 149.145 8.80143 147.825 7.81164ZM59.5533 29.4072C59.5533 29.1372 59.5533 28.8673 59.5533 28.5973H143.146C143.146 28.8673 143.146 29.1372 143.146 29.4072H59.5533ZM139.637 8.26154C140.507 8.26154 141.376 8.26154 142.276 8.26154C141.466 9.01139 140.626 9.79123 139.817 10.5411C139.217 10.5411 138.617 10.5411 138.017 10.5411C138.557 9.79123 139.097 9.01139 139.637 8.26154ZM137.447 11.2309C138.107 13.4205 138.797 15.58 139.457 17.7696C140.117 15.58 140.806 13.3905 141.466 11.2309C142.306 11.2309 143.176 11.2309 144.016 11.2309C142.936 14.4103 141.796 17.6196 140.716 20.7989C140.656 22.4186 140.716 24.0683 140.686 25.6879C139.787 25.6879 138.917 25.6879 138.017 25.6879C138.017 24.1582 138.017 22.6586 138.017 21.1289C138.047 20.7989 137.897 20.529 137.777 20.2291C136.757 17.2297 135.708 14.2303 134.688 11.2309C135.588 11.2009 136.517 11.2009 137.447 11.2309ZM125.6 11.2309C126.499 11.2309 127.369 11.2309 128.269 11.2309C128.269 13.3305 128.269 15.4001 128.269 17.4996C129.379 15.4001 130.549 13.3305 131.688 11.2309C132.588 11.2309 133.458 11.2309 134.358 11.2309C133.128 13.3605 131.928 15.52 130.699 17.6496C131.928 20.319 133.158 22.9885 134.358 25.6879C133.458 25.6879 132.528 25.6879 131.628 25.6879C130.789 23.7683 129.919 21.8487 129.079 19.9291C128.839 20.379 128.539 20.7689 128.299 21.2189C128.269 22.6885 128.299 24.1882 128.299 25.6579C127.399 25.6579 126.529 25.6579 125.63 25.6579C125.6 20.8589 125.6 16.0299 125.6 11.2309ZM112.762 12.6106C113.332 11.6808 114.382 11.2309 115.402 11.1409C116.392 11.051 117.441 11.081 118.341 11.5009C119.061 11.8308 119.631 12.4607 119.901 13.2405C120.231 14.1703 120.111 15.1601 120.141 16.1499C119.301 16.1499 118.461 16.1499 117.621 16.1499C117.591 15.49 117.651 14.8002 117.591 14.1403C117.381 12.7906 114.982 12.8806 114.952 14.2903C114.922 16.8398 114.952 19.3892 114.922 21.9387C114.922 22.3586 114.892 22.8085 115.102 23.1984C115.282 23.5284 115.642 23.6783 116.002 23.7383C116.452 23.7983 116.961 23.7383 117.321 23.4084C117.621 23.1085 117.651 22.6886 117.651 22.2986C117.651 21.4288 117.651 20.559 117.651 19.6892C117.261 19.6892 116.871 19.6892 116.452 19.6892C116.452 18.9993 116.452 18.3095 116.452 17.6196C117.681 17.6196 118.941 17.6196 120.171 17.6196C120.171 19.1793 120.171 20.739 120.171 22.2686C120.171 23.1984 119.901 24.1882 119.211 24.8481C118.401 25.6279 117.201 25.8379 116.122 25.8079C115.072 25.8079 113.902 25.568 113.152 24.7581C112.492 24.0683 112.282 23.1085 112.282 22.1787C112.282 20.1391 112.282 18.0995 112.282 16.0299C112.222 14.8602 112.132 13.6004 112.762 12.6106ZM105.504 11.2009C106.404 14.0503 107.273 16.8998 108.173 19.7492C108.173 16.8998 108.173 14.0503 108.173 11.2009C108.953 11.2009 109.763 11.2009 110.543 11.2009C110.543 15.88 110.543 20.529 110.543 25.208C110.513 25.358 110.573 25.538 110.513 25.6579C109.613 25.6879 108.713 25.6579 107.813 25.6579C106.734 22.1787 105.624 18.6994 104.544 15.2201C104.544 18.6994 104.544 22.1787 104.544 25.6579C103.734 25.6579 102.954 25.6579 102.144 25.6579C102.144 20.8289 102.144 16.0299 102.144 11.2009C103.284 11.2009 104.394 11.2009 105.504 11.2009ZM95.1859 8.20156C95.2459 8.50149 95.2759 8.89141 95.6058 9.04138C96.0557 9.22135 96.5656 9.22135 96.9855 9.04138C97.3155 8.92141 97.3755 8.53149 97.4055 8.20156C97.9453 8.20156 98.4552 8.20156 98.9951 8.20156C99.0251 9.13136 98.4852 10.0912 97.5854 10.3611C96.7156 10.6311 95.7558 10.6311 94.916 10.3311C94.0462 10.0312 93.6262 9.07138 93.6262 8.20156C94.1361 8.17156 94.646 8.20156 95.1859 8.20156ZM94.3761 11.2009C95.6658 11.2009 96.9556 11.2009 98.2753 11.2009C99.1751 16.0299 100.075 20.8289 100.945 25.6579C100.045 25.6579 99.1751 25.6579 98.2753 25.6579C98.1253 24.7881 97.9753 23.9183 97.8254 23.0485C96.7456 23.0485 95.6658 23.0485 94.616 23.0485C94.4661 23.9183 94.3161 24.7881 94.1661 25.6579C93.3563 25.6579 92.5465 25.6579 91.7066 25.6579C92.5765 20.8589 93.4763 16.0299 94.3761 11.2009ZM82.6785 17.5896C82.6785 15.46 82.6785 13.3305 82.6785 11.2309C84.1782 11.2309 85.7079 11.2309 87.2076 11.2309C88.2274 11.2609 89.3371 11.5309 90.027 12.3107C90.6269 13.0006 90.8068 13.9604 90.8068 14.8602C90.8068 16.8698 90.8068 18.8793 90.8068 20.8889C90.8068 21.6388 90.8368 22.4186 90.6868 23.1385C90.5369 23.8583 90.147 24.5782 89.5471 24.9981C88.7673 25.538 87.7775 25.6579 86.8776 25.6879C85.4679 25.6879 84.0882 25.6879 82.6785 25.6879C82.6785 23.5884 82.6785 21.5188 82.6785 19.4192C82.3786 19.4192 82.1086 19.4192 81.8087 19.4192C81.8087 18.8194 81.8087 18.1895 81.8087 17.5896C82.1086 17.5896 82.4086 17.5896 82.6785 17.5896ZM71.3709 8.38152C72.1207 8.17156 72.8706 8.5015 73.5604 8.77144C74.1003 9.01139 74.8501 8.86142 75.1201 8.26154C75.54 8.53149 75.9599 8.77144 76.4098 9.04138C76.1399 9.73124 75.57 10.3011 74.8501 10.4211C74.1303 10.6011 73.4104 10.3011 72.7806 10.0312C72.2107 9.79123 71.4608 9.88121 71.1909 10.5111C70.771 10.2411 70.3211 10.0012 69.9012 9.73124C70.1411 9.07138 70.651 8.50149 71.3709 8.38152ZM71.1909 11.1409C72.4806 11.1409 73.7704 11.1409 75.0601 11.1409C75.9599 15.9699 76.8597 20.7989 77.7295 25.6279C76.8297 25.6279 75.9599 25.6279 75.0601 25.6279C74.8801 24.7581 74.7602 23.8883 74.6102 23.0185C73.5304 23.0185 72.4506 23.0185 71.4009 23.0185C71.2509 23.8883 71.1309 24.7881 70.921 25.6279C70.1111 25.6579 69.3013 25.6279 68.4915 25.6279C69.3913 20.7989 70.2911 15.9699 71.1909 11.1409ZM59.4033 17.5896C59.4033 15.46 59.4033 13.3305 59.4033 11.2309C60.903 11.2309 62.4027 11.2309 63.9324 11.2309C64.9522 11.2609 66.062 11.5309 66.7518 12.3407C67.3517 13.0306 67.5317 13.9904 67.5317 14.8902C67.5317 17.2297 67.5317 19.5992 67.5317 21.9387C67.5317 22.8685 67.3817 23.8883 66.7518 24.6082C66.062 25.418 64.9522 25.6879 63.9324 25.7179C62.4327 25.7179 60.933 25.7179 59.4033 25.7179C59.4033 23.6483 59.4033 21.5488 59.4033 19.4792C59.1034 19.4792 58.8335 19.4792 58.5335 19.4792C58.5335 18.8793 58.5335 18.2495 58.5335 17.6496C58.8035 17.5896 59.1034 17.5896 59.4033 17.5896Z" fill="#BA7F23"/>
<g id="Group_2">
<path id="Vector_14" d="M59.8232 39.816V32.4375H61.8328C62.5227 32.4375 63.0626 32.6175 63.4225 32.9474C63.8124 33.2773 63.9924 33.7872 63.9924 34.4471C63.9924 34.807 63.9024 35.1069 63.7224 35.3769C63.5425 35.6468 63.3025 35.8568 63.0026 35.9768C63.3925 36.0667 63.6924 36.2767 63.9024 36.6066C64.1124 36.9366 64.2323 37.3265 64.2323 37.7764C64.2323 38.4662 64.0524 38.9761 63.6624 39.3361C63.2725 39.696 62.7626 39.876 62.1028 39.876H59.8232V39.816ZM60.843 35.6168H61.9528C62.2827 35.6168 62.5527 35.5269 62.7326 35.3169C62.9126 35.1069 63.0026 34.807 63.0026 34.4171C63.0026 33.9972 62.9126 33.6972 62.7026 33.4873C62.4927 33.2773 62.2227 33.1873 61.8328 33.1873H60.813V35.6168H60.843ZM60.843 36.3667V39.0361H62.1328C62.4927 39.0361 62.7626 38.9162 62.9726 38.7062C63.1526 38.4662 63.2725 38.1663 63.2725 37.7464C63.2725 37.3265 63.1825 36.9966 63.0326 36.7566C62.8526 36.5167 62.6127 36.3967 62.2527 36.3967H60.843V36.3667Z" fill="white"/>
<path id="Vector_15" d="M70.7711 37.1472C70.7711 38.017 70.5611 38.7069 70.1112 39.1868C69.6613 39.6667 69.0614 39.9066 68.3116 39.9066C67.5617 39.9066 66.9918 39.6667 66.5419 39.1868C66.122 38.7069 65.8821 38.017 65.8821 37.1472V35.1076C65.8821 34.2378 66.092 33.5479 66.5419 33.068C66.9918 32.5881 67.5617 32.3182 68.2816 32.3182C69.0314 32.3182 69.6313 32.5581 70.0512 33.068C70.5011 33.5479 70.7111 34.2378 70.7111 35.1076V37.1472H70.7711ZM69.7813 35.1076C69.7813 34.4777 69.6613 33.9678 69.3914 33.6379C69.1514 33.308 68.7915 33.128 68.3116 33.128C67.8617 33.128 67.5017 33.308 67.2618 33.6379C67.0218 33.9678 66.9019 34.4477 66.9019 35.1076V37.1472C66.9019 37.807 67.0218 38.2869 67.2618 38.6169C67.5017 38.9468 67.8617 39.1268 68.3116 39.1268C68.7615 39.1268 69.1214 38.9468 69.3914 38.6169C69.6313 38.2869 69.7813 37.777 69.7813 37.1472V35.1076ZM69.7813 31.4784V31.5983H68.9714L68.3716 30.8185L67.7717 31.5983H66.9619V31.4784L68.0716 30.3086H68.6715L69.7813 31.4784ZM68.9114 41.5263H67.8017V40.5065H68.9414V41.5263H68.9114Z" fill="white"/>
<path id="Vector_16" d="M79.979 37.5653V37.5953C79.979 38.3452 79.7691 38.915 79.4091 39.305C79.0192 39.6949 78.4793 39.9048 77.7895 39.9048C77.0696 39.9048 76.4997 39.6649 76.0798 39.185C75.6599 38.7051 75.45 38.0152 75.45 37.1454V35.1058C75.45 34.236 75.6599 33.5462 76.0798 33.0663C76.4997 32.5864 77.0696 32.3164 77.7595 32.3164C78.4793 32.3164 79.0192 32.5264 79.4091 32.9163C79.7991 33.3062 79.979 33.9061 80.009 34.6559V34.6859H79.0492C79.0492 34.146 78.9292 33.7561 78.7493 33.4862C78.5393 33.2162 78.2394 33.0962 77.8195 33.0962C77.3995 33.0962 77.0696 33.2762 76.8597 33.6061C76.6197 33.9361 76.5297 34.446 76.5297 35.0758V37.1454C76.5297 37.7753 76.6497 38.2852 76.8896 38.6151C77.1296 38.945 77.4595 39.125 77.8794 39.125C78.2994 39.125 78.5993 39.005 78.8093 38.7651C78.9892 38.5251 79.1092 38.1052 79.1092 37.5653H79.979Z" fill="white"/>
<path id="Vector_17" d="M86.4578 37.1472C86.4578 38.017 86.2479 38.7069 85.798 39.1868C85.3481 39.6667 84.7482 39.9066 83.9983 39.9066C83.2485 39.9066 82.6786 39.6667 82.2287 39.1868C81.8088 38.7069 81.5688 38.017 81.5688 37.1472V35.1076C81.5688 34.2378 81.7788 33.5479 82.2287 33.068C82.6786 32.5881 83.2485 32.3182 83.9683 32.3182C84.7182 32.3182 85.3181 32.5581 85.738 33.068C86.1879 33.5479 86.3978 34.2378 86.3978 35.1076V37.1472H86.4578ZM85.438 35.1076C85.438 34.4777 85.3181 33.9678 85.0481 33.6379C84.8082 33.308 84.4482 33.128 83.9683 33.128C83.5184 33.128 83.1585 33.308 82.9186 33.6379C82.6786 33.9678 82.5586 34.4477 82.5586 35.1076V37.1472C82.5586 37.807 82.6786 38.2869 82.9186 38.6169C83.1585 38.9468 83.5184 39.1268 83.9683 39.1268C84.4183 39.1268 84.7782 38.9468 85.0481 38.6169C85.3181 38.2869 85.438 37.777 85.438 37.1472V35.1076ZM85.438 31.4784V31.5983H84.6282L84.0283 30.8185L83.4285 31.5983H82.6186V31.4784L83.7284 30.3086H84.3283L85.438 31.4784Z" fill="white"/>
<path id="Vector_18" d="M93.1764 39.816H92.1866L89.4272 34.3271H89.3972V39.816H88.3774V32.4375H89.3972L92.1567 37.9264H92.1866V32.4675H93.1764V39.816Z" fill="white"/>
<path id="Vector_19" d="M99.925 38.7651C99.7451 39.065 99.4751 39.3349 99.1152 39.5749C98.7553 39.8148 98.2754 39.9348 97.6755 39.9348C96.9256 39.9348 96.2958 39.6949 95.8459 39.215C95.396 38.7351 95.156 38.0752 95.156 37.2054V35.0158C95.156 34.146 95.366 33.4862 95.8159 33.0363C96.2658 32.5564 96.8356 32.3164 97.5855 32.3164C98.3353 32.3164 98.8752 32.4964 99.2951 32.8863C99.6851 33.2762 99.895 33.7861 99.925 34.476V34.506H98.9652C98.9352 34.056 98.8152 33.6961 98.6053 33.4562C98.3953 33.2162 98.0654 33.0962 97.6155 33.0962C97.1656 33.0962 96.8357 33.2462 96.5657 33.5761C96.2958 33.9061 96.1758 34.356 96.1758 34.9859V37.2054C96.1758 37.8353 96.3258 38.3152 96.5957 38.6451C96.8656 38.975 97.2556 39.155 97.7055 39.155C98.0354 39.155 98.3053 39.095 98.5153 38.975C98.6953 38.8551 98.8452 38.7051 98.9352 38.5251V36.8455H97.7055V36.0956H99.955V38.7651H99.925Z" fill="white"/>
<path id="Vector_20" d="M109.223 33.2173H107.363V39.816H106.344V33.2173H104.484V32.4375H109.193V33.2173H109.223Z" fill="white"/>
<path id="Vector_21" d="M115.672 39.816H114.682V36.5466H111.892V39.816H110.873V32.4375H111.892V35.7968H114.682V32.4375H115.672V39.816Z" fill="white"/>
<path id="Vector_22" d="M122.33 32.4386V33.4284H122.36C122.66 33.3684 122.87 33.2184 123.02 32.9185C123.17 32.6186 123.23 32.2286 123.23 31.7188H124.07C124.07 32.4386 123.92 33.0085 123.62 33.4284C123.32 33.8483 122.9 34.0883 122.3 34.1482V37.5375C122.3 38.3174 122.09 38.8873 121.67 39.3072C121.25 39.7271 120.681 39.9071 119.991 39.9071C119.301 39.9071 118.761 39.6971 118.341 39.3072C117.921 38.8873 117.711 38.3174 117.711 37.5375V32.4086H118.701V37.5375C118.701 38.0774 118.821 38.4673 119.061 38.7373C119.301 39.0072 119.601 39.1272 119.991 39.1272C120.411 39.1272 120.711 39.0072 120.951 38.7373C121.19 38.4673 121.31 38.0774 121.31 37.5375V32.4086H122.33V32.4386Z" fill="white"/>
<path id="Vector_23" d="M129.349 37.1479C129.349 38.0177 129.139 38.7076 128.689 39.1875C128.239 39.6674 127.639 39.9073 126.889 39.9073C126.139 39.9073 125.569 39.6674 125.12 39.1875C124.7 38.7076 124.46 38.0177 124.46 37.1479V35.1083C124.46 34.2385 124.67 33.5486 125.12 33.0687C125.569 32.5888 126.139 32.3189 126.859 32.3189C127.249 32.3189 127.639 32.4089 127.939 32.5589C128.269 32.7088 128.539 32.9188 128.749 33.2187C129.049 33.1587 129.289 32.9788 129.439 32.6788C129.589 32.3789 129.679 32.019 129.679 31.5391H130.518C130.518 32.1689 130.398 32.7088 130.159 33.0987C129.919 33.5187 129.559 33.7886 129.109 33.9086C129.169 34.0885 129.229 34.2685 129.259 34.4785C129.289 34.6884 129.319 34.8984 129.319 35.1083V37.1479H129.349ZM128.359 35.1083C128.359 34.4785 128.239 33.9686 127.969 33.6386C127.699 33.3087 127.369 33.1287 126.889 33.1287C126.439 33.1287 126.079 33.3087 125.839 33.6386C125.599 33.9686 125.48 34.4485 125.48 35.1083V37.1479C125.48 37.8078 125.599 38.2877 125.839 38.6176C126.079 38.9475 126.439 39.1275 126.889 39.1275C127.339 39.1275 127.699 38.9475 127.969 38.6176C128.209 38.2877 128.359 37.7778 128.359 37.1479V35.1083Z" fill="white"/>
<path id="Vector_24" d="M136.367 39.816H135.378L132.618 34.3271H132.588V39.816H131.568V32.4375H132.588L135.348 37.9264H135.378V32.4675H136.367V39.816Z" fill="white"/>
<path id="Vector_25" d="M143.116 38.7651C142.936 39.065 142.666 39.3349 142.306 39.5749C141.946 39.8148 141.466 39.9348 140.866 39.9348C140.117 39.9348 139.487 39.6949 139.037 39.215C138.587 38.7351 138.347 38.0752 138.347 37.2054V35.0158C138.347 34.146 138.557 33.4862 139.007 33.0363C139.457 32.5564 140.027 32.3164 140.776 32.3164C141.526 32.3164 142.066 32.4964 142.486 32.8863C142.876 33.2762 143.086 33.7861 143.116 34.476V34.506H142.156C142.126 34.056 142.006 33.6961 141.796 33.4562C141.586 33.2162 141.256 33.0962 140.806 33.0962C140.357 33.0962 140.027 33.2462 139.757 33.5761C139.487 33.9061 139.367 34.356 139.367 34.9859V37.2054C139.367 37.8353 139.517 38.3152 139.787 38.6451C140.057 38.975 140.446 39.155 140.896 39.155C141.226 39.155 141.496 39.095 141.706 38.975C141.886 38.8551 142.036 38.7051 142.126 38.5251V36.8455H140.896V36.0956H143.146V38.7651H143.116Z" fill="white"/>
</g>
</g>
</g>
<defs>
<clipPath id="clip0_174_3346">
<rect width="149.969" height="48.17" fill="white" transform="translate(0.015625 0.914062)"/>
</clipPath>
</defs>
</svg>
